<?xml version="1.0" encoding="utf-8"?>
<!-- Generator: Adobe Illustrator 16.0.0, SVG Export Plug-In . SVG Version: 6.00 Build 0)  -->
<!DOCTYPE svg PUBLIC "-//W3C//DTD SVG 1.1//EN" "http://www.w3.org/Graphics/SVG/1.1/DTD/svg11.dtd">
<svg version="1.1" id="Layer_1" xmlns="http://www.w3.org/2000/svg" xmlns:xlink="http://www.w3.org/1999/xlink" x="0px" y="0px"
	 width="800px" height="500px" viewBox="0 0 800 500" enable-background="new 0 0 800 500" xml:space="preserve">
<g>
	<path fill="#8DC440" d="M800,483c0,9.35-7.65,17-17,17H17c-9.35,0-17-7.65-17-17V17C0,7.65,7.65,0,17,0h766c9.35,0,17,7.65,17,17
		V483z"/>
</g>
<rect x="183.159" y="365.713" fill="#60AC45" width="98" height="7"/>
<rect x="587.5" y="365.713" fill="#60AC45" width="103" height="7"/>
<rect x="434.045" y="365.713" fill="#60AC45" width="98" height="7"/>
<rect x="285" y="365.713" fill="#60AC45" width="98" height="7"/>
<rect x="91" y="312" fill="#60AC45" width="98" height="7"/>
<g>
	<rect x="50" y="222.66" fill="#60AC45" width="110" height="200"/>
	<g>
		<g>
			<g>
				<path fill="#FFFFFF" d="M118.65,235.119c0-2.75-2.25-5-5-5H95.887c-2.75,0-5,2.25-5,5v17.759c0,2.75,2.25,5,5,5h17.764
					c2.75,0,5-2.25,5-5V235.119z"/>
			</g>
			<g>
				<path fill="#FFFFFF" d="M86.259,235.119c0-2.75-2.25-5-5-5H63.5c-2.75,0-5,2.25-5,5v17.759c0,2.75,2.25,5,5,5h17.759
					c2.75,0,5-2.25,5-5V235.119z"/>
			</g>
			<g>
				<path fill="#FFFFFF" d="M151.041,235.119c0-2.75-2.25-5-5-5h-17.764c-2.75,0-5,2.25-5,5v17.759c0,2.75,2.25,5,5,5h17.764
					c2.75,0,5-2.25,5-5V235.119z"/>
			</g>
			<g>
				<path fill="#FFFFFF" d="M91.35,284.343c0,2.75,2.25,5,5,5h17.763c2.75,0,5-2.25,5-5v-17.759c0-2.75-2.25-5-5-5H96.35
					c-2.75,0-5,2.25-5,5V284.343z"/>
			</g>
			<g>
				<path fill="#FFFFFF" d="M58.958,284.343c0,2.75,2.25,5,5,5h17.764c2.75,0,5-2.25,5-5v-17.759c0-2.75-2.25-5-5-5H63.958
					c-2.75,0-5,2.25-5,5V284.343z"/>
			</g>
			<g>
				<path fill="#FFFFFF" d="M128.741,261.584c-2.75,0-5,2.25-5,5v17.759c0,2.75,2.25,5,5,5H146.5c2.75,0,5-2.25,5-5v-17.759
					c0-2.75-2.25-5-5-5H128.741z"/>
			</g>
		</g>
		<g>
			<g>
				<path fill="#FFFFFF" d="M118.65,298.049c0-2.75-2.25-5-5-5H95.887c-2.75,0-5,2.25-5,5v17.759c0,2.75,2.25,5,5,5h17.764
					c2.75,0,5-2.25,5-5V298.049z"/>
			</g>
			<g>
				<path fill="#FFFFFF" d="M86.259,298.049c0-2.75-2.25-5-5-5H63.5c-2.75,0-5,2.25-5,5v17.759c0,2.75,2.25,5,5,5h17.759
					c2.75,0,5-2.25,5-5V298.049z"/>
			</g>
			<g>
				<path fill="#FFFFFF" d="M151.041,298.049c0-2.75-2.25-5-5-5h-17.764c-2.75,0-5,2.25-5,5v17.759c0,2.75,2.25,5,5,5h17.764
					c2.75,0,5-2.25,5-5V298.049z"/>
			</g>
			<g>
				<path fill="#FFFFFF" d="M91.35,347.271c0,2.75,2.25,5,5,5h17.763c2.75,0,5-2.25,5-5v-17.758c0-2.75-2.25-5-5-5H96.35
					c-2.75,0-5,2.25-5,5V347.271z"/>
			</g>
			<g>
				<path fill="#FFFFFF" d="M58.958,347.271c0,2.75,2.25,5,5,5h17.764c2.75,0,5-2.25,5-5v-17.758c0-2.75-2.25-5-5-5H63.958
					c-2.75,0-5,2.25-5,5V347.271z"/>
			</g>
			<g>
				<path fill="#FFFFFF" d="M128.741,324.514c-2.75,0-5,2.25-5,5v17.758c0,2.75,2.25,5,5,5H146.5c2.75,0,5-2.25,5-5v-17.758
					c0-2.75-2.25-5-5-5H128.741z"/>
			</g>
		</g>
		<g>
			<g>
				<path fill="#FFFFFF" d="M118.65,360.978c0-2.75-2.25-5-5-5H95.887c-2.75,0-5,2.25-5,5v17.759c0,2.75,2.25,5,5,5h17.764
					c2.75,0,5-2.25,5-5V360.978z"/>
			</g>
			<g>
				<path fill="#FFFFFF" d="M86.259,360.978c0-2.75-2.25-5-5-5H63.5c-2.75,0-5,2.25-5,5v17.759c0,2.75,2.25,5,5,5h17.759
					c2.75,0,5-2.25,5-5V360.978z"/>
			</g>
			<g>
				<path fill="#FFFFFF" d="M151.041,360.978c0-2.75-2.25-5-5-5h-17.764c-2.75,0-5,2.25-5,5v17.759c0,2.75,2.25,5,5,5h17.764
					c2.75,0,5-2.25,5-5V360.978z"/>
			</g>
			<g>
				<path fill="#FFFFFF" d="M91.35,410.201c0,2.75,2.25,5,5,5h17.763c2.75,0,5-2.25,5-5v-17.758c0-2.75-2.25-5-5-5H96.35
					c-2.75,0-5,2.25-5,5V410.201z"/>
			</g>
			<g>
				<path fill="#FFFFFF" d="M58.958,410.201c0,2.75,2.25,5,5,5h17.764c2.75,0,5-2.25,5-5v-17.758c0-2.75-2.25-5-5-5H63.958
					c-2.75,0-5,2.25-5,5V410.201z"/>
			</g>
			<g>
				<path fill="#FFFFFF" d="M128.741,387.443c-2.75,0-5,2.25-5,5v17.758c0,2.75,2.25,5,5,5H146.5c2.75,0,5-2.25,5-5v-17.758
					c0-2.75-2.25-5-5-5H128.741z"/>
			</g>
		</g>
	</g>
</g>
<g>
	<g>
		<path fill="#60AC45" d="M294,417.66c0,2.75-2.25,5-5,5h-73c-2.75,0-5-2.25-5-5v-90c0-2.75,2.25-5,5-5h73c2.75,0,5,2.25,5,5V417.66
			z"/>
	</g>
	<g>
		<path fill="#FFFFFF" d="M218.949,365.65c1.008-0.17,2.323-0.265,3.709-0.265c2.305,0,3.799,0.435,4.969,1.359
			c1.261,0.981,2.053,2.548,2.053,4.794c0,2.435-0.846,4.115-2.017,5.153c-1.278,1.113-3.223,1.642-5.6,1.642
			c-1.422,0-2.431-0.094-3.115-0.188V365.65z M221.704,376.031c0.234,0.057,0.612,0.057,0.954,0.057
			c2.485,0.02,4.105-1.415,4.105-4.454c0.018-2.643-1.458-4.039-3.817-4.039c-0.612,0-1.008,0.057-1.242,0.113V376.031z"/>
		<path fill="#FFFFFF" d="M240.389,377.844c-0.504,0.264-1.639,0.547-3.115,0.547c-4.195,0-6.356-2.736-6.356-6.36
			c0-4.342,2.953-6.758,6.626-6.758c1.422,0,2.502,0.302,2.989,0.566l-0.558,2.284c-0.558-0.245-1.333-0.472-2.305-0.472
			c-2.179,0-3.871,1.378-3.871,4.209c0,2.548,1.44,4.152,3.889,4.152c0.828,0,1.746-0.188,2.287-0.415L240.389,377.844z"/>
		<path fill="#FFFFFF" d="M248.793,366.33v2.643h1.963v2.113h-1.963v3.341c0,1.114,0.252,1.624,1.081,1.624
			c0.342,0,0.612-0.038,0.81-0.076l0.018,2.171c-0.36,0.151-1.008,0.245-1.783,0.245c-0.882,0-1.62-0.32-2.053-0.792
			c-0.504-0.548-0.756-1.435-0.756-2.737v-3.775h-1.17v-2.113h1.17v-2.001L248.793,366.33z"/>
		<path fill="#FFFFFF" d="M260.945,373.483c0,3.379-2.287,4.927-4.646,4.927c-2.575,0-4.555-1.774-4.555-4.757
			s1.873-4.889,4.699-4.889C259.145,368.765,260.945,370.709,260.945,373.483z M254.571,373.578c0,1.585,0.63,2.774,1.801,2.774
			c1.062,0,1.747-1.114,1.747-2.774c0-1.378-0.504-2.775-1.747-2.775C255.057,370.803,254.571,372.219,254.571,373.578z"/>
		<path fill="#FFFFFF" d="M269.187,374.937l-0.864,3.266h-2.845l3.709-12.722h3.601l3.763,12.722h-2.953l-0.936-3.266H269.187z
			 M272.266,372.785l-0.756-2.699c-0.216-0.755-0.432-1.699-0.612-2.454h-0.036c-0.18,0.755-0.36,1.718-0.559,2.454l-0.72,2.699
			H272.266z"/>
		<path fill="#FFFFFF" d="M286.63,377.844c-0.504,0.264-1.639,0.547-3.115,0.547c-4.195,0-6.356-2.736-6.356-6.36
			c0-4.342,2.953-6.758,6.626-6.758c1.422,0,2.502,0.302,2.989,0.566l-0.558,2.284c-0.558-0.245-1.333-0.472-2.305-0.472
			c-2.179,0-3.871,1.378-3.871,4.209c0,2.548,1.44,4.152,3.889,4.152c0.828,0,1.746-0.188,2.287-0.415L286.63,377.844z"/>
	</g>
</g>
<g>
	<g>
		<path fill="#60AC45" d="M441.5,417.66c0,2.75-2.25,5-5,5h-73c-2.75,0-5-2.25-5-5v-90c0-2.75,2.25-5,5-5h73c2.75,0,5,2.25,5,5
			V417.66z"/>
	</g>
	<rect x="371" y="338.998" fill="#FFFFFF" width="58" height="8"/>
	<rect x="371" y="380.998" fill="#FFFFFF" width="58" height="8"/>
	<rect x="371" y="366.998" fill="#FFFFFF" width="58" height="8"/>
	<rect x="371" y="352.998" fill="#FFFFFF" width="58" height="8"/>
</g>
<g>
	<g>
		<path fill="#60AC45" d="M589,417.66c0,2.75-2.25,5-5,5h-73c-2.75,0-5-2.25-5-5v-90c0-2.75,2.25-5,5-5h73c2.75,0,5,2.25,5,5V417.66
			z"/>
	</g>
	<circle fill="#FFFFFF" cx="547.5" cy="359.66" r="25"/>
	<g>
		<g>
			<path fill="#60AC45" d="M539.053,357.431v2.425h-6.288v-2.425H539.053z"/>
			<path fill="#60AC45" d="M546.781,357.431v2.425h-6.289v-2.425H546.781z"/>
			<path fill="#60AC45" d="M554.508,357.431v2.425h-6.288v-2.425H554.508z"/>
			<path fill="#60AC45" d="M562.236,357.431v2.425h-6.289v-2.425H562.236z"/>
		</g>
	</g>
</g>
<g>
	<rect x="690" y="222.66" fill="#60AC45" width="10" height="200"/>
	<rect x="640" y="261.968" fill="#60AC45" width="110" height="5"/>
	<rect x="640" y="243.468" fill="#60AC45" width="110" height="5"/>
</g>
<rect x="396.5" y="255.077" fill="#60AC45" width="7" height="68.532"/>
<g>
	<circle fill="#60AC45" cx="105" cy="131.978" r="50"/>
	<g>
		<path fill="#FFFFFF" d="M83.761,135.253c0.984,0.504,2.496,1.008,4.057,1.008c1.68,0,2.568-0.696,2.568-1.752
			c0-1.008-0.768-1.584-2.712-2.28c-2.688-0.936-4.44-2.424-4.44-4.776c0-2.76,2.304-4.873,6.121-4.873
			c1.824,0,3.168,0.384,4.128,0.816l-0.816,2.953c-0.648-0.312-1.8-0.769-3.384-0.769s-2.352,0.72-2.352,1.561
			c0,1.032,0.912,1.488,3,2.28c2.856,1.056,4.201,2.544,4.201,4.824c0,2.712-2.088,5.017-6.529,5.017
			c-1.848,0-3.672-0.48-4.584-0.984L83.761,135.253z"/>
		<path fill="#FFFFFF" d="M100.249,122.845v9.312c0,2.784,1.056,4.201,2.928,4.201c1.92,0,2.976-1.344,2.976-4.201v-9.312h3.648
			v9.073c0,4.992-2.52,7.369-6.745,7.369c-4.08,0-6.48-2.256-6.48-7.417v-9.024H100.249z"/>
		<path fill="#FFFFFF" d="M112.968,139.022v-16.177h4.272l3.36,5.928c0.96,1.704,1.92,3.721,2.64,5.544h0.072
			c-0.24-2.136-0.312-4.32-0.312-6.745v-4.728h3.36v16.177h-3.84l-3.457-6.241c-0.96-1.728-2.016-3.816-2.808-5.712l-0.072,0.024
			c0.096,2.136,0.144,4.417,0.144,7.057v4.873H112.968z"/>
	</g>
</g>
<g>
	<path fill="#FFFFFF" d="M51.278,451.174c0.738,0.377,1.873,0.756,3.043,0.756c1.26,0,1.927-0.522,1.927-1.314
		c0-0.756-0.576-1.188-2.035-1.711c-2.017-0.702-3.331-1.818-3.331-3.583c0-2.07,1.729-3.655,4.591-3.655
		c1.368,0,2.377,0.289,3.097,0.612l-0.612,2.215c-0.486-0.233-1.351-0.576-2.539-0.576c-1.188,0-1.764,0.54-1.764,1.171
		c0,0.773,0.684,1.115,2.25,1.71c2.143,0.792,3.151,1.909,3.151,3.619c0,2.034-1.566,3.763-4.897,3.763
		c-1.386,0-2.755-0.359-3.439-0.738L51.278,451.174z"/>
	<path fill="#FFFFFF" d="M72.018,447.807c0,3.979-2.413,6.392-5.96,6.392c-3.601,0-5.708-2.719-5.708-6.176
		c0-3.638,2.323-6.356,5.906-6.356C69.983,441.666,72.018,444.457,72.018,447.807z M63.249,447.969c0,2.376,1.116,4.051,2.953,4.051
		c1.854,0,2.917-1.765,2.917-4.123c0-2.179-1.044-4.052-2.935-4.052C64.329,443.845,63.249,445.609,63.249,447.969z"/>
	<path fill="#FFFFFF" d="M73.814,441.864h2.755v9.831h4.825V454h-7.58V441.864z"/>
	<path fill="#FFFFFF" d="M85.946,450.885L85.082,454h-2.845l3.709-12.136h3.601L93.311,454h-2.953l-0.936-3.115H85.946z
		 M89.025,448.832l-0.756-2.574c-0.216-0.721-0.432-1.621-0.612-2.341h-0.036c-0.18,0.72-0.36,1.639-0.559,2.341l-0.72,2.574H89.025
		z"/>
	<path fill="#FFFFFF" d="M94.927,442.026c0.882-0.144,2.197-0.252,3.655-0.252c1.801,0,3.061,0.271,3.925,0.954
		c0.72,0.576,1.116,1.422,1.116,2.539c0,1.549-1.098,2.61-2.143,2.988v0.055c0.846,0.342,1.314,1.152,1.621,2.269
		c0.378,1.368,0.756,2.952,0.99,3.421h-2.809c-0.198-0.342-0.486-1.332-0.847-2.826c-0.324-1.514-0.846-1.928-1.962-1.945h-0.828
		V454h-2.719V442.026z M97.646,447.248h1.08c1.369,0,2.179-0.684,2.179-1.746c0-1.117-0.756-1.675-2.017-1.693
		c-0.666,0-1.044,0.055-1.242,0.09V447.248z"/>
	<path fill="#FFFFFF" d="M109.237,442.026c0.846-0.144,2.035-0.252,3.709-0.252c1.692,0,2.899,0.324,3.709,0.972
		c0.774,0.613,1.296,1.621,1.296,2.81s-0.396,2.196-1.116,2.881c-0.937,0.882-2.323,1.278-3.943,1.278
		c-0.36,0-0.684-0.018-0.936-0.055V454h-2.719V442.026z M111.956,447.536c0.234,0.054,0.522,0.071,0.918,0.071
		c1.458,0,2.358-0.737,2.358-1.98c0-1.115-0.774-1.782-2.143-1.782c-0.558,0-0.937,0.054-1.134,0.108V447.536z"/>
	<path fill="#FFFFFF" d="M121.441,450.885L120.577,454h-2.845l3.709-12.136h3.601L128.806,454h-2.953l-0.936-3.115H121.441z
		 M124.521,448.832l-0.756-2.574c-0.216-0.721-0.432-1.621-0.612-2.341h-0.036c-0.18,0.72-0.36,1.639-0.559,2.341l-0.72,2.574
		H124.521z"/>
	<path fill="#FFFFFF" d="M130.422,454v-12.136h3.205l2.521,4.447c0.72,1.278,1.44,2.791,1.98,4.159h0.054
		c-0.18-1.602-0.234-3.24-0.234-5.059v-3.548h2.521V454h-2.881l-2.593-4.682c-0.72-1.296-1.512-2.863-2.106-4.285l-0.054,0.018
		c0.072,1.604,0.108,3.313,0.108,5.294V454H130.422z"/>
	<path fill="#FFFFFF" d="M150.062,448.869h-4.466v2.881h4.987V454h-7.742v-12.136h7.49v2.251h-4.735v2.521h4.466V448.869z"/>
	<path fill="#FFFFFF" d="M152.455,441.864h2.755v9.831h4.825V454h-7.58V441.864z"/>
</g>
<g>
	<path fill="#FFFFFF" d="M639.959,441.864h2.756v9.831h4.824V454h-7.58V441.864z"/>
	<path fill="#FFFFFF" d="M659.582,447.807c0,3.979-2.412,6.392-5.959,6.392c-3.602,0-5.708-2.719-5.708-6.176
		c0-3.638,2.322-6.356,5.905-6.356C657.548,441.666,659.582,444.457,659.582,447.807z M650.813,447.969
		c0,2.376,1.116,4.051,2.953,4.051c1.854,0,2.917-1.765,2.917-4.123c0-2.179-1.045-4.052-2.936-4.052
		C651.895,443.845,650.813,445.609,650.813,447.969z"/>
	<path fill="#FFFFFF" d="M670.291,453.658c-0.504,0.252-1.639,0.521-3.114,0.521c-4.195,0-6.356-2.61-6.356-6.067
		c0-4.142,2.953-6.446,6.627-6.446c1.422,0,2.502,0.289,2.988,0.541l-0.559,2.178c-0.558-0.234-1.332-0.449-2.305-0.449
		c-2.178,0-3.871,1.314-3.871,4.015c0,2.431,1.441,3.961,3.89,3.961c0.828,0,1.746-0.18,2.286-0.396L670.291,453.658z"/>
	<path fill="#FFFFFF" d="M675.096,450.885L674.231,454h-2.845l3.709-12.136h3.602L682.46,454h-2.953l-0.937-3.115H675.096z
		 M678.175,448.832l-0.757-2.574c-0.216-0.721-0.432-1.621-0.611-2.341h-0.036c-0.181,0.72-0.36,1.639-0.559,2.341l-0.72,2.574
		H678.175z"/>
	<path fill="#FFFFFF" d="M684.076,441.864h2.756v9.831h4.824V454h-7.58V441.864z"/>
	<path fill="#FFFFFF" d="M696.91,442.026c0.846-0.144,2.035-0.252,3.709-0.252c1.692,0,2.898,0.324,3.709,0.972
		c0.774,0.613,1.297,1.621,1.297,2.81s-0.396,2.196-1.117,2.881c-0.936,0.882-2.322,1.278-3.943,1.278
		c-0.359,0-0.684-0.018-0.936-0.055V454h-2.719V442.026z M699.629,447.536c0.234,0.054,0.521,0.071,0.918,0.071
		c1.459,0,2.359-0.737,2.359-1.98c0-1.115-0.774-1.782-2.143-1.782c-0.559,0-0.937,0.054-1.135,0.108V447.536z"/>
	<path fill="#FFFFFF" d="M718.478,447.807c0,3.979-2.413,6.392-5.96,6.392c-3.602,0-5.707-2.719-5.707-6.176
		c0-3.638,2.322-6.356,5.905-6.356C716.443,441.666,718.478,444.457,718.478,447.807z M709.709,447.969
		c0,2.376,1.116,4.051,2.953,4.051c1.854,0,2.916-1.765,2.916-4.123c0-2.179-1.044-4.052-2.935-4.052
		C710.789,443.845,709.709,445.609,709.709,447.969z"/>
	<path fill="#FFFFFF" d="M722.11,454l-2.881-12.136h2.935l0.918,5.006c0.271,1.44,0.523,3.007,0.721,4.231h0.036
		c0.198-1.314,0.486-2.773,0.792-4.268l1.026-4.97h2.917l0.973,5.114c0.27,1.422,0.468,2.719,0.648,4.068h0.035
		c0.181-1.35,0.451-2.772,0.703-4.213l0.99-4.97h2.791L731.581,454h-2.971l-1.026-5.222c-0.234-1.224-0.432-2.358-0.576-3.745
		h-0.036c-0.216,1.369-0.414,2.521-0.702,3.745L725.117,454H722.11z"/>
	<path fill="#FFFFFF" d="M743.352,448.869h-4.465v2.881h4.987V454h-7.742v-12.136h7.49v2.251h-4.735v2.521h4.465V448.869z"/>
	<path fill="#FFFFFF" d="M745.744,442.026c0.882-0.144,2.196-0.252,3.654-0.252c1.801,0,3.061,0.271,3.926,0.954
		c0.72,0.576,1.115,1.422,1.115,2.539c0,1.549-1.098,2.61-2.143,2.988v0.055c0.847,0.342,1.314,1.152,1.621,2.269
		c0.378,1.368,0.756,2.952,0.99,3.421H752.1c-0.198-0.342-0.486-1.332-0.847-2.826c-0.323-1.514-0.847-1.928-1.962-1.945h-0.828V454
		h-2.719V442.026z M748.463,447.248h1.08c1.368,0,2.178-0.684,2.178-1.746c0-1.117-0.756-1.675-2.016-1.693
		c-0.666,0-1.045,0.055-1.242,0.09V447.248z"/>
	<path fill="#FFFFFF" d="M688.021,475.042c-0.846,0.288-2.449,0.685-4.051,0.685c-2.215,0-3.817-0.559-4.934-1.639
		c-1.116-1.045-1.729-2.629-1.711-4.412c0.019-4.033,2.953-6.338,6.933-6.338c1.566,0,2.772,0.307,3.366,0.595l-0.576,2.196
		c-0.666-0.287-1.494-0.521-2.826-0.521c-2.287,0-4.016,1.296-4.016,3.925c0,2.503,1.566,3.979,3.817,3.979
		c0.63,0,1.134-0.072,1.351-0.18v-2.539h-1.873v-2.143h4.52V475.042z"/>
	<path fill="#FFFFFF" d="M690.16,463.627c0.883-0.145,2.197-0.252,3.655-0.252c1.801,0,3.062,0.27,3.925,0.953
		c0.721,0.576,1.117,1.423,1.117,2.539c0,1.549-1.099,2.611-2.143,2.989v0.054c0.846,0.342,1.314,1.152,1.62,2.27
		c0.378,1.367,0.757,2.952,0.99,3.42h-2.809c-0.198-0.342-0.486-1.332-0.847-2.826c-0.324-1.513-0.846-1.927-1.963-1.945h-0.828
		v4.771h-2.719V463.627z M692.879,468.848h1.08c1.369,0,2.18-0.684,2.18-1.746c0-1.116-0.757-1.674-2.018-1.692
		c-0.666,0-1.044,0.054-1.242,0.09V468.848z"/>
	<path fill="#FFFFFF" d="M703.59,463.465V475.6h-2.756v-12.135H703.59z"/>
	<path fill="#FFFFFF" d="M705.965,463.627c1.008-0.162,2.322-0.252,3.709-0.252c2.305,0,3.799,0.414,4.969,1.296
		c1.261,0.937,2.053,2.431,2.053,4.573c0,2.322-0.846,3.926-2.017,4.916c-1.278,1.062-3.223,1.566-5.6,1.566
		c-1.423,0-2.431-0.09-3.114-0.181V463.627z M708.719,473.529c0.234,0.055,0.612,0.055,0.955,0.055
		c2.484,0.018,4.104-1.352,4.104-4.25c0.019-2.521-1.458-3.854-3.817-3.854c-0.611,0-1.008,0.055-1.242,0.108V473.529z"/>
</g>
<g>
	<path fill="#FFFFFF" d="M504.542,448.869h-4.466v2.881h4.988V454h-7.742v-12.136h7.49v2.251h-4.736v2.521h4.466V448.869z"/>
	<path fill="#FFFFFF" d="M506.934,441.864h2.755v9.831h4.825V454h-7.58V441.864z"/>
	<path fill="#FFFFFF" d="M523.352,448.869h-4.465v2.881h4.986V454h-7.742v-12.136h7.49v2.251h-4.734v2.521h4.465V448.869z"/>
	<path fill="#FFFFFF" d="M534.656,453.658c-0.505,0.252-1.639,0.521-3.115,0.521c-4.195,0-6.355-2.61-6.355-6.067
		c0-4.142,2.952-6.446,6.625-6.446c1.423,0,2.503,0.289,2.989,0.541l-0.558,2.178c-0.559-0.234-1.333-0.449-2.305-0.449
		c-2.18,0-3.871,1.314-3.871,4.015c0,2.431,1.439,3.961,3.889,3.961c0.828,0,1.746-0.18,2.287-0.396L534.656,453.658z"/>
	<path fill="#FFFFFF" d="M539.046,444.169h-3.259v-2.305h9.326v2.305h-3.312V454h-2.755V444.169z"/>
	<path fill="#FFFFFF" d="M546.568,442.026c0.883-0.144,2.197-0.252,3.655-0.252c1.801,0,3.062,0.271,3.925,0.954
		c0.721,0.576,1.117,1.422,1.117,2.539c0,1.549-1.099,2.61-2.143,2.988v0.055c0.846,0.342,1.314,1.152,1.62,2.269
		c0.378,1.368,0.757,2.952,0.99,3.421h-2.809c-0.198-0.342-0.486-1.332-0.847-2.826c-0.324-1.514-0.846-1.928-1.963-1.945h-0.828
		V454h-2.719V442.026z M549.287,447.248h1.08c1.369,0,2.18-0.684,2.18-1.746c0-1.117-0.757-1.675-2.018-1.693
		c-0.666,0-1.044,0.055-1.242,0.09V447.248z"/>
	<path fill="#FFFFFF" d="M559.998,441.864V454h-2.756v-12.136H559.998z"/>
	<path fill="#FFFFFF" d="M571.285,453.658c-0.504,0.252-1.639,0.521-3.115,0.521c-4.195,0-6.355-2.61-6.355-6.067
		c0-4.142,2.953-6.446,6.626-6.446c1.423,0,2.503,0.289,2.989,0.541l-0.559,2.178c-0.559-0.234-1.332-0.449-2.305-0.449
		c-2.179,0-3.871,1.314-3.871,4.015c0,2.431,1.44,3.961,3.889,3.961c0.828,0,1.747-0.18,2.287-0.396L571.285,453.658z"/>
	<path fill="#FFFFFF" d="M575.838,441.864V454h-2.756v-12.136H575.838z"/>
	<path fill="#FFFFFF" d="M580.553,444.169h-3.259v-2.305h9.327v2.305h-3.313V454h-2.755V444.169z"/>
	<path fill="#FFFFFF" d="M591.01,454v-4.97l-3.834-7.166h3.133l1.242,2.917c0.378,0.883,0.63,1.53,0.936,2.322h0.037
		c0.27-0.756,0.558-1.458,0.918-2.322l1.225-2.917h3.078l-3.997,7.076V454H591.01z"/>
	<path fill="#FFFFFF" d="M530.912,470.955c-0.055-1.459-0.108-3.223-0.108-4.988h-0.054c-0.379,1.549-0.883,3.277-1.351,4.699
		l-1.477,4.736h-2.143l-1.296-4.699c-0.396-1.423-0.811-3.151-1.099-4.736h-0.036c-0.072,1.639-0.126,3.512-0.216,5.023
		l-0.216,4.609h-2.539l0.773-12.135h3.656l1.188,4.051c0.379,1.404,0.756,2.917,1.026,4.34h0.054
		c0.343-1.404,0.757-3.008,1.152-4.357l1.297-4.033h3.583l0.667,12.135h-2.684L530.912,470.955z"/>
	<path fill="#FFFFFF" d="M543.098,470.469h-4.466v2.881h4.987v2.25h-7.742v-12.135h7.49v2.25h-4.735v2.521h4.466V470.469z"/>
	<path fill="#FFFFFF" d="M547.919,465.77h-3.259v-2.305h9.326v2.305h-3.312v9.83h-2.755V465.77z"/>
	<path fill="#FFFFFF" d="M562.662,470.469h-4.465v2.881h4.987v2.25h-7.742v-12.135h7.49v2.25h-4.735v2.521h4.465V470.469z"/>
	<path fill="#FFFFFF" d="M565.055,463.627c0.882-0.145,2.196-0.252,3.654-0.252c1.801,0,3.061,0.27,3.926,0.953
		c0.72,0.576,1.115,1.423,1.115,2.539c0,1.549-1.098,2.611-2.143,2.989v0.054c0.847,0.342,1.314,1.152,1.621,2.27
		c0.378,1.367,0.756,2.952,0.99,3.42h-2.809c-0.198-0.342-0.486-1.332-0.847-2.826c-0.323-1.513-0.847-1.927-1.962-1.945h-0.828
		v4.771h-2.719V463.627z M567.773,468.848h1.08c1.368,0,2.178-0.684,2.178-1.746c0-1.116-0.756-1.674-2.016-1.692
		c-0.666,0-1.045,0.054-1.242,0.09V468.848z"/>
</g>
<g>
	<path fill="#FFFFFF" d="M340.278,451.174c0.738,0.377,1.873,0.756,3.043,0.756c1.26,0,1.927-0.522,1.927-1.314
		c0-0.756-0.576-1.188-2.035-1.711c-2.017-0.702-3.331-1.818-3.331-3.583c0-2.07,1.729-3.655,4.591-3.655
		c1.368,0,2.377,0.289,3.097,0.612l-0.612,2.215c-0.486-0.233-1.351-0.576-2.539-0.576c-1.188,0-1.764,0.54-1.764,1.171
		c0,0.773,0.684,1.115,2.25,1.71c2.143,0.792,3.151,1.909,3.151,3.619c0,2.034-1.566,3.763-4.897,3.763
		c-1.386,0-2.755-0.359-3.439-0.738L340.278,451.174z"/>
	<path fill="#FFFFFF" d="M351.871,454l-2.881-12.136h2.935l0.918,5.006c0.271,1.44,0.522,3.007,0.72,4.231h0.036
		c0.198-1.314,0.486-2.773,0.792-4.268l1.026-4.97h2.917l0.972,5.114c0.271,1.422,0.468,2.719,0.648,4.068h0.036
		c0.18-1.35,0.45-2.772,0.702-4.213l0.99-4.97h2.791L361.341,454h-2.971l-1.026-5.222c-0.234-1.224-0.432-2.358-0.576-3.745h-0.036
		c-0.216,1.369-0.414,2.521-0.702,3.745L354.877,454H351.871z"/>
	<path fill="#FFFFFF" d="M368.647,441.864V454h-2.755v-12.136H368.647z"/>
	<path fill="#FFFFFF" d="M373.362,444.169h-3.259v-2.305h9.327v2.305h-3.313V454h-2.755V444.169z"/>
	<path fill="#FFFFFF" d="M389.276,453.658c-0.504,0.252-1.639,0.521-3.115,0.521c-4.195,0-6.355-2.61-6.355-6.067
		c0-4.142,2.953-6.446,6.626-6.446c1.422,0,2.502,0.289,2.989,0.541l-0.558,2.178c-0.558-0.234-1.333-0.449-2.305-0.449
		c-2.179,0-3.871,1.314-3.871,4.015c0,2.431,1.44,3.961,3.889,3.961c0.828,0,1.747-0.18,2.287-0.396L389.276,453.658z"/>
	<path fill="#FFFFFF" d="M393.829,441.864v4.663h4.519v-4.663h2.736V454h-2.736v-5.078h-4.519V454h-2.755v-12.136H393.829z"/>
	<path fill="#FFFFFF" d="M407.111,442.026c0.721-0.144,2.179-0.252,3.547-0.252c1.675,0,2.701,0.162,3.583,0.685
		c0.847,0.449,1.458,1.277,1.458,2.377c0,1.08-0.63,2.088-1.998,2.592v0.036c1.387,0.378,2.412,1.423,2.412,2.989
		c0,1.098-0.504,1.963-1.26,2.574c-0.883,0.703-2.359,1.099-4.771,1.099c-1.351,0-2.358-0.09-2.971-0.181V442.026z M409.83,446.672
		h0.9c1.44,0,2.215-0.594,2.215-1.494c0-0.918-0.703-1.404-1.945-1.404c-0.594,0-0.936,0.035-1.17,0.071V446.672z M409.83,452.056
		c0.27,0.036,0.594,0.036,1.062,0.036c1.242,0,2.34-0.469,2.34-1.747c0-1.224-1.098-1.71-2.467-1.71h-0.936V452.056z"/>
	<path fill="#FFFFFF" d="M429.092,447.807c0,3.979-2.412,6.392-5.959,6.392c-3.602,0-5.708-2.719-5.708-6.176
		c0-3.638,2.322-6.356,5.905-6.356C427.058,441.666,429.092,444.457,429.092,447.807z M420.323,447.969
		c0,2.376,1.116,4.051,2.953,4.051c1.854,0,2.917-1.765,2.917-4.123c0-2.179-1.045-4.052-2.936-4.052
		C421.404,443.845,420.323,445.609,420.323,447.969z"/>
	<path fill="#FFFFFF" d="M433.428,450.885L432.563,454h-2.845l3.709-12.136h3.602L440.792,454h-2.953l-0.937-3.115H433.428z
		 M436.507,448.832l-0.757-2.574c-0.216-0.721-0.432-1.621-0.611-2.341h-0.036c-0.181,0.72-0.36,1.639-0.559,2.341l-0.72,2.574
		H436.507z"/>
	<path fill="#FFFFFF" d="M442.409,442.026c0.882-0.144,2.196-0.252,3.655-0.252c1.8,0,3.061,0.271,3.925,0.954
		c0.721,0.576,1.116,1.422,1.116,2.539c0,1.549-1.098,2.61-2.143,2.988v0.055c0.847,0.342,1.314,1.152,1.621,2.269
		c0.378,1.368,0.756,2.952,0.99,3.421h-2.81c-0.198-0.342-0.485-1.332-0.846-2.826c-0.324-1.514-0.847-1.928-1.963-1.945h-0.828V454
		h-2.719V442.026z M445.128,447.248h1.08c1.368,0,2.179-0.684,2.179-1.746c0-1.117-0.756-1.675-2.017-1.693
		c-0.666,0-1.044,0.055-1.242,0.09V447.248z"/>
	<path fill="#FFFFFF" d="M453.083,442.026c1.008-0.162,2.322-0.252,3.709-0.252c2.305,0,3.799,0.414,4.97,1.296
		c1.26,0.937,2.053,2.432,2.053,4.574c0,2.322-0.847,3.925-2.017,4.915c-1.278,1.062-3.224,1.566-5.6,1.566
		c-1.423,0-2.431-0.09-3.115-0.181V442.026z M455.838,451.93c0.234,0.054,0.612,0.054,0.954,0.054
		c2.484,0.019,4.105-1.351,4.105-4.249c0.018-2.521-1.459-3.854-3.817-3.854c-0.612,0-1.008,0.055-1.242,0.108V451.93z"/>
</g>
<g>
	<path fill="#FFFFFF" d="M215.943,441.864V454h-2.755v-12.136H215.943z"/>
	<path fill="#FFFFFF" d="M218.318,454v-12.136h3.205l2.521,4.447c0.72,1.278,1.44,2.791,1.98,4.159h0.054
		c-0.18-1.602-0.234-3.24-0.234-5.059v-3.548h2.521V454h-2.881l-2.593-4.682c-0.72-1.296-1.513-2.863-2.106-4.285l-0.054,0.018
		c0.072,1.604,0.108,3.313,0.108,5.294V454H218.318z"/>
	<path fill="#FFFFFF" d="M233.601,454l-3.889-12.136h3.007l1.477,5.132c0.414,1.44,0.792,2.826,1.08,4.339h0.054
		c0.306-1.458,0.684-2.898,1.098-4.285l1.549-5.186h2.917L236.806,454H233.601z"/>
	<path fill="#FFFFFF" d="M249.406,448.869h-4.465v2.881h4.987V454h-7.742v-12.136h7.49v2.251h-4.735v2.521h4.465V448.869z"/>
	<path fill="#FFFFFF" d="M251.798,442.026c0.882-0.144,2.196-0.252,3.655-0.252c1.801,0,3.061,0.271,3.925,0.954
		c0.72,0.576,1.116,1.422,1.116,2.539c0,1.549-1.098,2.61-2.143,2.988v0.055c0.846,0.342,1.314,1.152,1.621,2.269
		c0.378,1.368,0.756,2.952,0.99,3.421h-2.809c-0.198-0.342-0.486-1.332-0.846-2.826c-0.324-1.514-0.847-1.928-1.963-1.945h-0.828
		V454h-2.719V442.026z M254.517,447.248h1.08c1.369,0,2.179-0.684,2.179-1.746c0-1.117-0.756-1.675-2.017-1.693
		c-0.666,0-1.044,0.055-1.242,0.09V447.248z"/>
	<path fill="#FFFFFF" d="M264.812,444.169h-3.259v-2.305h9.327v2.305h-3.313V454h-2.754V444.169z"/>
	<path fill="#FFFFFF" d="M279.556,448.869h-4.465v2.881h4.987V454h-7.742v-12.136h7.49v2.251h-4.735v2.521h4.465V448.869z"/>
	<path fill="#FFFFFF" d="M281.947,442.026c0.882-0.144,2.196-0.252,3.655-0.252c1.801,0,3.061,0.271,3.925,0.954
		c0.72,0.576,1.116,1.422,1.116,2.539c0,1.549-1.098,2.61-2.143,2.988v0.055c0.846,0.342,1.314,1.152,1.621,2.269
		c0.378,1.368,0.756,2.952,0.99,3.421h-2.809c-0.198-0.342-0.486-1.332-0.846-2.826c-0.324-1.514-0.847-1.928-1.963-1.945h-0.828
		V454h-2.719V442.026z M284.666,447.248h1.08c1.369,0,2.179-0.684,2.179-1.746c0-1.117-0.756-1.675-2.017-1.693
		c-0.666,0-1.044,0.055-1.242,0.09V447.248z"/>
</g>
<g>
	<path fill="#FFFFFF" d="M87.969,25.392v9.841h9.537v-9.841h5.775V51h-5.775V40.286h-9.537V51h-5.813V25.392H87.969z"/>
	<path fill="#FFFFFF" d="M131.78,37.93c0,8.397-5.091,13.488-12.576,13.488c-7.599,0-12.044-5.737-12.044-13.032
		c0-7.675,4.901-13.412,12.462-13.412C127.487,24.974,131.78,30.863,131.78,37.93z M113.277,38.272c0,5.015,2.356,8.549,6.231,8.549
		c3.914,0,6.155-3.724,6.155-8.701c0-4.598-2.204-8.549-6.193-8.549C115.557,29.571,113.277,33.294,113.277,38.272z"/>
	<path fill="#FFFFFF" d="M139.459,51l-6.079-25.608h6.193l1.938,10.562c0.57,3.04,1.102,6.345,1.52,8.929h0.076
		c0.418-2.773,1.026-5.851,1.672-9.004l2.166-10.487h6.155l2.052,10.791c0.57,3.001,0.988,5.737,1.368,8.587h0.076
		c0.38-2.85,0.95-5.851,1.481-8.891l2.09-10.487h5.889L159.445,51h-6.269l-2.166-11.019c-0.494-2.583-0.912-4.977-1.216-7.903
		h-0.076c-0.456,2.888-0.874,5.319-1.482,7.903L145.805,51H139.459z"/>
	<path fill="#FFFFFF" d="M182.551,25.392v9.841h9.537v-9.841h5.775V51h-5.775V40.286h-9.537V51h-5.813V25.392H182.551z"/>
	<path fill="#FFFFFF" d="M226.362,37.93c0,8.397-5.091,13.488-12.576,13.488c-7.599,0-12.044-5.737-12.044-13.032
		c0-7.675,4.901-13.412,12.462-13.412C222.068,24.974,226.362,30.863,226.362,37.93z M207.858,38.272
		c0,5.015,2.356,8.549,6.231,8.549c3.913,0,6.155-3.724,6.155-8.701c0-4.598-2.204-8.549-6.193-8.549
		C210.138,29.571,207.858,33.294,207.858,38.272z"/>
	<path fill="#FFFFFF" d="M251.822,41.197c-0.114-3.077-0.228-6.801-0.228-10.524h-0.114c-0.798,3.268-1.861,6.915-2.85,9.917
		l-3.115,9.993h-4.521l-2.735-9.917c-0.836-3.001-1.71-6.649-2.318-9.993h-0.076c-0.152,3.458-0.266,7.409-0.456,10.601L234.952,51
		h-5.357l1.634-25.608h7.713l2.508,8.549c0.798,2.964,1.596,6.155,2.166,9.157h0.114c0.722-2.963,1.596-6.345,2.432-9.195
		l2.735-8.511h7.561L257.863,51h-5.661L251.822,41.197z"/>
	<path fill="#FFFFFF" d="M277.548,40.171h-9.422v6.079h10.524V51h-16.337V25.392h15.806v4.75h-9.993v5.319h9.422V40.171z"/>
	<path fill="#FFFFFF" d="M305.516,40.171h-9.422v6.079h10.524V51h-16.337V25.392h15.806v4.75h-9.993v5.319h9.422V40.171z"/>
	<path fill="#FFFFFF" d="M310.573,51V25.392h6.763l5.319,9.385c1.52,2.698,3.04,5.889,4.179,8.777h0.114
		c-0.38-3.382-0.494-6.839-0.494-10.677v-7.485h5.319V51h-6.079l-5.471-9.878c-1.52-2.736-3.191-6.041-4.445-9.043l-0.114,0.038
		c0.152,3.381,0.228,6.991,0.228,11.17V51H310.573z"/>
	<path fill="#FFFFFF" d="M352.027,40.171h-9.422v6.079h10.524V51h-16.337V25.392h15.806v4.75h-9.993v5.319h9.422V40.171z"/>
	<path fill="#FFFFFF" d="M357.084,25.734c1.861-0.304,4.635-0.532,7.713-0.532c3.799,0,6.459,0.57,8.283,2.014
		c1.52,1.216,2.355,3.002,2.355,5.357c0,3.268-2.318,5.509-4.521,6.307v0.114c1.786,0.722,2.774,2.432,3.419,4.788
		c0.798,2.887,1.596,6.231,2.09,7.219h-5.927c-0.417-0.722-1.026-2.812-1.786-5.965c-0.684-3.191-1.786-4.065-4.141-4.103h-1.748V51
		h-5.737V25.734z M362.821,36.752h2.28c2.888,0,4.597-1.444,4.597-3.686c0-2.355-1.596-3.533-4.255-3.571
		c-1.406,0-2.204,0.114-2.622,0.19V36.752z"/>
	<path fill="#FFFFFF" d="M400.856,49.822c-1.786,0.608-5.167,1.444-8.549,1.444c-4.673,0-8.055-1.178-10.41-3.458
		c-2.356-2.204-3.647-5.547-3.61-9.309c0.038-8.511,6.231-13.374,14.628-13.374c3.306,0,5.851,0.646,7.105,1.254l-1.216,4.635
		c-1.406-0.608-3.153-1.102-5.965-1.102c-4.826,0-8.473,2.736-8.473,8.283c0,5.281,3.306,8.397,8.055,8.397
		c1.33,0,2.394-0.152,2.85-0.38v-5.357h-3.952v-4.521h9.537V49.822z"/>
	<path fill="#FFFFFF" d="M411.309,51V40.514l-8.094-15.122h6.611l2.622,6.155c0.798,1.862,1.329,3.229,1.976,4.901h0.076
		c0.57-1.596,1.178-3.078,1.938-4.901l2.584-6.155h6.496l-8.434,14.932V51H411.309z"/>
	<path fill="#FFFFFF" d="M436.16,45.035c1.559,0.798,3.951,1.596,6.422,1.596c2.659,0,4.064-1.102,4.064-2.774
		c0-1.596-1.215-2.507-4.293-3.609c-4.256-1.482-7.029-3.837-7.029-7.561c0-4.369,3.648-7.713,9.689-7.713
		c2.887,0,5.015,0.608,6.535,1.292l-1.293,4.673c-1.025-0.494-2.85-1.216-5.356-1.216c-2.508,0-3.724,1.14-3.724,2.47
		c0,1.634,1.443,2.355,4.749,3.609c4.521,1.672,6.649,4.027,6.649,7.637c0,4.293-3.306,7.941-10.334,7.941
		c-2.926,0-5.814-0.76-7.258-1.558L436.16,45.035z"/>
	<path fill="#FFFFFF" d="M461.43,30.255h-6.877v-4.863h19.682v4.863h-6.991V51h-5.813V30.255z"/>
	<path fill="#FFFFFF" d="M499.654,37.93c0,8.397-5.091,13.488-12.576,13.488c-7.599,0-12.044-5.737-12.044-13.032
		c0-7.675,4.901-13.412,12.462-13.412C495.361,24.974,499.654,30.863,499.654,37.93z M481.151,38.272
		c0,5.015,2.356,8.549,6.231,8.549c3.913,0,6.154-3.724,6.154-8.701c0-4.598-2.203-8.549-6.192-8.549
		C483.432,29.571,481.151,33.294,481.151,38.272z"/>
	<path fill="#FFFFFF" d="M503.459,25.734c1.861-0.304,4.635-0.532,7.713-0.532c3.799,0,6.459,0.57,8.282,2.014
		c1.52,1.216,2.355,3.002,2.355,5.357c0,3.268-2.317,5.509-4.521,6.307v0.114c1.786,0.722,2.774,2.432,3.42,4.788
		c0.798,2.887,1.596,6.231,2.089,7.219h-5.927c-0.418-0.722-1.025-2.812-1.786-5.965c-0.684-3.191-1.785-4.065-4.141-4.103h-1.748
		V51h-5.736V25.734z M509.195,36.752h2.279c2.889,0,4.598-1.444,4.598-3.686c0-2.355-1.596-3.533-4.256-3.571
		c-1.405,0-2.203,0.114-2.621,0.19V36.752z"/>
	<path fill="#FFFFFF" d="M532.299,44.427L530.475,51h-6.003l7.827-25.608h7.599L547.838,51h-6.23l-1.977-6.573H532.299z
		 M538.795,40.096l-1.596-5.433c-0.455-1.52-0.911-3.419-1.291-4.939h-0.076c-0.38,1.52-0.76,3.458-1.178,4.939l-1.52,5.433H538.795
		z"/>
	<path fill="#FFFFFF" d="M571.702,49.822c-1.786,0.608-5.167,1.444-8.549,1.444c-4.673,0-8.055-1.178-10.41-3.458
		c-2.356-2.204-3.647-5.547-3.61-9.309c0.039-8.511,6.232-13.374,14.629-13.374c3.305,0,5.851,0.646,7.104,1.254l-1.216,4.635
		c-1.406-0.608-3.153-1.102-5.965-1.102c-4.826,0-8.473,2.736-8.473,8.283c0,5.281,3.305,8.397,8.055,8.397
		c1.33,0,2.394-0.152,2.85-0.38v-5.357h-3.951v-4.521h9.536V49.822z"/>
	<path fill="#FFFFFF" d="M591.463,40.171h-9.423v6.079h10.524V51h-16.338V25.392h15.807v4.75h-9.993v5.319h9.423V40.171z"/>
	<path fill="#FFFFFF" d="M606.93,51l-6.078-25.608h6.193l1.938,10.562c0.569,3.04,1.102,6.345,1.52,8.929h0.076
		c0.418-2.773,1.025-5.851,1.672-9.004l2.165-10.487h6.155l2.052,10.791c0.569,3.001,0.987,5.737,1.368,8.587h0.076
		c0.379-2.85,0.949-5.851,1.48-8.891l2.09-10.487h5.89L626.916,51h-6.27l-2.166-11.019c-0.494-2.583-0.912-4.977-1.216-7.903h-0.075
		c-0.457,2.888-0.875,5.319-1.482,7.903L613.275,51H606.93z"/>
	<path fill="#FFFFFF" d="M659.671,37.93c0,8.397-5.091,13.488-12.576,13.488c-7.599,0-12.044-5.737-12.044-13.032
		c0-7.675,4.9-13.412,12.462-13.412C655.377,24.974,659.671,30.863,659.671,37.93z M641.168,38.272c0,5.015,2.355,8.549,6.23,8.549
		c3.914,0,6.155-3.724,6.155-8.701c0-4.598-2.204-8.549-6.192-8.549C643.447,29.571,641.168,33.294,641.168,38.272z"/>
	<path fill="#FFFFFF" d="M663.475,25.734c1.861-0.304,4.635-0.532,7.713-0.532c3.799,0,6.459,0.57,8.283,2.014
		c1.52,1.216,2.355,3.002,2.355,5.357c0,3.268-2.318,5.509-4.521,6.307v0.114c1.785,0.722,2.773,2.432,3.419,4.788
		c0.798,2.887,1.597,6.231,2.09,7.219h-5.927c-0.418-0.722-1.026-2.812-1.786-5.965c-0.684-3.191-1.786-4.065-4.142-4.103h-1.748V51
		h-5.736V25.734z M669.211,36.752h2.28c2.888,0,4.597-1.444,4.597-3.686c0-2.355-1.596-3.533-4.255-3.571
		c-1.405,0-2.204,0.114-2.622,0.19V36.752z"/>
	<path fill="#FFFFFF" d="M686.008,25.392h5.737v11.322h0.114c0.57-0.988,1.178-1.899,1.748-2.812l5.812-8.511h7.105l-8.473,10.905
		L706.981,51h-6.764l-6.269-11.056l-2.204,2.697V51h-5.737V25.392z"/>
	<path fill="#FFFFFF" d="M709.529,45.035c1.559,0.798,3.952,1.596,6.422,1.596c2.659,0,4.064-1.102,4.064-2.774
		c0-1.596-1.216-2.507-4.293-3.609c-4.255-1.482-7.029-3.837-7.029-7.561c0-4.369,3.647-7.713,9.689-7.713
		c2.887,0,5.015,0.608,6.534,1.292l-1.291,4.673c-1.026-0.494-2.85-1.216-5.357-1.216s-3.724,1.14-3.724,2.47
		c0,1.634,1.443,2.355,4.749,3.609c4.521,1.672,6.649,4.027,6.649,7.637c0,4.293-3.306,7.941-10.335,7.941
		c-2.925,0-5.812-0.76-7.257-1.558L709.529,45.035z"/>
</g>
<g>
	<path fill="#FFFFFF" d="M320.332,228.169h-3.259v-2.305h9.327v2.305h-3.313V238h-2.754V228.169z"/>
	<path fill="#FFFFFF" d="M338.442,231.806c0,3.979-2.413,6.392-5.96,6.392c-3.601,0-5.708-2.719-5.708-6.176
		c0-3.637,2.323-6.356,5.906-6.356C336.408,225.667,338.442,228.457,338.442,231.806z M329.674,231.968
		c0,2.376,1.116,4.051,2.953,4.051c1.854,0,2.917-1.765,2.917-4.124c0-2.178-1.044-4.051-2.935-4.051
		C330.754,227.845,329.674,229.609,329.674,231.968z"/>
	<path fill="#FFFFFF" d="M343.875,226.026c0.846-0.144,2.035-0.252,3.709-0.252c1.692,0,2.899,0.324,3.709,0.972
		c0.774,0.612,1.296,1.621,1.296,2.809c0,1.188-0.396,2.196-1.116,2.881c-0.937,0.882-2.323,1.278-3.943,1.278
		c-0.36,0-0.684-0.018-0.936-0.054V238h-2.719V226.026z M346.593,231.536c0.234,0.054,0.522,0.072,0.918,0.072
		c1.458,0,2.358-0.738,2.358-1.98c0-1.116-0.774-1.783-2.143-1.783c-0.558,0-0.937,0.054-1.134,0.108V231.536z"/>
	<path fill="#FFFFFF" d="M365.442,231.806c0,3.979-2.413,6.392-5.96,6.392c-3.601,0-5.708-2.719-5.708-6.176
		c0-3.637,2.322-6.356,5.906-6.356C363.407,225.667,365.442,228.457,365.442,231.806z M356.673,231.968
		c0,2.376,1.117,4.051,2.953,4.051c1.854,0,2.917-1.765,2.917-4.124c0-2.178-1.044-4.051-2.935-4.051
		C357.753,227.845,356.673,229.609,356.673,231.968z"/>
	<path fill="#FFFFFF" d="M369.075,238l-2.881-12.136h2.935l0.918,5.006c0.27,1.44,0.522,3.007,0.72,4.231h0.036
		c0.198-1.314,0.486-2.773,0.792-4.267l1.026-4.97h2.917l0.973,5.114c0.27,1.422,0.468,2.719,0.648,4.069h0.036
		c0.18-1.35,0.45-2.772,0.702-4.213l0.99-4.97h2.791L378.546,238h-2.971l-1.026-5.222c-0.234-1.224-0.432-2.358-0.576-3.745h-0.036
		c-0.216,1.369-0.414,2.521-0.702,3.745L372.082,238H369.075z"/>
	<path fill="#FFFFFF" d="M390.317,232.869h-4.465v2.881h4.987V238h-7.742v-12.136h7.49v2.251h-4.735v2.521h4.465V232.869z"/>
	<path fill="#FFFFFF" d="M392.708,226.026c0.882-0.144,2.197-0.252,3.655-0.252c1.801,0,3.061,0.27,3.925,0.954
		c0.72,0.576,1.116,1.422,1.116,2.539c0,1.548-1.098,2.61-2.142,2.989v0.054c0.846,0.342,1.314,1.152,1.621,2.269
		c0.378,1.368,0.756,2.953,0.99,3.421h-2.809c-0.198-0.342-0.486-1.333-0.847-2.827c-0.324-1.513-0.846-1.927-1.962-1.945h-0.828
		V238h-2.719V226.026z M395.427,231.248h1.08c1.369,0,2.179-0.684,2.179-1.747c0-1.116-0.756-1.674-2.017-1.692
		c-0.666,0-1.044,0.054-1.242,0.09V231.248z"/>
	<path fill="#FFFFFF" d="M418.127,231.806c0,3.979-2.412,6.392-5.959,6.392c-3.602,0-5.708-2.719-5.708-6.176
		c0-3.637,2.322-6.356,5.905-6.356C416.093,225.667,418.127,228.457,418.127,231.806z M409.358,231.968
		c0,2.376,1.116,4.051,2.953,4.051c1.854,0,2.917-1.765,2.917-4.124c0-2.178-1.045-4.051-2.936-4.051
		C410.439,227.845,409.358,229.609,409.358,231.968z"/>
	<path fill="#FFFFFF" d="M422.66,225.864v6.986c0,2.088,0.793,3.151,2.197,3.151c1.44,0,2.232-1.008,2.232-3.151v-6.986h2.736v6.806
		c0,3.745-1.891,5.528-5.059,5.528c-3.062,0-4.861-1.693-4.861-5.564v-6.77H422.66z"/>
	<path fill="#FFFFFF" d="M434.54,228.169h-3.259v-2.305h9.326v2.305h-3.312V238h-2.755V228.169z"/>
	<path fill="#FFFFFF" d="M442.063,225.864h2.755v9.831h4.825V238h-7.58V225.864z"/>
	<path fill="#FFFFFF" d="M458.481,232.869h-4.466v2.881h4.988V238h-7.742v-12.136h7.49v2.251h-4.736v2.521h4.466V232.869z"/>
	<path fill="#FFFFFF" d="M463.304,228.169h-3.259v-2.305h9.326v2.305h-3.312V238h-2.755V228.169z"/>
	<path fill="#FFFFFF" d="M470.754,235.173c0.738,0.378,1.873,0.756,3.043,0.756c1.261,0,1.928-0.522,1.928-1.314
		c0-0.756-0.576-1.188-2.035-1.711c-2.017-0.702-3.331-1.818-3.331-3.583c0-2.07,1.729-3.655,4.591-3.655
		c1.369,0,2.377,0.288,3.098,0.612l-0.612,2.215c-0.486-0.234-1.351-0.576-2.539-0.576s-1.765,0.54-1.765,1.17
		c0,0.774,0.685,1.116,2.251,1.71c2.143,0.792,3.151,1.909,3.151,3.619c0,2.035-1.566,3.763-4.898,3.763
		c-1.386,0-2.754-0.36-3.438-0.738L470.754,235.173z"/>
</g>
<rect x="182.659" y="302.049" fill="#60AC45" width="7" height="68.531"/>
<rect x="182.659" y="257.202" fill="#60AC45" width="7" height="68.532"/>
<g>
	<g>
		<path fill="#60AC45" d="M294,288.998c0,2.75-2.25,5-5,5h-73c-2.75,0-5-2.25-5-5v-90c0-2.75,2.25-5,5-5h73c2.75,0,5,2.25,5,5
			V288.998z"/>
	</g>
	<g>
		<path fill="#FFFFFF" d="M218.949,236.988c0.72-0.151,2.179-0.265,3.547-0.265c1.674,0,2.701,0.17,3.583,0.718
			c0.846,0.472,1.458,1.34,1.458,2.491c0,1.133-0.63,2.189-1.999,2.718v0.038c1.386,0.396,2.413,1.491,2.413,3.133
			c0,1.151-0.504,2.058-1.26,2.699c-0.882,0.736-2.359,1.151-4.771,1.151c-1.35,0-2.359-0.094-2.971-0.188V236.988z
			 M221.667,241.857h0.9c1.44,0,2.214-0.622,2.214-1.566c0-0.963-0.702-1.472-1.944-1.472c-0.594,0-0.937,0.037-1.17,0.075V241.857z
			 M221.667,247.502c0.27,0.037,0.594,0.037,1.062,0.037c1.243,0,2.341-0.49,2.341-1.831c0-1.283-1.098-1.793-2.467-1.793h-0.936
			V247.502z"/>
		<path fill="#FFFFFF" d="M232.575,246.274l-0.864,3.266h-2.845l3.709-12.722h3.601l3.763,12.722h-2.953l-0.936-3.266H232.575z
			 M235.654,244.123l-0.756-2.699c-0.216-0.755-0.432-1.699-0.612-2.454h-0.036c-0.18,0.755-0.36,1.718-0.559,2.454l-0.72,2.699
			H235.654z"/>
		<path fill="#FFFFFF" d="M242.403,239.234h-3.259v-2.416h9.327v2.416h-3.313v10.306h-2.754V239.234z"/>
		<path fill="#FFFFFF" d="M252.663,239.234h-3.259v-2.416h9.327v2.416h-3.313v10.306h-2.754V239.234z"/>
		<path fill="#FFFFFF" d="M267.406,244.16h-4.465v3.021h4.987v2.359h-7.742v-12.722h7.49v2.359h-4.735v2.643h4.465V244.16z"/>
		<path fill="#FFFFFF" d="M269.798,236.988c0.882-0.151,2.196-0.265,3.655-0.265c1.801,0,3.061,0.283,3.925,1.001
			c0.72,0.604,1.116,1.491,1.116,2.661c0,1.623-1.098,2.736-2.143,3.133v0.057c0.846,0.359,1.314,1.208,1.621,2.379
			c0.378,1.435,0.756,3.095,0.99,3.586h-2.809c-0.198-0.358-0.486-1.396-0.846-2.964c-0.324-1.585-0.847-2.02-1.963-2.038h-0.828
			v5.002h-2.719V236.988z M272.517,242.462h1.08c1.369,0,2.179-0.718,2.179-1.831c0-1.17-0.756-1.755-2.017-1.774
			c-0.666,0-1.044,0.057-1.242,0.095V242.462z"/>
		<path fill="#FFFFFF" d="M282.938,249.54v-5.21l-3.835-7.512h3.133l1.242,3.058c0.378,0.925,0.63,1.604,0.937,2.435h0.036
			c0.27-0.792,0.558-1.528,0.918-2.435l1.225-3.058h3.079l-3.998,7.418v5.304H282.938z"/>
	</g>
</g>
<rect x="183.159" y="257.084" fill="#60AC45" width="98" height="7"/>
<g>
	<path fill="#FFFFFF" d="M231.329,202.231v5.232h5.017v2.256h-5.017V215h-2.352v-5.28h-5.017v-2.256h5.017v-5.232H231.329z"/>
	<path fill="#FFFFFF" d="M278.248,207.487v2.424h-6.289v-2.424H278.248z"/>
</g>
</svg>
