<?xml version="1.0" encoding="utf-8"?>
<!-- Generator: Adobe Illustrator 18.1.0, SVG Export Plug-In . SVG Version: 6.00 Build 0)  -->
<svg version="1.2" baseProfile="tiny" id="Layer_1" xmlns="http://www.w3.org/2000/svg" xmlns:xlink="http://www.w3.org/1999/xlink"
	 x="0px" y="0px" width="595.3px" height="296px" viewBox="0 0 595.3 296" overflow="inherit" xml:space="preserve">
<g>
	<g>
		<g>
			<path fill="none" d="M203.3,101.5l-15-9.1l-0.1,5.9c0,0.2-0.2,0.4-0.4,0.5l-4.7,1l1.9,1.5l8.4-1.7l0,4.2L203.3,101.5z"/>
			<polygon fill="none" points="171.4,75.7 174.5,77.4 176.4,75.3 176.5,74.5 173.6,73.2 			"/>
			<polygon fill="none" points="176.8,69.7 179.8,71.1 180.6,70.8 182.4,68.7 182.5,68 179.5,66.8 			"/>
			<polygon fill="none" points="174,72.8 176.9,74.2 177.7,73.9 179.3,72.1 179.4,71.4 176.5,70.1 			"/>
			<polygon fill="none" points="179.8,66.5 182.8,67.7 183.7,67.3 185.5,65.4 185.5,64.8 182.5,63.6 			"/>
			<polygon fill="none" points="187,64.2 187,64.8 190,66 191.1,65.6 193,63.5 188.8,62.1 			"/>
			<polygon fill="none" points="182.8,63.2 185.8,64.4 186.8,64 188.6,62 185,60.9 			"/>
			<polygon fill="none" points="216.5,103.1 216.5,143.4 237.2,135.9 237.2,112.3 218.2,102.6 			"/>
			<polygon fill="none" points="182.8,100.8 181.8,100 180.6,100.3 180.7,100.4 180.2,101.3 			"/>
			<path fill="none" d="M172,96.7l2.2-0.4c0,0,0,0,0,0v-3.2c0-0.2,0.2-0.5,0.4-0.5l10.8-1.9l-13.3-8.1L172,96.7z"/>
			<polygon fill="none" points="191.2,65.8 191.2,66.5 194.6,67.8 195.5,67.5 197.7,65.1 193.2,63.6 			"/>
			<path fill="none" d="M209.2,104.9L209.2,104.9c-0.2,0-0.4,0-0.5-0.1l-3.3-2l-34.6,7.9l43.9,32.2h0v-39.4l-5.5,1.4
				C209.3,104.9,209.2,104.9,209.2,104.9z"/>
			<polygon fill="none" points="175.2,93.5 175.2,100.4 187.2,97.9 187.3,91.8 186.8,91.5 			"/>
			<polygon fill="none" points="173.9,108.2 192.4,104 192.5,100.8 173.9,104.6 			"/>
			<polygon fill="none" points="198.5,69.8 195.4,68.6 194.5,68.9 192.5,71.1 192.5,71.7 195.6,73 			"/>
			<polygon fill="none" points="192.3,70.9 194.3,68.8 194.3,68.2 190.8,66.8 190.1,67 188.1,69.3 188.1,69.9 191.4,71.3 			"/>
			<polygon fill="none" points="179.6,72.2 177.9,74 178,74.7 180.9,76.1 181.7,75.8 183.4,73.9 183.5,73.2 180.5,71.9 			"/>
			<polygon fill="none" points="201.6,66.4 198,65.2 195.8,67.6 195.8,68.3 198.9,69.4 			"/>
			<polygon fill="none" points="185.8,65.5 183.9,67.5 184,68.2 187,69.4 187.8,69.1 189.7,67 189.8,66.4 186.6,65.2 			"/>
			<polygon fill="none" points="189,74.5 191,72.3 191.1,71.6 187.8,70.2 186.9,70.6 184.9,72.7 184.9,73.3 188.3,74.8 			"/>
			<path fill="none" d="M172.9,103.7l5.4-1.1l1.2-2.1l-4.6,0.9c0,0-0.1,0-0.1,0c-0.1,0-0.2,0-0.3-0.1c-0.1-0.1-0.2-0.2-0.2-0.4v-3.9
				l-2.5,0.5c0,0,0,0-0.1,0c-0.1,0-0.2,0-0.2-0.1c-0.1-0.1-0.1-0.2-0.1-0.3l0.2-15l-2.9-1.8l1.1,28.8l3.3-0.7V103.7z"/>
			<polygon fill="none" points="183.8,73.9 181.9,76 181.9,76.6 185.2,78.1 186,77.8 187.8,75.9 187.8,75.1 184.6,73.7 			"/>
			<polygon fill="none" points="195.3,73.3 192.2,72.1 191.4,72.4 189.3,74.6 189.3,75.3 192.3,76.6 			"/>
			<polygon fill="none" points="192,77 189,75.6 188.1,76 186.2,78 186.2,78.6 189.2,80 			"/>
			<polygon fill="none" points="176.8,75.3 174.8,77.5 178.3,79.5 180.4,77.2 180.4,76.4 177.6,75.1 			"/>
			<polygon fill="none" points="250.5,131.1 264.2,126.1 250.5,119.1 			"/>
			<polygon fill="none" points="188.9,80.4 185.9,79 185.1,79.3 182.7,81.9 185.9,83.6 			"/>
			<polygon fill="none" points="184.7,79.2 184.8,78.4 181.6,76.9 180.7,77.3 178.6,79.6 182.4,81.7 			"/>
			<polygon fill="none" points="182.7,68.8 180.8,70.9 180.8,71.5 183.8,72.8 184.7,72.5 186.6,70.5 186.6,69.7 183.6,68.5 			"/>
			<polygon fill="none" points="207.8,73.1 211.3,74.4 212.6,73.9 214.8,71.5 210,69.9 207.8,72.3 			"/>
			<polygon fill="none" points="212.9,81.9 210.5,84.5 210.5,85.3 214.1,86.8 217.5,83 213.9,81.5 			"/>
			<polygon fill="none" points="212.8,75 216.8,76.5 217.7,76.2 220.3,73.3 215.1,71.6 212.8,74.2 			"/>
			<polygon fill="none" points="216.6,77.8 214.3,80.4 214.3,81.1 217.9,82.6 221.3,78.9 217.7,77.5 			"/>
			<polygon fill="none" points="209.1,86.1 206.9,88.5 206.9,89.2 210.4,90.8 213.7,87.2 210.2,85.7 			"/>
			<polygon fill="none" points="205.2,89 201.6,87.2 200.5,87.6 198,90.4 202.5,92.8 205.2,89.9 			"/>
			<polygon fill="none" points="205.6,89.9 202.8,93 206.5,95.1 210,91.2 206.6,89.6 			"/>
			<polygon fill="none" points="197,83.7 198.9,81.6 198.9,80.7 195.5,79.2 192.6,82.4 196,84 			"/>
			<polygon fill="none" points="207.6,72.1 209.7,69.8 205.5,68.4 202.9,71.2 206.4,72.5 			"/>
			<path fill="none" d="M171.5,80.2l0-2.9l-1.3-0.7c0,0,0,0,0,0c-0.2-0.1-0.2-0.4,0-0.8c0.1-0.1,0.1-0.2,0.2-0.3l14.5-15.8
				c0.2-0.2,0.4-0.3,0.5-0.2l17.6,5.8h0c0,0,0,0,0.1,0.1c0,0,0,0,0,0c0,0,0,0,0,0.1c0,0,0,0,0,0c0,0,0,0,0,0l0.2,1
				c0,0.2-0.1,0.6-0.3,0.8l-16.2,17.8c-0.2,0.2-0.4,0.3-0.5,0.2l-0.9-0.5l-0.1-0.1l-5.9-3.2l-0.5-0.3l-2.3-1.2l-0.5-0.3l-3.9-2.1
				l0,2.9l36.6,22.3l30.3-36.6l-51.4-11.8L164.7,76L171.5,80.2z M206,66.9l20.6,6.8h0c0,0,0.1,0,0.1,0.1c0,0,0,0,0,0c0,0,0,0,0,0.1
				c0,0,0,0,0,0c0,0,0,0,0,0l0.2,1.2c0,0.3-0.1,0.7-0.3,0.9l-19,20.8c-0.2,0.2-0.4,0.3-0.6,0.2l-1.1-0.6l-0.2-0.1l-6.9-3.8l-0.6-0.3
				l-2.6-1.4l-0.5-0.3l-7-3.8c0,0,0,0,0,0c-0.2-0.1-0.2-0.5,0-0.9c0.1-0.1,0.2-0.2,0.3-0.3l17-18.4C205.6,66.9,205.8,66.8,206,66.9z
				"/>
			<polygon fill="none" points="195.5,85.3 195.5,84.4 192.2,82.8 189.5,85.7 193.2,87.7 			"/>
			<polygon fill="none" points="200.3,80 202.5,77.6 202.6,76.8 199.1,75.4 195.9,78.8 199.4,80.3 			"/>
			<polygon fill="none" points="204,76 206,73.7 206.1,73 202.5,71.6 199.4,75 202.9,76.4 			"/>
			<polygon fill="none" points="218.1,77.1 221.7,78.5 225,74.9 220.7,73.5 218.1,76.3 			"/>
			<polygon fill="none" points="199.2,81.7 197.3,83.8 197.3,84.6 200.7,86.3 201.6,85.9 203.7,83.7 203.7,82.8 200.3,81.3 			"/>
			<path fill="none" d="M217.9,100.9c0.1-0.1,0.3-0.1,0.4-0.1l52.4-14L241,66.9l-29.8,35.8L217.9,100.9z"/>
			<polygon fill="none" points="200.1,86.6 196.8,85 195.9,85.3 193.5,87.9 197.7,90.2 200.1,87.6 			"/>
			<path fill="none" d="M241.7,100l3.7,1.6l-3,0.7c0,0,0,0,0,0c0,0.6-0.3,1.1-0.8,1.2c-0.4,0.1-0.8-0.3-0.9-0.9l-3,0.7l3.3-3.4v-3.5
				l-20.5,5.4l19,9.7l10.8-2.8v8.3l15,7.7l0-34.8l-23.9,6.3V100z M240.5,103.5l-0.6,0.6c0,0-0.1,0-0.1,0c0,0-0.1,0-0.1,0
				c0-0.1,0-0.1,0-0.2l0.6-0.6c0,0,0.1,0,0.2,0C240.5,103.3,240.5,103.4,240.5,103.5z M241.2,103.8l-0.3,0.6c0,0-0.1,0.1-0.1,0.1
				c0,0,0,0-0.1,0c-0.1,0-0.1-0.1-0.1-0.2l0.3-0.6c0-0.1,0.1-0.1,0.2-0.1C241.2,103.7,241.2,103.8,241.2,103.8z M241.8,105.3
				c0,0.1-0.1,0.1-0.1,0.1c-0.1,0-0.1-0.1-0.1-0.1v-1.4c0-0.1,0.1-0.1,0.1-0.1c0.1,0,0.1,0.1,0.1,0.1V105.3z M242.8,104
				c0,0-0.1,0.1-0.1,0.1c0,0,0,0-0.1,0l-0.5-0.3c-0.1,0-0.1-0.1,0-0.2c0-0.1,0.1-0.1,0.2,0l0.5,0.3
				C242.8,103.8,242.8,103.9,242.8,104z M243.5,103.4C243.5,103.4,243.5,103.4,243.5,103.4l-0.9-0.2c-0.1,0-0.1-0.1-0.1-0.1
				c0-0.1,0.1-0.1,0.1-0.1l0.9,0.2c0.1,0,0.1,0.1,0.1,0.1C243.6,103.4,243.6,103.4,243.5,103.4z"/>
			<polygon fill="none" points="210.2,84.4 212.6,81.8 212.6,81 208.7,79.4 207.7,79.7 205.4,82.2 205.4,83 209.3,84.7 			"/>
			<polygon fill="none" points="206.4,73.8 204.3,76.2 204.3,77 207.8,78.4 208.8,78.1 211,75.6 211.1,74.9 207.4,73.5 			"/>
			<polygon fill="none" points="214.1,80.2 216.3,77.7 216.4,76.9 212.3,75.4 211.5,75.6 209.1,78.2 209.1,79 213,80.6 			"/>
			<polygon fill="none" points="202.9,77.7 200.6,80.1 200.6,80.9 204.1,82.4 205.2,82 207.3,79.7 207.4,78.8 203.8,77.4 			"/>
			<polygon fill="none" points="204.1,83.7 201.9,86.1 201.9,86.8 205.7,88.6 206.7,88.2 208.8,86 208.8,85.1 205,83.4 			"/>
			<path fill="#231F20" d="M240.3,103.3l-0.6,0.6c0,0,0,0.1,0,0.2c0,0,0.1,0,0.1,0c0,0,0.1,0,0.1,0l0.6-0.6c0,0,0-0.1,0-0.2
				C240.5,103.2,240.4,103.2,240.3,103.3z"/>
			<path fill="#231F20" d="M162.7,75.6c-0.2,0.2-0.3,0.5-0.3,0.7c0,0.3,0.2,0.5,0.4,0.6l4,2.4l1.2,30.9l0.1,0.4
				c0,0.1,0.1,0.1,0.2,0.2l46.8,34.4c0.1,0.1,0.3,0.2,0.5,0.2c0.1,0,0.3,0,0.3-0.1l50.7-18.3l0.2-0.1c0.1,0,0.1-0.1,0.1-0.1l0.2-0.2
				c0-0.1,0.1-0.2,0.1-0.3l0.1-36.9l5.4-1.4c0.3-0.1,0.5-0.3,0.6-0.5v-0.6c0-0.1-0.1-0.2-0.2-0.3l-31.6-21.8
				c-0.2-0.1-0.4-0.2-0.7-0.2c-0.1,0-0.2,0-0.2,0.1l-53-11.9c-0.2,0-0.4,0.1-0.6,0.2L162.7,75.6z M168.6,80.4l2.9,1.8l-0.2,15
				c0,0.1,0,0.2,0.1,0.3c0.1,0.1,0.2,0.1,0.2,0.1c0,0,0,0,0.1,0l2.5-0.5v3.9c0,0.2,0.1,0.3,0.2,0.4c0.1,0.1,0.2,0.1,0.3,0.1
				c0,0,0.1,0,0.1,0l4.6-0.9l-1.2,2.1l-5.4,1.1v4.7l-3.3,0.7L168.6,80.4z M184.9,73.3l0-0.7l1.9-2.1l0.9-0.3l3.3,1.4l0,0.7l-2,2.2
				l-0.7,0.3L184.9,73.3z M187.8,75.1l0,0.7l-1.8,1.9l-0.8,0.3l-3.3-1.5l0-0.6l1.9-2.1l0.8-0.3L187.8,75.1z M188.1,69.9l0-0.6l2-2.2
				l0.7-0.2l3.5,1.4l0,0.6l-1.9,2.1l-0.9,0.3L188.1,69.9z M189.7,67l-1.9,2.1l-0.8,0.3l-3-1.3l0-0.7l1.9-2l0.8-0.3l3.2,1.2L189.7,67
				z M186.6,69.7l0,0.7l-1.8,2l-0.9,0.4l-3-1.3v-0.7l1.9-2.1l0.8-0.3L186.6,69.7z M183.5,73.2l0,0.7l-1.7,1.9l-0.8,0.3l-2.9-1.4
				l0-0.7l1.7-1.8l0.9-0.3L183.5,73.2z M180.4,76.4l-0.1,0.9l-2,2.2l-3.6-2l2-2.2l0.8-0.3L180.4,76.4z M180.7,77.3l0.9-0.3l3.1,1.5
				l0,0.8l-2.3,2.5l-3.8-2.1L180.7,77.3z M185.1,79.3l0.9-0.3l3,1.4l-3,3.3l-3.2-1.8L185.1,79.3z M186.2,78.6l0-0.6l1.8-2l1-0.3
				l3,1.3l-2.8,3.1L186.2,78.6z M189.3,75.3l0-0.6l2.1-2.3l0.9-0.3l3.1,1.3l-3,3.3L189.3,75.3z M192.5,71.7v-0.6l2-2.2l0.9-0.3
				l3.1,1.2l-2.9,3.2L192.5,71.7z M195.8,68.3l0-0.7l2.2-2.4l3.7,1.2l-2.8,3L195.8,68.3z M195.5,67.5l-0.9,0.3l-3.4-1.3l0-0.7l2-2.2
				l4.4,1.5L195.5,67.5z M191.1,65.6L190,66l-3-1.2l0-0.7l1.9-2l4.1,1.4L191.1,65.6z M186.8,64l-1,0.4l-3-1.1l2.2-2.4l3.6,1.2
				L186.8,64z M185.5,64.8l0,0.7l-1.8,1.9l-0.9,0.3l-3-1.2l2.7-2.9L185.5,64.8z M182.5,68l0,0.7l-1.9,2l-0.8,0.3l-3-1.3l2.7-2.9
				L182.5,68z M179.4,71.4l0,0.7l-1.6,1.8l-0.8,0.3l-2.9-1.4l2.5-2.7L179.4,71.4z M176.5,74.5l0,0.7l-1.9,2.1l-3.1-1.7l2.3-2.5
				L176.5,74.5z M185,101.3l-1.9-1.5l4.7-1c0.2,0,0.4-0.2,0.4-0.5l0.1-5.9l15,9.1l-9.9,2.2l0-4.2L185,101.3z M180.6,100.3l1.2-0.3
				l1,0.7l-2.6,0.5l0.5-0.9L180.6,100.3z M192.5,100.8l0,3.2l-18.5,4.2v-3.7L192.5,100.8z M187.2,97.9l-12,2.5v-6.8l11.6-2.1
				l0.5,0.3L187.2,97.9z M174.6,92.6c-0.2,0-0.4,0.3-0.4,0.5v3.2c0,0,0,0,0,0l-2.2,0.4l0.2-14.1l13.3,8.1L174.6,92.6z M214.8,142.9
				L214.8,142.9l-43.9-32.2l34.6-7.9l3.3,2c0.1,0.1,0.3,0.1,0.4,0.1l0.1,0c0,0,0.1,0,0.1,0l5.5-1.4V142.9z M237.2,135.9l-20.8,7.5
				v-40.3l1.8-0.5l19,9.7V135.9z M250.5,131.1v-12l13.7,7L250.5,131.1z M265.5,124.9l-15-7.7v-8.3l-10.8,2.8l-19-9.7l20.5-5.4v3.5
				l-3.3,3.4l3-0.7c0,0.6,0.4,1,0.9,0.9c0.5-0.1,0.8-0.6,0.8-1.2c0,0,0,0,0,0l3-0.7l-3.7-1.6v-3.7l23.9-6.3L265.5,124.9z M241,66.9
				l29.7,19.9l-52.4,14c-0.1,0-0.3,0-0.4,0.1l-6.7,1.8L241,66.9z M187.8,54.5l51.4,11.8l-30.3,36.6l-36.6-22.3l0-2.9l3.9,2.1
				l0.5,0.3l2.3,1.2l0.5,0.3l5.9,3.2l0.1,0.1l0.9,0.5c0.1,0.1,0.3,0,0.5-0.2l16.2-17.8c0.2-0.2,0.3-0.5,0.3-0.8l-0.2-1c0,0,0,0,0,0
				c0,0,0,0,0,0c0,0,0,0,0-0.1c0,0,0,0,0,0c0,0,0,0-0.1-0.1h0l-17.6-5.8c-0.1-0.1-0.3,0-0.5,0.2l-14.5,15.8
				c-0.1,0.1-0.2,0.2-0.2,0.3c-0.2,0.3-0.2,0.7,0,0.8c0,0,0,0,0,0l1.3,0.7l0,2.9l-6.8-4.1L187.8,54.5z"/>
			<path fill="#231F20" d="M243.5,103.1l-0.9-0.2c-0.1,0-0.1,0-0.1,0.1c0,0.1,0,0.1,0.1,0.1l0.9,0.2c0,0,0,0,0,0
				c0.1,0,0.1,0,0.1-0.1C243.6,103.2,243.6,103.2,243.5,103.1z"/>
			<path fill="#231F20" d="M188.1,85.9c-0.2,0.4-0.2,0.8,0,0.9c0,0,0,0,0,0l7,3.8l0.5,0.3l2.6,1.4l0.6,0.3l6.9,3.8l0.2,0.1l1.1,0.6
				c0.2,0.1,0.4,0,0.6-0.2l19-20.8c0.2-0.3,0.4-0.6,0.3-0.9l-0.2-1.2c0,0,0,0,0,0c0,0,0,0,0,0c0,0,0,0,0-0.1c0,0,0,0,0,0
				c0,0,0-0.1-0.1-0.1h0L206,66.9c-0.2-0.1-0.4,0-0.6,0.2l-17,18.4C188.3,85.6,188.2,85.7,188.1,85.9z M193.5,87.9l2.3-2.6l1-0.3
				l3.3,1.6l-0.1,1l-2.4,2.6L193.5,87.9z M205.4,83l0-0.8l2.3-2.5l1.1-0.4l3.9,1.6l-0.1,0.9l-2.4,2.6l-0.9,0.3L205.4,83z
				 M208.8,85.1l-0.1,0.9l-2.1,2.3l-1,0.4l-3.9-1.8l0-0.7l2.2-2.4l0.9-0.3L208.8,85.1z M209.1,79l0-0.7l2.4-2.6l0.8-0.3l4.1,1.6
				l0,0.8l-2.3,2.5l-1,0.4L209.1,79z M211,75.6l-2.2,2.4l-1,0.4l-3.5-1.5l0-0.8l2.2-2.4l0.9-0.3l3.7,1.4L211,75.6z M207.4,78.8
				l-0.1,0.9l-2.1,2.3l-1.1,0.4l-3.5-1.5l0-0.8l2.2-2.4l1-0.3L207.4,78.8z M203.7,82.8l-0.1,0.9l-2,2.2l-0.9,0.4l-3.4-1.6l0-0.8
				l2-2.1l1.1-0.4L203.7,82.8z M198,90.4l2.5-2.8l1-0.4l3.7,1.7l-0.1,1l-2.7,2.9L198,90.4z M206.5,95.1l-3.8-2.1l2.8-3l1-0.3
				l3.5,1.6L206.5,95.1z M210.4,90.8l-3.5-1.6v-0.7l2.1-2.3l1.2-0.4l3.5,1.5L210.4,90.8z M214.1,86.8l-3.5-1.6l0-0.8l2.4-2.6l1-0.4
				l3.6,1.5L214.1,86.8z M217.9,82.6l-3.6-1.5v-0.7l2.3-2.5l1.1-0.4l3.6,1.4L217.9,82.6z M225,74.9l-3.3,3.6l-3.6-1.4l0-0.8l2.6-2.8
				L225,74.9z M220.3,73.3l-2.6,2.8l-1,0.4l-4-1.5v-0.8l2.3-2.6L220.3,73.3z M214.8,71.5l-2.2,2.4l-1.3,0.5l-3.5-1.3l0-0.8l2.2-2.4
				L214.8,71.5z M205.5,68.4l4.2,1.4l-2.1,2.3l-1.2,0.4l-3.5-1.3L205.5,68.4z M202.5,71.6l3.5,1.4l-0.1,0.8L204,76l-1.1,0.4
				l-3.5-1.4L202.5,71.6z M199.1,75.4l3.5,1.4l0,0.8l-2.2,2.4l-0.9,0.4l-3.5-1.5L199.1,75.4z M195.5,79.2l3.4,1.5l-0.1,0.9l-1.9,2.1
				l-1,0.4l-3.4-1.6L195.5,79.2z M192.2,82.8l3.3,1.6l-0.1,0.9l-2.3,2.5l-3.7-2L192.2,82.8z"/>
			<path fill="#231F20" d="M240.9,103.7l-0.3,0.6c0,0.1,0,0.1,0.1,0.2c0,0,0,0,0.1,0c0,0,0.1,0,0.1-0.1l0.3-0.6c0-0.1,0-0.1-0.1-0.2
				C241,103.6,241,103.7,240.9,103.7z"/>
			<path fill="#231F20" d="M241.7,103.8c-0.1,0-0.1,0.1-0.1,0.1v1.4c0,0.1,0.1,0.1,0.1,0.1c0.1,0,0.1-0.1,0.1-0.1v-1.4
				C241.8,103.8,241.8,103.8,241.7,103.8z"/>
			<path fill="#231F20" d="M242.2,103.5c-0.1,0-0.1,0-0.2,0c0,0.1,0,0.1,0,0.2l0.5,0.3c0,0,0,0,0.1,0c0,0,0.1,0,0.1-0.1
				c0-0.1,0-0.1-0.1-0.2L242.2,103.5z"/>
		</g>
	</g>
	<path fill="#231F20" d="M177.4,33c-5.2-3-12-1.3-15,4c-3,5.2-1.3,12,4,15c5.2,3,12,1.3,15-4C184.4,42.7,182.6,36,177.4,33L177.4,33
		z M179.6,47c-2.5,4.3-8,5.7-12.2,3.2c-4.3-2.5-5.7-8-3.2-12.2c2.5-4.3,8-5.7,12.2-3.2C180.6,37.2,182,42.7,179.6,47L179.6,47z
		 M161.9,32.1l-2-2.2c-0.1-0.2-0.2-0.4-0.1-0.6c0-0.1,0.1-0.1,0.1-0.2c0.2-0.2,0.5-0.2,0.7,0l2,2.2c0.2,0.2,0.2,0.5,0,0.7
		c-0.2,0.2-0.4,0.2-0.6,0.1C162,32.2,161.9,32.1,161.9,32.1L161.9,32.1z M169.9,28.2l-0.3-2.9c0-0.3,0.2-0.5,0.5-0.6
		c0.3,0,0.5,0.2,0.6,0.5l0.3,2.9c0,0.3-0.2,0.5-0.5,0.6c-0.1,0-0.2,0-0.3-0.1C170,28.5,169.9,28.4,169.9,28.2L169.9,28.2z
		 M184.5,36.7c-0.1-0.3,0-0.6,0.3-0.7l2.7-1.2c0.3-0.1,0.6,0,0.7,0.3c0.1,0.3,0,0.6-0.3,0.7l-2.7,1.2c-0.2,0.1-0.3,0.1-0.5,0
		C184.6,36.9,184.5,36.8,184.5,36.7L184.5,36.7z M186,44.8l12.9,2.8c0.3,0.1,0.5,0.3,0.4,0.6c-0.1,0.3-0.3,0.5-0.6,0.4l-12.9-2.8
		c-0.1,0-0.1,0-0.2-0.1c-0.2-0.1-0.3-0.3-0.2-0.6C185.5,45,185.7,44.8,186,44.8L186,44.8z M173.9,56.6l1.5,15c0,0.3-0.2,0.5-0.5,0.6
		c-0.1,0-0.2,0-0.3-0.1c-0.1-0.1-0.2-0.2-0.3-0.4l-1.6-15c0-0.3,0.2-0.5,0.5-0.6C173.6,56.1,173.9,56.3,173.9,56.6L173.9,56.6z
		 M165.1,54.5c0.1,0.2,0.1,0.4,0,0.6l-1.5,2.6c-0.1,0.2-0.5,0.3-0.7,0.2c-0.2-0.1-0.3-0.5-0.2-0.7l1.5-2.6c0.1-0.2,0.5-0.3,0.7-0.2
		C165.1,54.4,165.1,54.4,165.1,54.5L165.1,54.5z M159.3,48c0.1,0.1,0.1,0.3,0,0.4c0,0.1-0.1,0.2-0.3,0.3l-2.7,1.2
		c-0.2,0.1-0.3,0.1-0.5,0c-0.1-0.1-0.2-0.1-0.2-0.2c-0.1-0.1-0.1-0.3,0-0.4c0-0.1,0.1-0.1,0.1-0.2c0,0,0.1-0.1,0.2-0.1l2.7-1.2
		C158.9,47.6,159.2,47.7,159.3,48L159.3,48z M157.8,39.9l-2.9-0.6c-0.1,0-0.1,0-0.2-0.1c-0.2-0.1-0.3-0.3-0.2-0.6
		c0-0.1,0-0.1,0.1-0.2c0.1-0.2,0.3-0.3,0.5-0.2l2.9,0.6c0.3,0.1,0.5,0.3,0.4,0.6C158.3,39.8,158,40,157.8,39.9L157.8,39.9z
		 M178.6,29.7l1.5-2.6c0.1-0.2,0.5-0.3,0.7-0.2c0.2,0.1,0.3,0.5,0.2,0.7l-1.5,2.6c-0.1,0.2-0.5,0.3-0.7,0.2
		C178.5,30.3,178.4,30,178.6,29.7L178.6,29.7z M178.6,29.7"/>
	<g>
		<g>
			<rect x="449" y="61.2" fill="#010202" stroke="#000000" stroke-miterlimit="10" width="53.6" height="65.4"/>
			<g>
				<path fill="#FFFFFF" d="M470.3,73.7C470.3,73.7,470.3,73.7,470.3,73.7c0-1.9-0.7-3.6-1.8-4.9l-1.4,1.4l-0.4-0.4l1.4-1.4
					c-1.3-1.3-3.2-2.1-5.2-2.1c-2,0-3.9,0.8-5.2,2.1l1.4,1.4l-0.4,0.4l-1.4-1.4c-1.1,1.3-1.8,3-1.8,4.9c0,0,0,0,0,0.1h1.7v0.5h-1.7
					c0.1,1.8,0.9,3.4,2.1,4.6l1.1-1.1l0.4,0.4l-1,1c1.3,1.1,3,1.8,4.9,1.8c1.9,0,3.6-0.7,4.9-1.8l-1-1l0.4-0.4l1.1,1.1
					c1.2-1.2,2-2.8,2.1-4.6h-1.7v-0.5H470.3z M463.1,73.7h-0.5V69h0.5V73.7z M463.1,68.3h-0.5v-2h0.5V68.3z M463.1,68.3"/>
			</g>
			<g>
				<path fill="#FFFFFF" d="M494.6,73.7C494.6,73.7,494.6,73.7,494.6,73.7c0-1.9-0.7-3.6-1.8-4.9l-1.4,1.4l-0.4-0.4l1.4-1.4
					c-1.3-1.3-3.2-2.1-5.2-2.1c-2,0-3.9,0.8-5.2,2.1l1.4,1.4l-0.4,0.4l-1.4-1.4c-1.1,1.3-1.8,3-1.8,4.9c0,0,0,0,0,0.1h1.7v0.5h-1.7
					c0.1,1.8,0.9,3.4,2.1,4.6l1.1-1.1l0.4,0.4l-1,1c1.3,1.1,3,1.8,4.9,1.8c1.9,0,3.6-0.7,4.9-1.8l-1-1l0.4-0.4l1.1,1.1
					c1.2-1.2,2-2.8,2.1-4.6h-1.7v-0.5H494.6z M487.5,73.7H487V69h0.5V73.7z M487.5,68.3H487v-2h0.5V68.3z M487.5,68.3"/>
			</g>
			<g>
				<path fill="#FFFFFF" d="M475.1,83.2c-4.9,0-8.8,4-8.8,8.8c0,4.9,4,8.8,8.8,8.8c4.9,0,8.8-4,8.8-8.8
					C483.9,87.2,479.9,83.2,475.1,83.2L475.1,83.2z M480.9,89.5c0.1,0.3-0.1,0.5-0.3,0.6l-1.3,0.4c-0.1,0-0.1,0-0.2,0
					c-0.2,0-0.4-0.1-0.5-0.3c-0.1-0.3,0.1-0.5,0.3-0.6l1.3-0.4C480.5,89.1,480.8,89.3,480.9,89.5L480.9,89.5z M469.2,89.4
					c0.1-0.3,0.4-0.4,0.6-0.3l1.3,0.4c0.3,0.1,0.4,0.4,0.3,0.6c-0.1,0.2-0.3,0.3-0.5,0.3c0,0-0.1,0-0.1,0l-1.4-0.4
					C469.3,90,469.1,89.7,469.2,89.4L469.2,89.4z M471.5,92.6h-2.3c-0.3,0-0.5-0.2-0.5-0.5c0-0.3,0.2-0.5,0.5-0.5h2.3
					c0.3,0,0.5,0.2,0.5,0.5C472,92.3,471.8,92.6,471.5,92.6L471.5,92.6z M472.6,89.1c-0.1,0.1-0.2,0.1-0.3,0.1c-0.1,0-0.3,0-0.3-0.1
					l-1.2-1.2c-0.2-0.2-0.2-0.5,0-0.7c0.2-0.2,0.5-0.2,0.7,0l1.2,1.2C472.8,88.6,472.8,88.9,472.6,89.1L472.6,89.1z M473.7,88
					c-0.1,0-0.1,0.1-0.2,0.1c-0.2,0-0.4-0.1-0.4-0.3l-0.6-1.3c-0.1-0.2,0-0.5,0.2-0.7c0.2-0.1,0.5,0,0.7,0.2l0.6,1.3
					C474.1,87.6,474,87.9,473.7,88L473.7,88z M475.6,94c0,0.3-0.2,0.5-0.5,0.5c-0.3,0-0.5-0.2-0.5-0.5v-8.3c0-0.3,0.2-0.5,0.5-0.5
					c0.3,0,0.5,0.2,0.5,0.5V94z M476.6,88.2c-0.1,0-0.1,0-0.2-0.1c-0.2-0.1-0.3-0.4-0.2-0.7l0.6-1.3c0.1-0.2,0.4-0.3,0.7-0.2
					c0.2,0.1,0.3,0.4,0.2,0.7l-0.6,1.3C477,88.1,476.8,88.2,476.6,88.2L476.6,88.2z M477.5,89.2c-0.2-0.2-0.2-0.5,0-0.7l1.2-1.2
					c0.2-0.2,0.5-0.2,0.7,0c0.2,0.2,0.2,0.5,0,0.7l-1.2,1.2c-0.1,0.1-0.2,0.1-0.3,0.1C477.7,89.4,477.6,89.3,477.5,89.2L477.5,89.2z
					 M480.9,92.7h-2.3c-0.3,0-0.5-0.2-0.5-0.5c0-0.3,0.2-0.5,0.5-0.5h2.3c0.3,0,0.5,0.2,0.5,0.5C481.4,92.5,481.2,92.7,480.9,92.7
					L480.9,92.7z M480.9,92.7"/>
			</g>
			<g>
				<path fill="#FFFFFF" d="M469.1,113.3l0.3,0c0.4,0,0.8-0.4,0.8-0.8l0-2.6c0-0.4-0.4-0.8-0.8-0.8l-0.3,0l0-3.1l-2.1,0l0,3.1
					l-0.3,0c-0.4,0-0.8,0.4-0.8,0.8l0,2.6c0,0.4,0.4,0.8,0.8,0.8l0.3,0l0,9.4l2.1,0L469.1,113.3z M467.1,110.1l2.1,0l0,2.1l-2.1,0
					L467.1,110.1z M464.2,119.5c0.4,0,0.8-0.4,0.8-0.8l0-2.6c0-0.4-0.4-0.8-0.8-0.8l-0.3,0l0-9.4l-2.1,0l0,9.4l-0.3,0
					c-0.4,0-0.8,0.4-0.8,0.8l0,2.6c0,0.4,0.4,0.8,0.8,0.8l0.3,0l0,3.1l2.1,0l0-3.1L464.2,119.5z M461.8,116.4l2.1,0l0,2.1l-2.1,0
					L461.8,116.4z M459,113.2c0.4,0,0.8-0.4,0.8-0.8l0-2.6c0-0.4-0.4-0.8-0.8-0.8l-0.3,0l0-3.1l-2.1,0l0,3.1l-0.3,0
					c-0.4,0-0.8,0.4-0.8,0.8l0,2.6c0,0.4,0.4,0.8,0.8,0.8l0.3,0l0,9.4l2.1,0l0-9.4L459,113.2z M456.6,110.1l2.1,0l0,2.1l-2.1,0
					L456.6,110.1z M456.6,110.1"/>
			</g>
			<g>
				<path fill="#FFFFFF" d="M493.3,113.3l0.3,0c0.4,0,0.8-0.4,0.8-0.8l0-2.6c0-0.4-0.4-0.8-0.8-0.8l-0.3,0l0-3.1l-2.1,0l0,3.1
					l-0.3,0c-0.4,0-0.8,0.4-0.8,0.8l0,2.6c0,0.4,0.4,0.8,0.8,0.8l0.3,0l0,9.4l2.1,0L493.3,113.3z M491.2,110.1l2.1,0l0,2.1l-2.1,0
					L491.2,110.1z M488.4,119.5c0.4,0,0.8-0.4,0.8-0.8l0-2.6c0-0.4-0.4-0.8-0.8-0.8l-0.3,0l0-9.4l-2.1,0l0,9.4l-0.3,0
					c-0.4,0-0.8,0.4-0.8,0.8l0,2.6c0,0.4,0.4,0.8,0.8,0.8l0.3,0l0,3.1l2.1,0l0-3.1L488.4,119.5z M486,116.4l2.1,0l0,2.1l-2.1,0
					L486,116.4z M483.1,113.2c0.4,0,0.8-0.4,0.8-0.8l0-2.6c0-0.4-0.4-0.8-0.8-0.8l-0.3,0l0-3.1l-2.1,0l0,3.1l-0.3,0
					c-0.4,0-0.8,0.4-0.8,0.8l0,2.6c0,0.4,0.4,0.8,0.8,0.8l0.3,0l0,9.4l2.1,0l0-9.4L483.1,113.2z M480.8,110.1l2.1,0l0,2.1l-2.1,0
					L480.8,110.1z M480.8,110.1"/>
			</g>
		</g>
		<polygon fill="#474747" points="511,55.5 456.6,55.5 448.7,60.9 502.9,60.9 		"/>
		<polygon fill="#DDDDDD" points="503,126.9 511,118.2 511,55.5 503,60.8 		"/>
	</g>
	<g>
		<rect x="345.6" y="170.3" fill="#010202" stroke="#000000" stroke-miterlimit="10" width="46.3" height="56.6"/>
		<g>
			<path fill="#FFFFFF" d="M368.8,173.4c-3.1,0-5.7,2.6-5.7,5.7c0,3.1,2.6,5.7,5.7,5.7c3.1,0,5.7-2.6,5.7-5.7
				C374.5,176,372,173.4,368.8,173.4L368.8,173.4z M372.6,177.5c0.1,0.2,0,0.3-0.2,0.4l-0.9,0.3c0,0-0.1,0-0.1,0
				c-0.1,0-0.3-0.1-0.3-0.2c-0.1-0.2,0-0.3,0.2-0.4l0.9-0.3C372.4,177.3,372.5,177.3,372.6,177.5L372.6,177.5z M365.1,177.4
				c0.1-0.2,0.2-0.3,0.4-0.2l0.9,0.3c0.2,0.1,0.3,0.2,0.2,0.4c0,0.1-0.2,0.2-0.3,0.2c0,0-0.1,0-0.1,0l-0.9-0.3
				C365.1,177.8,365,177.6,365.1,177.4L365.1,177.4z M366.6,179.5h-1.5c-0.2,0-0.3-0.1-0.3-0.3c0-0.2,0.1-0.3,0.3-0.3h1.5
				c0.2,0,0.3,0.1,0.3,0.3C366.9,179.3,366.7,179.5,366.6,179.5L366.6,179.5z M367.3,177.2c-0.1,0.1-0.1,0.1-0.2,0.1
				c-0.1,0-0.2,0-0.2-0.1l-0.8-0.8c-0.1-0.1-0.1-0.3,0-0.4c0.1-0.1,0.3-0.1,0.4,0l0.8,0.8C367.4,176.9,367.4,177.1,367.3,177.2
				L367.3,177.2z M368,176.5c0,0-0.1,0-0.1,0c-0.1,0-0.2-0.1-0.3-0.2l-0.4-0.8c-0.1-0.2,0-0.3,0.1-0.4c0.2-0.1,0.3,0,0.4,0.1
				l0.4,0.8C368.2,176.3,368.1,176.4,368,176.5L368,176.5z M369.2,180.4c0,0.2-0.1,0.3-0.3,0.3c-0.2,0-0.3-0.1-0.3-0.3V175
				c0-0.2,0.1-0.3,0.3-0.3c0.2,0,0.3,0.1,0.3,0.3V180.4z M369.8,176.6c0,0-0.1,0-0.1,0c-0.2-0.1-0.2-0.3-0.1-0.4l0.4-0.8
				c0.1-0.2,0.3-0.2,0.4-0.1c0.2,0.1,0.2,0.3,0.1,0.4l-0.4,0.8C370.1,176.6,370,176.6,369.8,176.6L369.8,176.6z M370.4,177.3
				c-0.1-0.1-0.1-0.3,0-0.4l0.8-0.8c0.1-0.1,0.3-0.1,0.4,0c0.1,0.1,0.1,0.3,0,0.4l-0.8,0.8c-0.1,0.1-0.1,0.1-0.2,0.1
				C370.6,177.4,370.5,177.4,370.4,177.3L370.4,177.3z M372.6,179.5h-1.5c-0.2,0-0.3-0.1-0.3-0.3c0-0.2,0.1-0.3,0.3-0.3h1.5
				c0.2,0,0.3,0.1,0.3,0.3C372.9,179.4,372.8,179.5,372.6,179.5L372.6,179.5z M372.6,179.5"/>
		</g>
		<polygon fill="#474747" points="399.2,165.3 352.2,165.3 345.3,170 392.3,170 		"/>
		<polygon fill="#DDDDDD" points="392.3,227.1 399.2,220.6 399.2,166.3 392.3,169.9 		"/>
		<g>
			<path fill="#FFFFFF" d="M372.9,217.7l1.1,0l0.2,4.1l2.1,0l0.2-4.1l0.9,0l0-3.2l3.8,0c0.9,0,1.5-0.7,1.5-1.5l0-13
				c0-0.9-0.7-1.5-1.5-1.5l-3.8,0l0-3.2l-0.9,0l-0.2-4.1l-2.1,0l-0.2,4.1l-1.1,0l0,3.2l-2.4,0l0-3.2l-0.9,0l-0.2-4.1l-2.1,0
				l-0.2,4.1l-1.1,0l0,3.2l-2.6,0l0-3.2l-0.9,0l-0.2-4.1l-2.1,0l-0.2,4.1l-1.1,0l0,3.2l-3.2,0c-0.9,0-1.5,0.7-1.5,1.5l0,13
				c0,0.9,0.7,1.5,1.5,1.5l3.2,0l0,3.2l1.1,0l0.2,4.1l2.1,0l0.2-4.1l0.9,0l0-3.2l2.6,0l0,3.2l1.1,0l0.2,4.1l2.1,0l0.2-4.1l0.9,0
				l0-3.2l2.4,0L372.9,217.7z M376.5,214.6l0,2.3l-0.8,0l-0.2,4.1l-0.5,0l-0.2-4.1l-1.1,0l0-2.3L376.5,214.6z M373.7,198.3l0-2.3
				l1.1,0l0.2-4.1l0.5,0l0.2,4.1l0.8,0l0,2.3L373.7,198.3z M366.9,198.3l0-2.3l1.1,0l0.2-4.1l0.5,0l0.2,4.1l0.8,0l0,2.3L366.9,198.3
				z M359.9,198.3l0-2.3l1.1,0l0.2-4.1l0.5,0l0.2,4.1l0.8,0l0,2.3L359.9,198.3z M378.6,201.3c0-0.6,0.5-1,1-1c0.6,0,1,0.4,1,1
				c0,0.6-0.4,1-1,1C379,202.3,378.6,201.8,378.6,201.3L378.6,201.3z M362.7,214.6l0,2.3l-0.8,0l-0.2,4.1l-0.5,0l-0.2-4.1l-1.1,0
				l0-2.3L362.7,214.6z M369.7,214.6l0,2.3l-0.8,0l-0.2,4.1l-0.5,0l-0.2-4.1l-1.1,0l0-2.3L369.7,214.6z M369.7,214.6"/>
		</g>
	</g>
	<g>
		<g>
			<polygon fill="none" points="124,172.8 125.8,173.7 127.6,172.8 			"/>
			<polygon fill="none" points="125.8,177.2 128.9,175.9 125.8,174.4 122.7,175.9 			"/>
			<polygon fill="none" points="130.8,183.6 130,179.8 126.3,181.5 130.7,183.6 			"/>
			<polygon fill="none" points="121.8,179.4 125.6,181.2 129.6,179.4 125.8,177.8 			"/>
			<polygon fill="none" points="122.2,176.3 121.6,178.9 125,177.5 			"/>
			<polygon fill="none" points="126.5,177.5 129.8,178.9 129.3,176.3 			"/>
			<polygon fill="none" points="169.2,170.7 164.6,170.7 164.2,172.3 169.5,172.3 			"/>
			<polygon fill="none" points="166.2,174.1 164,173 163.5,175.4 			"/>
			<path fill="none" d="M122.9,158.5h-2c-0.6,0.9-1.4,1.7-2.2,2.4c1.4-0.4,2.8-1,4.2-1.5V158.5z"/>
			<polygon fill="none" points="121.4,179.8 120.6,183.5 124.9,181.5 			"/>
			<path fill="none" d="M153.9,158.5h-0.3c1,0.6,3.1,1.5,5.9,0h-0.3v-1.3h4.8v-3h-3.7c-1.5,0.9-2.8,1.2-3.9,1.2
				c-1.8,0-3.1-0.8-3.6-1.2h-4v3h5V158.5z"/>
			<path fill="none" d="M122.9,165.2c-0.3,0.1-0.6,0.3-0.9,0.4h0.9V165.2z"/>
			<path fill="none" d="M122.9,159.8c-1.2,0.5-2.4,1-3.6,1.4h3.6V159.8z"/>
			<polygon fill="none" points="168.6,159.7 166,158.5 164.6,158.5 164.6,158.5 164.6,161.2 166.1,161.2 			"/>
			<polygon fill="none" points="145.7,181.8 141.8,183.6 149.5,183.6 			"/>
			<polygon fill="none" points="145.7,181.2 149.7,179.4 145.9,177.8 141.9,179.4 			"/>
			<polygon fill="none" points="141.7,178.9 145.1,177.5 142.3,176.3 			"/>
			<polygon fill="none" points="140.7,183.5 145,181.5 141.5,179.8 			"/>
			<polygon fill="none" points="150.8,183.6 150.9,183.6 150.1,179.8 146.4,181.5 			"/>
			<polygon fill="none" points="149.9,178.9 149.4,176.3 146.6,177.5 			"/>
			<polygon fill="none" points="152.7,191.8 154.3,191.8 151.1,184.3 147.5,184.3 			"/>
			<polygon fill="none" points="125.6,181.8 121.7,183.6 129.4,183.6 			"/>
			<polygon fill="none" points="127.4,184.3 132.6,191.8 134.2,191.8 131,184.3 			"/>
			<polygon fill="none" points="144.1,172.8 145.9,173.7 147.7,172.8 			"/>
			<polygon fill="none" points="137.1,191.8 138.7,191.8 143.9,184.3 140.4,184.3 			"/>
			<polygon fill="none" points="145.9,177.2 149,175.9 145.9,174.4 142.8,175.9 			"/>
			<polygon fill="none" points="117,191.8 118.6,191.8 123.8,184.3 120.3,184.3 			"/>
			<polygon fill="none" points="173.7,191.8 175.3,191.8 172,184.3 168.5,184.3 			"/>
			<polygon fill="none" points="166.6,181.8 162.7,183.6 170.4,183.6 			"/>
			<polygon fill="none" points="158.1,191.8 159.6,191.8 164.9,184.3 161.4,184.3 			"/>
			<polygon fill="none" points="170.1,175.4 169.6,173 167.5,174 			"/>
			<polygon fill="none" points="171.7,183.6 171.8,183.6 171,179.8 167.3,181.5 			"/>
			<polygon fill="none" points="162.4,179.8 161.6,183.5 166,181.5 			"/>
			<polygon fill="none" points="170.8,178.9 170.3,176.3 167.5,177.5 			"/>
			<polygon fill="none" points="163.3,176.3 162.7,178.9 166.1,177.5 			"/>
			<polygon fill="none" points="166.6,181.2 170.6,179.4 166.8,177.8 162.9,179.4 			"/>
			<polygon fill="none" points="166.8,177.2 169.9,175.9 166.8,174.4 163.8,175.9 			"/>
			<polygon fill="none" points="165,172.8 166.8,173.7 168.7,172.8 			"/>
			<polygon fill="none" points="169.1,150.5 164.9,152.4 165.9,152.9 169.1,152.9 			"/>
			<polygon fill="none" points="169.1,158.5 167.3,158.5 169.1,159.2 			"/>
			<polygon fill="none" points="169.1,155.4 165.5,157.2 169.1,157.2 			"/>
			<polygon fill="none" points="169.1,154.2 168.5,154.2 169.1,154.5 			"/>
			<polygon fill="none" points="166.7,146 164.9,149.4 168.8,149.4 			"/>
			<polygon fill="none" points="164.6,150.2 164.6,151.9 168.4,150.2 			"/>
			<polygon fill="none" points="167.3,154.2 164.6,154.2 164.6,157 168.8,154.9 			"/>
			<polygon fill="none" points="169.1,160 167.2,161.2 169.1,161.2 			"/>
			<path fill="none" d="M168.8,164.3l-4.1-1.7c0,0,0,0,0,0v3.1h1.6L168.8,164.3z"/>
			<polygon fill="none" points="164.6,170 169,170 164.6,167.2 			"/>
			<polygon fill="none" points="169.1,166.9 165.3,166.9 169.1,169.4 			"/>
			<polygon fill="none" points="169.1,162.5 165.9,162.5 169.1,163.8 			"/>
			<polygon fill="none" points="169.1,164.8 167.5,165.6 169.1,165.6 			"/>
			<path fill="none" d="M127.6,159.7l-2.2-1c-0.6,0.3-1.2,0.6-1.8,0.8v1.7h1.5L127.6,159.7z"/>
			<polygon fill="none" points="123.6,150.2 123.6,151.9 127.4,150.2 			"/>
			<polygon fill="none" points="126.2,154.2 123.6,154.2 123.6,157 127.7,154.9 			"/>
			<path fill="none" d="M123.6,158.5v0.5c0.4-0.2,0.8-0.4,1.2-0.5H123.6z"/>
			<path fill="none" d="M127.8,164.3l-1.8-0.7c-0.8,0.5-1.5,0.9-2.4,1.3v0.8h1.6L127.8,164.3z"/>
			<path fill="none" d="M123.7,162.6C123.6,162.6,123.6,162.6,123.7,162.6l0,1.7c0.6-0.3,1.2-0.7,1.8-1L123.7,162.6z"/>
			<path fill="none" d="M128.1,155.4l-3.6,1.8h2.7c0.3-0.2,0.6-0.4,0.9-0.5V155.4z"/>
			<polygon fill="none" points="128.1,159.2 128.1,158.5 126.3,158.5 			"/>
			<polygon fill="none" points="123.6,167.2 123.6,170 128,170 			"/>
			<polygon fill="none" points="128.1,154.2 127.5,154.2 128.1,154.5 			"/>
			<polygon fill="none" points="125.6,146 123.9,149.4 127.8,149.4 			"/>
			<polygon fill="none" points="128.1,150.5 123.9,152.4 124.8,152.9 128.1,152.9 			"/>
			<polygon fill="none" points="52,192.1 55.7,192.1 55.7,165.7 67.9,165.7 67.9,164.3 52,164.3 			"/>
			<rect x="56.7" y="166.6" fill="none" width="11.2" height="25.4"/>
			<path fill="none" d="M73.8,175.5c0-0.4,0.3-0.7,0.7-0.7h12.2c0.4,0,0.7,0.3,0.7,0.7v17.6h20.7V170c-2.5,0.5-4.4,0.8-5.2,0.9
				c0,0,0,0,0,0c0,1.3-1,2.3-2.3,2.3c-1.3,0-2.3-1-2.3-2.3c0-0.3,0.1-0.5,0.1-0.8c-1.4,0.3-2.6,0.5-3.6,0.7c0,0,0,0,0,0.1
				c0,1.3-1,2.3-2.3,2.3c-1.3,0-2.3-1-2.3-2.3c0-1.3,1.1-2.3,2.3-2.3c1.1,0,2,0.8,2.3,1.8c1-0.2,2.3-0.4,3.9-0.8
				c0.4-0.6,1.1-1,1.9-1c0.4,0,0.8,0.1,1.1,0.3c2.1-0.6,4.3-1.3,6.5-2.2v-3c-2.2,0.3-4.1,0.5-5.3,0.5c-0.2,1.1-1.1,1.9-2.3,1.9
				c-1.3,0-2.3-1-2.3-2.3c-1.3,0.2-2.5,0.3-3.5,0.4c-0.2,1-1.2,1.8-2.3,1.8c-1.3,0-2.3-1.1-2.3-2.3c0-1.3,1.1-2.3,2.3-2.3
				c1.3,0,2.3,1.1,2.3,2.3c0,0,0,0,0,0c1-0.1,2.2-0.2,3.5-0.4c0.2-1.1,1.1-2,2.3-2c0.9,0,1.6,0.5,2,1.1c1.8-0.4,3.7-0.9,5.6-1.5V158
				H69.7v35.1h4V175.5z"/>
			<path fill="none" d="M102.8,163.8c1.2-0.1,3.1-0.2,5.3-0.5v-1.7c-1.8,0.6-3.7,1.1-5.4,1.5C102.8,163.3,102.8,163.5,102.8,163.8z"
				/>
			<polygon fill="none" points="128.2,170.7 123.5,170.7 123.2,172.3 128.5,172.3 			"/>
			<polygon fill="none" points="128.1,160 126.2,161.2 128.1,161.2 			"/>
			<path fill="none" d="M102.8,170.5c0.8-0.1,2.8-0.4,5.3-0.9v-2.3c-2.1,0.8-4.1,1.5-6,2C102.4,169.6,102.7,170,102.8,170.5z"/>
			<polygon fill="none" points="149.2,175.4 148.7,173 146.5,174 			"/>
			<path fill="none" d="M120.3,158.5h-2.2v-1.3h4.8v-3h-2.1c-3.1,3.2-7.2,5.4-11.4,6.9v1.9c2.5-0.4,5.3-1,8.2-1.8
				C118.6,160.4,119.5,159.5,120.3,158.5z"/>
			<polygon fill="none" points="125.2,174.1 123,173 122.4,175.4 			"/>
			<path fill="none" d="M109.5,163.5v2.6c2.6-1.1,5.1-2.5,7.3-4.2C114.2,162.7,111.7,163.2,109.5,163.5z"/>
			<path fill="none" d="M118.2,165.6h2.7c0.7-0.3,1.4-0.6,2-0.9v-2.2h-4.8v-1c-0.1,0-0.2,0.1-0.3,0.1c-2.4,2.1-5.4,3.7-8.4,5v2.6
				c2.6-0.6,5.6-1.4,8.7-2.5V165.6z"/>
			<path fill="none" d="M75.2,193.1h10.8v-16.9H75.2V193.1z M84,184.8H85c0.1,0,0.2,0.1,0.2,0.2c0,0.1-0.1,0.2-0.2,0.2h-1.1
				c-0.5,0-0.6,0.4-0.6,0.5c0,0.1-0.1,0.2-0.2,0.2c0,0,0,0,0,0c-0.1,0-0.2-0.1-0.2-0.3C82.9,185.3,83.2,184.7,84,184.8z"/>
			<polygon fill="none" points="128.1,169.4 128.1,166.9 124.3,166.9 			"/>
			<polygon fill="none" points="148.2,158.5 146.4,158.5 148.2,159.2 			"/>
			<polygon fill="none" points="145.7,146 144,149.4 147.9,149.4 			"/>
			<polygon fill="none" points="148.2,150.5 144,152.4 144.9,152.9 148.2,152.9 			"/>
			<polygon fill="none" points="148.2,154.2 147.6,154.2 148.2,154.5 			"/>
			<polygon fill="none" points="147.7,159.7 145,158.5 143.7,158.5 143.7,161.2 145.2,161.2 			"/>
			<polygon fill="none" points="143.7,150.2 143.7,151.9 147.5,150.2 			"/>
			<polygon fill="none" points="146.3,154.2 143.7,154.2 143.7,157 147.8,154.9 			"/>
			<polygon fill="none" points="148.2,169.4 148.2,166.9 144.4,166.9 			"/>
			<polygon fill="none" points="148.2,155.4 144.6,157.2 148.2,157.2 			"/>
			<polygon fill="none" points="148.2,164.8 146.6,165.6 148.2,165.6 			"/>
			<polygon fill="none" points="148.2,163.8 148.2,162.5 145,162.5 			"/>
			<polygon fill="none" points="148.2,160 146.3,161.2 148.2,161.2 			"/>
			<polygon fill="none" points="129.1,175.4 128.6,173 126.4,174 			"/>
			<path fill="none" d="M147.9,164.3l-4.1-1.7c0,0,0,0,0,0v3.1h1.6L147.9,164.3z"/>
			<path fill="none" d="M131.5,158.5h-2.7v2.6C129.8,160.3,130.7,159.4,131.5,158.5z"/>
			<path fill="none" d="M126,163c0.3-0.2,0.5-0.3,0.8-0.5h-1.9L126,163z"/>
			<polygon fill="none" points="128.1,164.8 126.5,165.6 128.1,165.6 			"/>
			<path fill="none" d="M128.1,162.5h-0.4c-0.3,0.2-0.7,0.5-1.1,0.7l1.5,0.6V162.5z"/>
			<path fill="none" d="M133.8,158.5h-0.3c1,0.6,3.1,1.5,5.9,0h-1.1v-1.3h4.8v-3h-2.8c-1.5,0.9-2.8,1.2-3.9,1.2
				c-1.8,0-3.1-0.8-3.6-1.2H132c-1,0.9-2.1,1.8-3.2,2.5v0.4h5V158.5z"/>
			<path fill="none" d="M131.5,183.8l3.6,8.2c0,0,0,0.1,0,0.1h1.1c0,0,0-0.1,0-0.1l3.6-8.2l3.1-13.5v-3.4h-4.8v-1.3h4.8v-3.1h-4.8
				v-1.3h4.8v-2.7h-2.7c-1.5,0.9-2.9,1.3-4,1.3c-1.9,0-3.2-0.9-3.7-1.3h-0.5c-0.8,1-1.7,1.9-2.7,2.7h4.4v1.3h-5v3.1h5v1.3h-5v3.3
				c0,0,0,0,0,0.1L131.5,183.8z"/>
			<polygon fill="none" points="143.7,167.2 143.7,170 148.1,170 			"/>
			<polygon fill="none" points="145.3,174.1 143.1,173 142.5,175.4 			"/>
			<polygon fill="none" points="148.3,170.7 143.6,170.7 143.3,172.3 148.6,172.3 			"/>
			<path fill="none" d="M128.8,154.2v2c0.9-0.6,1.7-1.3,2.5-2H128.8z"/>
			<path d="M68.3,193.8c0,0.4,0.3,0.7,0.7,0.7h39.8c0.4,0,0.7-0.3,0.7-0.7v-24.1c2.8-0.6,6.1-1.5,9.4-2.8h4v3.4l-3.1,13.5l-3.6,8.2
				c0,0,0,0.1,0,0.1h-1v1h5.3v-1h-1.3l5.5-7.9h1.9l5.4,7.9h-1.2v1h9.7v-1h-1.3l5.5-7.9h1.9l5.4,7.9h-1.2v1h5.3v-1h-1
				c0,0,0-0.1,0-0.1l-3.6-8.2l-2.7-13.5c0,0,0,0,0-0.1v-3.3h5v-1.3h-5v-3.1h5v-1.3h-5v-2.7h3.9c0.4,0.4,1.7,1.3,3.7,1.3
				c1.1,0,2.5-0.3,4-1.3h3.5v2.7h-4.8v1.3h4.8v3.1h-4.8v1.3h4.8v3.4l-3.2,13.5l-3.6,8.2c0,0,0,0.1,0,0.1h-1v1h5.3v-1h-1.3l5.5-7.9
				h1.9l5.4,7.9h-1.2v1h5.3v-1h-1c0,0,0-0.1,0-0.1l-3.6-8.2l-2.7-13.5c0,0,0,0,0-0.1v-3.3h5v-1.3h-5v-3.1h5v-1.3h-5v-2.7h5v-1.3h-5
				v-3h5v-1.3h-5v-3.1c0-0.1,0-0.1,0-0.2c0-0.1,0-0.1-0.1-0.1l-2.7-4.4c-0.1-0.1-0.2-0.2-0.3-0.2c-0.1,0-0.2,0.1-0.3,0.2l-2.3,4.5
				c0,0,0,0.1,0,0.1c0,0,0,0.1,0,0.1v3.1h-4.8v1.3h0.1c-2.7,1.3-4.6,0.6-5.7,0h0.2v-1.3h-5v-3.1c0-0.1,0-0.1,0-0.2
				c0-0.1,0-0.1-0.1-0.1l-2.7-4.4c-0.1-0.1-0.2-0.2-0.3-0.2c-0.1,0-0.2,0.1-0.3,0.2l-2.3,4.5c0,0,0,0.1,0,0.1c0,0,0,0.1,0,0.1v3.1
				h-4.8v1.3h0.9c-2.7,1.3-4.6,0.6-5.7,0h0.2v-1.3h-5v-3.1c0-0.1,0-0.1,0-0.2c0-0.1,0-0.1-0.1-0.1l-2.7-4.4
				c-0.1-0.1-0.2-0.2-0.3-0.2c-0.1,0-0.2,0.1-0.3,0.2l-2.3,4.5c0,0,0,0.1,0,0.1c0,0,0,0.1,0,0.1v3.1h-4.8v1.3h2
				c-3,2.9-6.8,5-10.7,6.4v-3.3c0-0.4-0.3-0.7-0.7-0.7H69c-0.4,0-0.7,0.3-0.7,0.7v6.1H51.1V193h17.3V193.8z M163.3,176.3l2.8,1.2
				l-3.4,1.4L163.3,176.3z M166.8,174.4l3.1,1.5l-3.1,1.3l-3-1.3L166.8,174.4z M166.8,173.7l-1.8-0.9h3.7L166.8,173.7z M170.6,179.4
				l-4,1.8l-3.8-1.8l3.9-1.6L170.6,179.4z M162.4,179.8l3.5,1.7l-4.4,2L162.4,179.8z M159.6,191.8h-1.5l3.3-7.5h3.5L159.6,191.8z
				 M162.7,183.6l3.9-1.8l3.8,1.8H162.7z M175.3,191.8h-1.6l-5.2-7.5h3.5L175.3,191.8z M171.8,183.6L171.8,183.6l-4.5-2.1l3.7-1.7
				L171.8,183.6z M170.8,178.9l-3.3-1.4l2.8-1.2L170.8,178.9z M170.1,175.4l-2.7-1.3l2.2-1.1L170.1,175.4z M165.3,166.9h3.8v2.5
				L165.3,166.9z M169,170h-4.3v-2.9L169,170z M164.6,165.6v-3.1c0,0,0,0,0,0l4.1,1.7l-2.5,1.3H164.6z M167.5,165.6l1.6-0.8v0.8
				H167.5z M165.9,162.5h3.2v1.3L165.9,162.5z M167.2,161.2l1.9-1.2v1.2H167.2z M165.5,157.2l3.6-1.8v1.8H165.5z M169.1,158.5v0.8
				l-1.7-0.8H169.1z M165.9,152.9l-0.9-0.5l4.2-1.9v2.4H165.9z M169.1,154.2v0.3l-0.6-0.3H169.1z M166.7,146l2.1,3.4h-3.9L166.7,146
				z M164.6,150.2h3.8l-3.8,1.8V150.2z M164.6,154.2h2.6l1.5,0.8l-4.1,2V154.2z M164.6,158.5L164.6,158.5h1.3l2.7,1.2l-2.5,1.5h-1.5
				V158.5z M164.6,170.7h4.6l0.3,1.5h-5.3L164.6,170.7z M164,173l2.2,1.1l-2.7,1.4L164,173z M148.9,154.2h4c0.5,0.4,1.8,1.2,3.6,1.2
				c1.1,0,2.4-0.3,3.9-1.2h3.7v3h-4.8v1.3h0.3c-2.8,1.5-4.9,0.6-5.9,0h0.3v-1.3h-5V154.2z M122,165.6c0.3-0.1,0.6-0.3,0.9-0.4v0.4
				H122z M122.9,159.8v1.4h-3.6C120.5,160.8,121.7,160.3,122.9,159.8z M118.7,160.9c0.8-0.7,1.5-1.5,2.2-2.4h2v0.9
				C121.5,159.9,120.1,160.4,118.7,160.9z M122.2,176.3l2.8,1.2l-3.4,1.4L122.2,176.3z M125.8,174.4l3.1,1.5l-3.1,1.3l-3-1.3
				L125.8,174.4z M125.8,173.7l-1.8-0.9h3.7L125.8,173.7z M130,179.8l0.8,3.8h-0.1l-4.4-2.1L130,179.8z M125.6,181.2l-3.8-1.8
				l3.9-1.6l3.8,1.6L125.6,181.2z M126.5,177.5l2.8-1.2l0.5,2.6L126.5,177.5z M121.4,179.8l3.5,1.7l-4.4,2L121.4,179.8z
				 M118.6,191.8H117l3.3-7.5h3.5L118.6,191.8z M121.7,183.6l3.9-1.8l3.8,1.8H121.7z M132.6,191.8l-5.2-7.5h3.5l3.3,7.5H132.6z
				 M138.7,191.8h-1.5l3.3-7.5h3.5L138.7,191.8z M149,175.9l-3.1,1.3l-3-1.3l3.1-1.5L149,175.9z M144.1,172.8h3.7l-1.8,0.9
				L144.1,172.8z M149.7,179.4l-4,1.8l-3.8-1.8l3.9-1.6L149.7,179.4z M145.1,177.5l-3.4,1.4l0.6-2.6L145.1,177.5z M145,181.5l-4.4,2
				l0.8-3.6L145,181.5z M141.8,183.6l3.9-1.8l3.8,1.8H141.8z M154.3,191.8h-1.6l-5.2-7.5h3.5L154.3,191.8z M150.9,183.6L150.9,183.6
				l-4.5-2.1l3.7-1.7L150.9,183.6z M149.9,178.9l-3.3-1.4l2.8-1.2L149.9,178.9z M149.2,175.4l-2.7-1.3l2.2-1.1L149.2,175.4z
				 M146.6,165.6l1.6-0.8v0.8H146.6z M148.2,166.9v2.5l-3.8-2.5H148.2z M146.3,161.2l1.9-1.2v1.2H146.3z M148.2,162.5v1.3l-3.2-1.3
				H148.2z M144.6,157.2l3.6-1.8v1.8H144.6z M148.2,158.5v0.8l-1.7-0.8H148.2z M144.9,152.9l-0.9-0.5l4.1-1.9v2.4H144.9z
				 M148.2,154.2v0.3l-0.6-0.3H148.2z M145.7,146l2.1,3.4H144L145.7,146z M143.7,150.2h3.8l-3.8,1.8V150.2z M143.7,154.2h2.6
				l1.5,0.8l-4.1,2V154.2z M143.7,158.5h1.3l2.7,1.2l-2.5,1.5h-1.5V158.5z M143.7,162.6C143.7,162.6,143.7,162.6,143.7,162.6
				l4.2,1.7l-2.5,1.3h-1.6V162.6z M143.7,167.2l4.4,2.9h-4.4V167.2z M143.6,170.7h4.6l0.3,1.5h-5.3L143.6,170.7z M143.1,173l2.2,1.1
				l-2.7,1.4L143.1,173z M128.8,154.2h2.5c-0.8,0.7-1.6,1.4-2.5,2V154.2z M128.8,156.7c1.1-0.8,2.2-1.6,3.2-2.5h0.7
				c0.5,0.4,1.8,1.2,3.6,1.2c1.1,0,2.4-0.3,3.9-1.2h2.8v3h-4.8v1.3h1.1c-2.8,1.5-4.9,0.6-5.9,0h0.3v-1.3h-5V156.7z M128.8,158.5h2.7
				c-0.8,0.9-1.7,1.8-2.7,2.6V158.5z M128.8,166.9h5v-1.3h-5v-3.1h5v-1.3h-4.4c1-0.8,1.9-1.7,2.7-2.7h0.5c0.4,0.4,1.7,1.3,3.7,1.3
				c1.1,0,2.5-0.3,4-1.3h2.7v2.7h-4.8v1.3h4.8v3.1h-4.8v1.3h4.8v3.4l-3.1,13.5l-3.6,8.2c0,0,0,0.1,0,0.1h-1.1c0,0,0-0.1,0-0.1
				l-3.6-8.2l-2.7-13.5c0,0,0,0,0-0.1V166.9z M129.1,175.4l-2.7-1.3l2.2-1.1L129.1,175.4z M126.5,165.6l1.6-0.8v0.8H126.5z
				 M128.1,166.9v2.5l-3.7-2.5H128.1z M127.6,162.5h0.4v1.3l-1.5-0.6C126.9,163,127.3,162.7,127.6,162.5z M126,163l-1.2-0.5h1.9
				C126.5,162.7,126.3,162.8,126,163z M126.2,161.2l1.9-1.2v1.2H126.2z M127.2,157.2h-2.7l3.6-1.8v1.2
				C127.8,156.8,127.5,157,127.2,157.2z M128.1,158.5v0.8l-1.7-0.8H128.1z M124.8,152.9l-0.9-0.5l4.1-1.9v2.4H124.8z M128.1,154.2
				v0.3l-0.6-0.3H128.1z M125.6,146l2.1,3.4h-3.9L125.6,146z M123.6,150.2h3.8l-3.8,1.8V150.2z M123.6,154.2h2.6l1.5,0.8l-4.1,2
				V154.2z M123.6,158.5h1.2c-0.4,0.2-0.8,0.4-1.2,0.5V158.5z M123.6,159.5c0.6-0.3,1.2-0.5,1.8-0.8l2.2,1l-2.5,1.5h-1.5V159.5z
				 M123.6,162.6C123.6,162.6,123.6,162.6,123.6,162.6l1.8,0.8c-0.6,0.4-1.2,0.7-1.8,1V162.6z M123.6,164.9c0.8-0.4,1.6-0.8,2.4-1.3
				l1.8,0.7l-2.5,1.3h-1.6V164.9z M123.6,167.2l4.4,2.9h-4.4V167.2z M123.5,170.7h4.6l0.3,1.5h-5.3L123.5,170.7z M123,173l2.2,1.1
				l-2.7,1.4L123,173z M109.5,161.1c4.1-1.5,8.2-3.7,11.4-6.9h2.1v3h-4.8v1.3h2.2c-0.8,1-1.7,1.9-2.6,2.7c-2.9,0.9-5.7,1.4-8.2,1.8
				V161.1z M109.5,163.5c2.2-0.4,4.7-0.8,7.3-1.6c-2.2,1.7-4.7,3.1-7.3,4.2V163.5z M109.5,166.6c3-1.3,6-3,8.4-5
				c0.1,0,0.2-0.1,0.3-0.1v1h4.8v2.2c-0.7,0.3-1.3,0.6-2,0.9h-2.7v1.1c-3.1,1.1-6.1,1.9-8.7,2.5V166.6z M85.9,193.1H75.2v-16.9h10.8
				V193.1z M108.1,169.5c-2.5,0.5-4.5,0.8-5.3,0.9c-0.1-0.5-0.4-0.9-0.7-1.2c1.9-0.5,4-1.2,6-2V169.5z M108.1,163.2
				c-2.2,0.3-4,0.5-5.3,0.5c0-0.3-0.1-0.5-0.1-0.7c1.7-0.4,3.5-0.9,5.4-1.5V163.2z M69.7,158h38.3v3.1c-1.9,0.6-3.8,1.1-5.6,1.5
				c-0.4-0.7-1.2-1.1-2-1.1c-1.2,0-2.1,0.8-2.3,2c-1.3,0.2-2.5,0.3-3.5,0.4c0,0,0,0,0,0c0-1.3-1-2.3-2.3-2.3c-1.3,0-2.3,1.1-2.3,2.3
				c0,1.3,1.1,2.3,2.3,2.3c1.1,0,2-0.8,2.3-1.8c1-0.1,2.2-0.2,3.5-0.4c0,1.3,1.1,2.3,2.3,2.3c1.1,0,2.1-0.8,2.3-1.9
				c1.2-0.1,3.1-0.2,5.3-0.5v3c-2.2,0.9-4.5,1.6-6.5,2.2c-0.3-0.2-0.7-0.3-1.1-0.3c-0.8,0-1.5,0.4-1.9,1c-1.5,0.3-2.9,0.6-3.9,0.8
				c-0.2-1-1.2-1.8-2.3-1.8c-1.3,0-2.3,1-2.3,2.3c0,1.3,1.1,2.3,2.3,2.3c1.3,0,2.3-1,2.3-2.3c0,0,0,0,0-0.1c0.9-0.2,2.2-0.4,3.6-0.7
				c-0.1,0.2-0.1,0.5-0.1,0.8c0,1.3,1,2.3,2.3,2.3c1.3,0,2.3-1,2.3-2.3c0,0,0,0,0,0c0.8-0.1,2.7-0.4,5.2-0.9v23.1H87.3v-17.6
				c0-0.4-0.3-0.7-0.7-0.7H74.5c-0.4,0-0.7,0.3-0.7,0.7v17.6h-4V158z M67.9,192.1H56.7v-25.4h11.2V192.1z M67.9,165.7H55.7v26.4H52
				v-27.8h15.9V165.7z"/>
			<path d="M83,185.9C83,185.9,83,185.9,83,185.9c0.1,0,0.2-0.1,0.3-0.2c0-0.1,0.1-0.5,0.6-0.5H85c0.1,0,0.2-0.1,0.2-0.2
				c0-0.1-0.1-0.2-0.2-0.2H84c-0.8-0.1-1.1,0.6-1.1,0.9C82.8,185.8,82.9,185.9,83,185.9z"/>
		</g>
	</g>
	<text transform="matrix(1 0 0 1 51.1832 108.4509)" fill="#010202" font-family="'Montserrat-Bold'" font-size="24">1</text>
	<text transform="matrix(1 0 0 1 60.855 108.4509)" fill="#010202" font-family="'Montserrat-Bold'" font-size="24">.</text>
	<text transform="matrix(1 0 0 1 67.7671 108.4509)" fill="#010202" font-family="'Montserrat-Regular'" font-size="14"> </text>
	<text transform="matrix(1 0 0 1 71.6031 108.4509)" fill="#F59C21" font-family="'Montserrat-Bold'" font-size="14">S</text>
	<text transform="matrix(1 0 0 1 80.4649 108.4509)" fill="#F59C21" font-family="'Montserrat-Bold'" font-size="14">o</text>
	<text transform="matrix(1 0 0 1 89.5508 108.4509)" fill="#F59C21" font-family="'Montserrat-Bold'" font-size="14">l</text>
	<text transform="matrix(1 0 0 1 93.6387 108.4509)" fill="#F59C21" font-family="'Montserrat-Bold'" font-size="14">a</text>
	<text transform="matrix(1 0 0 1 101.9546 108.4509)" fill="#F59C21" font-family="'Montserrat-Bold'" font-size="14">r</text>
	<text transform="matrix(1 0 0 1 107.7085 108.4509)" fill="#F59C21" font-family="'Montserrat-Bold'" font-size="14"> </text>
	<text transform="matrix(1 0 0 1 111.4043 108.4509)" fill="#F59C21" font-family="'Montserrat-Bold'" font-size="14">P</text>
	<text transform="matrix(1 0 0 1 120.7564 108.4509)" fill="#F59C21" font-family="'Montserrat-Bold'" font-size="14">a</text>
	<text transform="matrix(1 0 0 1 129.0723 108.4509)" fill="#F59C21" font-family="'Montserrat-Bold'" font-size="14">n</text>
	<text transform="matrix(1 0 0 1 138.0181 108.4509)" fill="#F59C21" font-family="'Montserrat-Bold'" font-size="14">e</text>
	<text transform="matrix(1 0 0 1 146.67 108.4509)" fill="#F59C21" font-family="'Montserrat-Bold'" font-size="14">l</text>
	<text transform="matrix(1 0 0 1 150.7579 108.4509)" fill="#F59C21" font-family="'Montserrat-Bold'" font-size="14">s</text>
	<text transform="matrix(1 0 0 1 360.2128 101.4512)" fill="#010202" font-family="'Montserrat-Bold'" font-size="24">2</text>
	<text transform="matrix(1 0 0 1 374.7328 101.4512)" fill="#010202" font-family="'Montserrat-Bold'" font-size="24">.</text>
	<text transform="matrix(1 0 0 1 381.6444 101.4512)" fill="#F59C21" font-family="'Montserrat-Regular'" font-size="14"> </text>
	<text transform="matrix(1 0 0 1 385.4803 101.4512)" fill="#F59C21" font-family="'Montserrat-Bold'" font-size="14">I</text>
	<text transform="matrix(1 0 0 1 390.0023 101.4512)" fill="#F59C21" font-family="'Montserrat-Bold'" font-size="14">n</text>
	<text transform="matrix(1 0 0 1 398.8221 101.4512)" fill="#F59C21" font-family="'Montserrat-Bold'" font-size="14">v</text>
	<text transform="matrix(1 0 0 1 407.0262 101.4512)" fill="#F59C21" font-family="'Montserrat-Bold'" font-size="14">e</text>
	<text transform="matrix(1 0 0 1 415.6781 101.4512)" fill="#F59C21" font-family="'Montserrat-Bold'" font-size="14">r</text>
	<text transform="matrix(1 0 0 1 421.432 101.4512)" fill="#F59C21" font-family="'Montserrat-Bold'" font-size="14">t</text>
	<text transform="matrix(1 0 0 1 427.5917 101.4512)" fill="#F59C21" font-family="'Montserrat-Bold'" font-size="14">e</text>
	<text transform="matrix(1 0 0 1 436.2435 101.4512)" fill="#F59C21" font-family="'Montserrat-Bold'" font-size="14">r</text>
	<text transform="matrix(1 0 0 1 408.374 220.1276)" fill="#010202" font-family="'Montserrat-Bold'" font-size="24">3</text>
	<text transform="matrix(1 0 0 1 422.5576 220.1276)" fill="#010202" font-family="'Montserrat-Bold'" font-size="24">.</text>
	<text transform="matrix(1 0 0 1 429.4697 220.1276)" fill="#010202" font-family="'Montserrat-Regular'" font-size="14"> </text>
	<text transform="matrix(1 0 0 1 433.3057 220.1276)" fill="#F59C21" font-family="'Montserrat-Bold'" font-size="14">S</text>
	<text transform="matrix(1 0 0 1 442.0693 220.1276)" fill="#F59C21" font-family="'Montserrat-Bold'" font-size="14">w</text>
	<text transform="matrix(1 0 0 1 454.6973 220.1276)" fill="#F59C21" font-family="'Montserrat-Bold'" font-size="14">i</text>
	<text transform="matrix(1 0 0 1 458.7852 220.1276)" fill="#F59C21" font-family="'Montserrat-Bold'" font-size="14">t</text>
	<text transform="matrix(1 0 0 1 464.9448 220.1276)" fill="#F59C21" font-family="'Montserrat-Bold'" font-size="14">c</text>
	<text transform="matrix(1 0 0 1 473.0928 220.1276)" fill="#F59C21" font-family="'Montserrat-Bold'" font-size="14">h</text>
	<text transform="matrix(1 0 0 1 482.0386 220.1276)" fill="#F59C21" font-family="'Montserrat-Bold'" font-size="14"> </text>
	<text transform="matrix(1 0 0 1 485.7344 220.1276)" fill="#F59C21" font-family="'Montserrat-Bold'" font-size="14">B</text>
	<text transform="matrix(1 0 0 1 495.3105 220.1276)" fill="#F59C21" font-family="'Montserrat-Bold'" font-size="14">o</text>
	<text transform="matrix(1 0 0 1 504.3965 220.1276)" fill="#F59C21" font-family="'Montserrat-Bold'" font-size="14">a</text>
	<text transform="matrix(1 0 0 1 512.7124 220.1276)" fill="#F59C21" font-family="'Montserrat-Bold'" font-size="14">r</text>
	<text transform="matrix(1 0 0 1 518.3687 220.1276)" fill="#F59C21" font-family="'Montserrat-Bold'" font-size="14">d</text>
	<g>
		<path d="M255.4,243c1.1,0.5,1.9,1.4,2.3,2.5c0.5,1.1,0.4,2.3-0.1,3.5c-0.5,1.2-1.4,2-2.5,2.4c-1.1,0.4-2.2,0.4-3.4-0.1
			c-1.2-0.5-2-1.3-2.4-2.4c-0.5-1.1-0.5-2.2,0-3.3c0.4-1.2,1.2-2,2.2-2.5l1.4-16.7c0-0.5,0.1-0.9,0.3-1.1c0.2-0.2,0.4-0.2,0.6,0
			c0.2,0.2,0.3,0.6,0.3,1.1L255.4,243z M278.4,235.1c0,6.9-2.4,12.8-7.3,17.6c-4.9,4.9-10.8,7.3-17.6,7.3c-6.9,0-12.8-2.4-17.6-7.3
			c-4.9-4.9-7.3-10.8-7.3-17.6c0-6.9,2.4-12.8,7.3-17.6c4.9-4.9,10.8-7.3,17.6-7.3c6.9,0,12.8,2.4,17.6,7.3
			C275.9,222.3,278.4,228.2,278.4,235.1L278.4,235.1z M271.8,242.5c0.9-2.4,1.4-4.8,1.4-7.4c0-5.5-1.9-10.2-5.8-14
			c-3.9-3.9-8.6-5.8-14-5.8s-10.2,1.9-14,5.8c-3.9,3.9-5.8,8.6-5.8,14c0,2.6,0.5,5,1.4,7.4c5.4-3.7,10.6-5.8,15.6-6.2l-0.6,4.5
			c-2.3,1.1-3.4,3.2-3.4,6.2c0,1.9,0.7,3.5,2,4.8c1.3,1.3,2.9,2,4.8,2s3.5-0.7,4.8-2c1.3-1.3,2-2.9,2-4.8c0-3.1-1.1-5.1-3.4-6.2
			l-0.6-4.5C261.3,236.6,266.5,238.7,271.8,242.5L271.8,242.5z M271.8,242.5"/>
	</g>
	<text transform="matrix(1 0 0 1 199.269 277.0629)" fill="#010202" font-family="'Montserrat-Bold'" font-size="24">4</text>
	<text transform="matrix(1 0 0 1 213.3809 277.0629)" fill="#010202" font-family="'Montserrat-Bold'" font-size="24">.</text>
	<text transform="matrix(1 0 0 1 220.293 277.0629)" fill="#F59C21" font-family="'Montserrat-Regular'" font-size="14"> </text>
	<text transform="matrix(1 0 0 1 224.1289 277.0629)" fill="#F59C21" font-family="'Montserrat-Bold'" font-size="14">U</text>
	<text transform="matrix(1 0 0 1 234.5449 277.0629)" fill="#F59C21" font-family="'Montserrat-Bold'" font-size="14">t</text>
	<text transform="matrix(1 0 0 1 240.7046 277.0629)" fill="#F59C21" font-family="'Montserrat-Bold'" font-size="14">i</text>
	<text transform="matrix(1 0 0 1 244.7925 277.0629)" fill="#F59C21" font-family="'Montserrat-Bold'" font-size="14">l</text>
	<text transform="matrix(1 0 0 1 248.8804 277.0629)" fill="#F59C21" font-family="'Montserrat-Bold'" font-size="14">i</text>
	<text transform="matrix(1 0 0 1 252.9683 277.0629)" fill="#F59C21" font-family="'Montserrat-Bold'" font-size="14">t</text>
	<text transform="matrix(1 0 0 1 259.1279 277.0629)" fill="#F59C21" font-family="'Montserrat-Bold'" font-size="14">y</text>
	<text transform="matrix(1 0 0 1 267.3877 277.0629)" fill="#F59C21" font-family="'Montserrat-Bold'" font-size="14"> </text>
	<text transform="matrix(1 0 0 1 271.0835 277.0629)" fill="#F59C21" font-family="'Montserrat-Bold'" font-size="14">M</text>
	<text transform="matrix(1 0 0 1 284.4395 277.0629)" fill="#F59C21" font-family="'Montserrat-Bold'" font-size="14">e</text>
	<text transform="matrix(1 0 0 1 293.0073 277.0629)" fill="#F59C21" font-family="'Montserrat-Bold'" font-size="14">t</text>
	<text transform="matrix(1 0 0 1 299.167 277.0629)" fill="#F59C21" font-family="'Montserrat-Bold'" font-size="14">e</text>
	<text transform="matrix(1 0 0 1 307.8188 277.0629)" fill="#F59C21" font-family="'Montserrat-Bold'" font-size="14">r</text>
	<text transform="matrix(1 0 0 1 53.1834 221.0001)" fill="#010202" font-family="'Montserrat-Bold'" font-size="24">5.</text>
	<text transform="matrix(1 0 0 1 74.3992 221.0001)" fill="#F59C21" font-family="'Montserrat-Regular'" font-size="14"> </text>
	<text transform="matrix(1 0 0 1 78.2347 221.0001)" fill="#F59C21" font-family="'Montserrat-Bold'" font-size="14">Grid</text>
	<path fill="none" stroke="#F59C21" stroke-miterlimit="10" d="M247.4,48.4"/>
	<g>
		<path fill="#F59C21" d="M254.9,67.3c0,0,0.6-0.7,1.8-1.9c0.6-0.6,1.3-1.4,2.1-2.3c0.9-0.9,1.9-1.8,3-3c4.6-4.4,11.6-10.2,21-15.6
			c4.7-2.6,10.1-5.2,15.9-7.4c5.8-2.2,12.1-4,18.8-5.4c13.3-2.8,28-3.5,42.4-2.1c14.4,1.5,28.7,5.1,41.3,10.2
			c1.6,0.7,3.2,1.2,4.7,1.9c1.5,0.7,3,1.4,4.5,2.1c1.5,0.7,2.9,1.5,4.3,2.2c0.7,0.4,1.4,0.7,2.1,1.1c0.7,0.4,1.4,0.8,2.1,1.2
			c0.6,0.4,1.2,0.7,1.8,1c1,0.6,1.9,1.1,2.5,1.4c0.6,0.4,0.9,0.6,0.9,0.6s-1.8,1.3-3.6,2.6c-1.8,1.4-3.5,2.7-3.5,2.7
			c7.9,0.8,15.9,2.3,24,4.5c-4-7.3-8.8-14.5-14.3-21.4c0,0-0.2,2.2-0.5,4.4c-0.3,2.2-0.6,4.4-0.6,4.4s-0.3-0.2-1-0.6
			c-0.6-0.4-1.5-0.9-2.6-1.5c-0.6-0.3-1.2-0.7-1.8-1c-0.7-0.4-1.4-0.8-2.1-1.2c-0.7-0.4-1.4-0.7-2.2-1.1c-1.5-0.7-2.9-1.5-4.4-2.2
			c-1.5-0.7-3.1-1.4-4.6-2.1c-1.5-0.7-3.2-1.3-4.8-2c-12.9-5.2-27.4-8.9-42.1-10.4c-14.8-1.5-29.7-0.7-43.4,2.1
			c-6.8,1.4-13.3,3.3-19.3,5.6c-6,2.3-11.4,4.9-16.3,7.6c-9.7,5.5-16.9,11.5-21.6,16c-1.2,1.1-2.2,2.1-3.1,3
			c-0.9,0.9-1.6,1.7-2.2,2.4c-1.2,1.3-1.8,2-1.8,2L254.9,67.3z"/>
	</g>
	<g>
		<path fill="#F59C21" d="M448.1,135.7c0,0,0,0.2,0,0.6c0,0.4,0,0.9-0.1,1.7c-0.1,1.4-0.4,3.5-1.2,5.9c-0.8,2.4-2,5.1-3.7,7.8
			c-1.7,2.7-3.8,5.4-6.2,7.9c-2.4,2.5-5,4.7-7.6,6.6c-1.3,1-2.6,1.8-3.9,2.6c-0.6,0.4-1.1,0.7-1.7,1c-2.1,1.2-3.5,1.9-3.5,1.9
			s-0.1-2.2-0.4-4.4c-0.1-1.1-0.3-2.2-0.4-3c-0.1-0.8-0.2-1.3-0.2-1.3c-4.1,6.1-9.8,11.7-16.9,16.1c8.1,2,17.2,2.4,26.5,0.9
			c0,0-0.5-0.3-1.2-0.8c-0.7-0.5-1.6-1.2-2.5-1.8c-1.8-1.3-3.5-2.8-3.5-2.8s1.5-0.7,3.7-2c0.5-0.3,1.1-0.6,1.7-1
			c1.3-0.8,2.7-1.7,4.1-2.7c2.7-2,5.5-4.4,8-7c2.5-2.6,4.8-5.5,6.6-8.4c1.8-2.9,3.2-5.9,4-8.5c0.9-2.6,1.2-5,1.4-6.6
			c0.1-0.8,0.1-1.5,0.1-1.9c0-0.4,0-0.7,0-0.7L448.1,135.7z"/>
	</g>
	<g>
		<path fill="#F59C21" d="M337.9,181.1c0,0-0.4,0-1.1,0.1c-0.7,0.1-1.8,0.1-3.2,0.2c-2.7,0.1-6.7,0.1-11.4-0.3
			c-4.7-0.4-10.2-1.2-16-2.4c-5.8-1.3-11.9-3.1-17.7-5.4c-5.9-2.3-11.5-5.1-16.6-8.2c-2.5-1.6-4.8-3.2-7-4.9
			c-0.6-0.5-1.1-0.8-1.5-1.2c-0.9-0.8-1.7-1.4-2.2-1.9c-0.5-0.5-0.8-0.7-0.8-0.7s2-0.9,4-1.9c2-1,3.9-2.1,3.9-2.1
			c-7.2-1.8-14.4-4.9-20.8-10.3c0.5,8.4,3.6,17.2,8.2,25.3c0,0,0.5-2.2,1.2-4.3c0.7-2.2,1.4-4.3,1.4-4.3s0.3,0.3,0.8,0.8
			c0.5,0.5,1.3,1.2,2.3,2c0.5,0.4,1,0.8,1.6,1.3c2.2,1.7,4.7,3.4,7.2,5c5.2,3.2,11,6.1,17.1,8.5c6,2.4,12.3,4.2,18.2,5.5
			c5.9,1.3,11.6,2.1,16.4,2.5c4.9,0.4,8.9,0.4,11.8,0.3c1.4,0,2.5-0.1,3.3-0.2c0.8-0.1,1.2-0.1,1.2-0.1L337.9,181.1z"/>
	</g>
	<g>
		<path fill="#F59C21" d="M339.2,216c0,0-0.5,0.5-1.5,1.3c-0.5,0.4-1,0.9-1.7,1.5c-0.7,0.5-1.5,1.1-2.4,1.8
			c-3.5,2.5-8.6,5.3-14.2,6.8c-1.4,0.4-2.8,0.8-4.2,1c-0.7,0.1-1.4,0.3-2.1,0.4c-0.7,0.1-1.4,0.2-2.1,0.3c-1.3,0.2-2.7,0.3-3.9,0.5
			c-0.7,0.1-1.3,0.1-1.9,0.2c-1.2,0.1-2.2,0.1-2.9,0.2c-0.7,0-1.1,0-1.1,0s0.8-2.1,1.5-4.2c0.7-2.1,1.4-4.2,1.4-4.2
			c-6.8,3.7-14.8,6.8-22.5,10.1c7.7,3.2,15.3,6.7,23.8,9.4c0,0-1.1-2-2.1-4c-1-2-2-4-2-4s0.4,0,1.1,0c0.7,0,1.7-0.1,3-0.2
			c0.6,0,1.3-0.1,2-0.2c1.3-0.1,2.7-0.2,4.1-0.5c0.7-0.1,1.4-0.2,2.1-0.3c0.7-0.1,1.5-0.3,2.2-0.4c1.5-0.3,2.9-0.7,4.4-1.1
			c5.9-1.6,11.4-4.6,15.2-7.2c0.9-0.7,1.8-1.3,2.5-1.9c0.7-0.6,1.3-1.1,1.8-1.6c1-0.9,1.6-1.4,1.6-1.4L339.2,216z"/>
	</g>
	<g>
		<path fill="#F59C21" d="M220.1,233.5c0,0-1.1-0.1-3.1-0.3c-1-0.1-2.2-0.2-3.6-0.3c-1.4-0.2-2.9-0.4-4.6-0.7
			c-6.8-1.1-15.8-3.2-24-7.1c-1-0.5-2.1-1-3.1-1.5c-1-0.5-2-1.1-3-1.6c-0.5-0.3-1-0.5-1.5-0.8c-0.5-0.3-0.9-0.6-1.4-0.9
			c-0.9-0.6-1.9-1.2-2.8-1.7c-1.7-1.3-3.5-2.4-5-3.6c-0.5-0.4-1.1-0.8-1.5-1.2c-1-0.7-1.7-1.4-2.2-1.9c-0.5-0.5-0.8-0.7-0.8-0.7
			s2-1,3.9-2c1-0.5,1.9-1,2.6-1.4c0.7-0.4,1.2-0.7,1.2-0.7c-7.5-1.8-15.1-5-22.6-8.7c2.6,7.9,5.7,16,10.3,23.9c0,0,0.1-0.5,0.3-1.4
			c0.2-0.8,0.5-1.9,0.8-3c0.6-2.2,1.3-4.3,1.3-4.3s0.3,0.3,0.9,0.7c0.6,0.5,1.3,1.2,2.3,1.9c0.5,0.4,1,0.8,1.6,1.2
			c1.6,1.3,3.4,2.4,5.2,3.7c0.9,0.6,1.9,1.2,2.9,1.8c0.5,0.3,1,0.6,1.5,0.9c0.5,0.3,1,0.6,1.5,0.8c1,0.6,2.1,1.1,3.1,1.7
			c1.1,0.5,2.1,1,3.2,1.5c8.6,4.1,17.9,6.2,24.9,7.4c1.8,0.2,3.4,0.5,4.8,0.7c1.4,0.1,2.7,0.2,3.7,0.3c2.1,0.2,3.2,0.3,3.2,0.3
			L220.1,233.5z"/>
	</g>
</g>
</svg>
