<?xml version="1.0" encoding="UTF-8" standalone="no"?>
<!-- Created with Inkscape (http://www.inkscape.org/) -->

<svg
   xmlns:dc="http://purl.org/dc/elements/1.1/"
   xmlns:cc="http://creativecommons.org/ns#"
   xmlns:rdf="http://www.w3.org/1999/02/22-rdf-syntax-ns#"
   xmlns:svg="http://www.w3.org/2000/svg"
   xmlns="http://www.w3.org/2000/svg"
   xmlns:sodipodi="http://sodipodi.sourceforge.net/DTD/sodipodi-0.dtd"
   xmlns:inkscape="http://www.inkscape.org/namespaces/inkscape"
   version="1.1"
   id="svg2"
   xml:space="preserve"
   width="29.039616mm"
   height="8.4190454mm"
   viewBox="0 0 109.75603 31.820014"
   sodipodi:docname="cotech-small-grey.svg"
   inkscape:version="0.92.1 r15371"
   inkscape:export-filename="/home/schuerm/Cotech/cloud/Cotech/Corporate Design/Logo/cotech-600dpi.png"
   inkscape:export-xdpi="599.99854"
   inkscape:export-ydpi="599.99854"><metadata
     id="metadata8"><rdf:RDF><cc:Work
         rdf:about=""><dc:format>image/svg+xml</dc:format><dc:type
           rdf:resource="http://purl.org/dc/dcmitype/StillImage" /><dc:title /></cc:Work></rdf:RDF></metadata><defs
     id="defs6"><clipPath
       clipPathUnits="userSpaceOnUse"
       id="clipPath18"><path
         d="M 0,0 H 283.46 V 82.201 H 0 Z"
         id="path16"
         inkscape:connector-curvature="0" /></clipPath></defs><sodipodi:namedview
     pagecolor="#ffffff"
     bordercolor="#666666"
     borderopacity="1"
     objecttolerance="10"
     gridtolerance="10"
     guidetolerance="10"
     inkscape:pageopacity="0"
     inkscape:pageshadow="2"
     inkscape:window-width="2560"
     inkscape:window-height="1410"
     id="namedview4"
     showgrid="false"
     units="px"
     inkscape:zoom="8.621185"
     inkscape:cx="84.058259"
     inkscape:cy="19.824971"
     inkscape:window-x="0"
     inkscape:window-y="30"
     inkscape:window-maximized="1"
     inkscape:current-layer="g10"
     fit-margin-top="0"
     fit-margin-left="0"
     fit-margin-right="0"
     fit-margin-bottom="0" /><g
     id="g10"
     inkscape:groupmode="layer"
     inkscape:label="cotech"
     transform="matrix(1.3333333,0,0,-1.3333333,0.00266663,31.833346)"><path
       d="M 0.57879144,0.59079144 H 81.734232 V 23.294219 H 0.57879144 Z"
       style="fill:none;stroke:#757575;stroke-width:1.16158283;stroke-linecap:butt;stroke-linejoin:miter;stroke-miterlimit:4;stroke-dasharray:none;stroke-opacity:1"
       id="path20"
       inkscape:connector-curvature="0" /><path
       inkscape:connector-curvature="0"
       id="path24"
       style="fill:#757575;fill-opacity:1;fill-rule:nonzero;stroke:none;stroke-width:0.29039571"
       d="M 76.241077,8.6182875 V 16.908214 H 74.609344 V 12.802019 H 69.701365 L 68.069632,11.149667 V 7.0431811 h 1.631733 v 4.1064859 h 4.907979 V 7.0431811 l 1.631733,1.5751064 m -13.165961,5.6879805 1.165648,1.147064 c -0.453888,0.455921 -0.981247,0.813398 -1.57046,1.072431 -0.588922,0.259033 -1.226922,0.382451 -1.901801,0.382451 -0.67488,0 -1.312589,-0.135905 -1.901221,-0.394648 -0.6017,-0.259033 -1.116862,-0.604313 -1.57046,-1.060234 -0.441982,-0.444016 -0.798008,-0.962081 -1.055589,-1.553908 -0.257581,-0.604604 -0.392615,-1.245507 -0.392615,-1.923581 0,-0.666168 0.135034,-1.294584 0.392615,-1.899479 0.257581,-0.6040227 0.613607,-1.1217983 1.055589,-1.5783004 0.453598,-0.4434342 0.96876,-0.8014921 1.57046,-1.0599443 0.588632,-0.2593234 1.226341,-0.3949382 1.901221,-0.3949382 0.674879,0 1.312879,0.1231278 1.901801,0.3824511 l -1.901801,1.2699005 c -0.453889,0 -0.871188,0.086538 -1.275709,0.246546 -0.392905,0.1730758 -0.736153,0.4074252 -1.030614,0.7152447 -0.306658,0.2962036 -0.539846,0.6414846 -0.71176,1.0361316 -0.171914,0.406845 -0.257581,0.825886 -0.257581,1.282388 0,0.456211 0.08567,0.875543 0.257581,1.282387 0.171914,0.394358 0.405102,0.739638 0.699273,1.035551 0.294461,0.308691 0.63829,0.54275 1.043101,0.715535 0.392615,0.160299 0.82182,0.246546 1.275709,0.246546 0.883674,0 1.656707,-0.308109 2.306613,-0.949594 M 44.44565,7.0431811 h 6.539421 V 8.6955327 H 46.077383 L 44.46046,7.0431811 Z m 1.631733,4.1064859 h 4.907688 v 1.639865 H 46.077383 44.44565 v -1.639865 z m 0,4.106195 h 4.907688 v 1.652352 H 44.44565 Z m -9.807244,0 h 3.263467 v 1.652352 h -4.907107 -1.567266 v -1.6509 h 1.567266 v -0.0015 -8.2126809 h 1.64364 z M 26.658621,8.4980636 c 0.969051,0.9498844 1.46011,2.1094344 1.46011,3.4777794 0,1.356148 -0.491059,2.515408 -1.46011,3.477489 -0.957144,0.9615 -2.098109,1.454882 -3.460065,1.454882 -1.361665,0 -2.514827,-0.493382 -3.459774,-1.454882 -0.956854,-0.962081 -1.447623,-2.121341 -1.447623,-3.477489 0,-1.368345 0.490769,-2.5154079 1.447623,-3.4777794 0.957434,-0.9615002 2.098109,-1.4548825 3.459774,-1.4548825 1.361956,0 2.502921,0.4933823 3.460065,1.4548825 m -0.196307,3.4777794 c 0,-0.900517 -0.306658,-1.677035 -0.956854,-2.3310067 -0.63829,-0.6409033 -1.411033,-0.9493036 -2.306904,-0.9493036 -0.89558,0 -1.68081,0.3084003 -2.31881,0.9493036 -0.637709,0.6414837 -0.944657,1.4304897 -0.944657,2.3310067 0,0.900227 0.306948,1.676745 0.944657,2.317938 0.650777,0.653972 1.42323,0.962081 2.31881,0.962081 0.895871,0 1.668614,-0.320596 2.306904,-0.962081 0.637709,-0.641193 0.956854,-1.417711 0.956854,-2.317938 m -13.174383,2.330425 1.165358,1.147064 c -0.453598,0.455921 -0.981247,0.813398 -1.57046,1.072431 -0.588922,0.259033 -1.226922,0.382451 -1.901511,0.382451 -0.67488,0 -1.3128791,-0.135905 -1.9015113,-0.394648 C 8.4783972,16.254533 7.9629448,15.909253 7.5090563,15.453332 7.0673644,15.009316 6.7116296,14.491251 6.454339,13.899424 6.1964676,13.29482 6.061724,12.653917 6.061724,11.975843 c 0,-0.666168 0.1347436,-1.294584 0.392615,-1.899479 C 6.7116296,9.4723413 7.0673644,8.9545657 7.5090563,8.4980636 7.9629448,8.0546294 8.4783972,7.6965715 9.0798067,7.4381193 9.6684389,7.1787959 10.306438,7.0431811 10.981318,7.0431811 c 0.674589,0 1.312589,0.1231278 1.901511,0.3824511 l -1.901511,1.2699005 c -0.453889,0 -0.871187,0.086538 -1.2759989,0.246546 C 9.3127041,9.1151545 8.969166,9.3495039 8.6749951,9.6573234 8.3680468,9.953527 8.1348591,10.298808 7.9629448,10.693455 c -0.1713335,0.406845 -0.257581,0.825886 -0.257581,1.282388 0,0.456211 0.086247,0.875543 0.257581,1.282387 0.1719143,0.394358 0.405102,0.739638 0.6998537,1.035551 0.2941708,0.308691 0.637709,0.54275 1.0425206,0.715535 0.3926149,0.160299 0.8221099,0.246546 1.2759989,0.246546 0.883384,0 1.656417,-0.308109 2.306613,-0.949594" /></g></svg>