<svg id="Group_239" data-name="Group 239" xmlns="http://www.w3.org/2000/svg" xmlns:xlink="http://www.w3.org/1999/xlink" width="266.983" height="389.271" viewBox="0 0 266.983 389.271">
  <defs>
    <clipPath id="clip-path">
      <path id="Clip_104" data-name="Clip 104" d="M0,389.192H266.983V0H0Z" fill="none"/>
    </clipPath>
  </defs>
  <path id="Fill_1" data-name="Fill 1" d="M154.957,159.983A81.729,81.729,0,0,0,128.119,99c-19.15-17.212-31.1-41.5-31.1-67.841V0H57.94V30.325c0,25.8-10.266,50.927-29.459,67.239A82.182,82.182,0,0,0,42.444,231.728v8.948h70.067v-8.714c25.184-13.323,42.445-40.547,42.445-71.979" transform="translate(19.129 148.095)" fill="#fff"/>
  <path id="Stroke_3" data-name="Stroke 3" d="M154.957,159.983A81.729,81.729,0,0,0,128.119,99c-19.15-17.212-31.1-41.5-31.1-67.841V0H57.94V30.325c0,25.8-10.266,50.927-29.459,67.239A82.182,82.182,0,0,0,42.444,231.728v8.948h70.067v-8.714C137.7,218.639,154.957,191.415,154.957,159.983Z" transform="translate(19.129 148.095)" fill="none" stroke="#274693" stroke-miterlimit="10" stroke-width="1"/>
  <path id="Fill_5" data-name="Fill 5" d="M110.141,139.672c6.106-.3,24.817-.32,30.864-1.221,6.223-.927,11.831-3.545,13.362-6.434s.45-8.794-2.55-10.1c-1.335-.58-2.939-.527-4.109-1.391-3.153-2.322-4-10.219,3.461-12.581,6.771-2.145,13.535-2.322,30.6-5.719,8.465-1.686,7.713-17.3.067-18.471-3.88-.593-6.977-6.074-5.5-10.052a13.9,13.9,0,0,1,8.007-8.165c2.846-1.043,6.85-2.142,6.838-8.113-.017-8.257-18.782-5.466-19.624-15.058-.537-6.113,4.728-9.18,7.591-11.153,4.743-3.27,5.986-7.245,5.1-12.937S180.849,5.6,150.91,2.375C116.765-1.306,68.6-.48,34.491,3.285,19.979,4.887,6.519,8.105,6.519,16.517c0,4.613,5.51,6.776,10.1,7.234S27.1,25.606,27.581,30.194c.371,3.506-3.083,6.323-6.507,7.16s-7.062.431-10.48,1.291c-9.168,2.309-13.747,15-8.163,22.63C9.708,71.219,25.123,68.241,36.7,72.453a5.411,5.411,0,0,1,2.8,1.846c1.27,1.926-.065,4.544-1.79,6.077-4.9,4.353-12.086,4.474-18.425,6.127S6.158,93.524,7.743,99.881c.761,3.052,3.34,5.349,6.138,6.783,11.971,6.138,22.071-.526,33.653,6.317a6.289,6.289,0,0,1,3.153,3.475c.916,3.43-3.12,6.082-6.6,6.8s-8.754,2.181-9.358,5.679c-1.172,6.772,3.966,7.539,9.364,8.855,7.692,1.878,38.371,1.878,38.371,1.878Z" transform="translate(1.732 8.423)" fill="#577dc9"/>
  <path id="Fill_7" data-name="Fill 7" d="M0,2.681V5.362H2.681V0H0Z" transform="translate(104.649 167.575)" fill="#577dc9"/>
  <path id="Fill_9" data-name="Fill 9" d="M0,2.681H2.681V0H0Z" transform="translate(99.288 167.575)" fill="#577dc9"/>
  <path id="Fill_11" data-name="Fill 11" d="M0,2.681H2.681V0H0Z" transform="translate(107.33 164.895)" fill="#577dc9"/>
  <path id="Fill_13" data-name="Fill 13" d="M0,0V2.681H5.361V0H0Z" transform="translate(83.204 172.937)" fill="#577dc9"/>
  <path id="Fill_15" data-name="Fill 15" d="M0,2.681H2.681V0H0Z" transform="translate(88.565 170.256)" fill="#577dc9"/>
  <path id="Fill_17" data-name="Fill 17" d="M0,2.68H2.681V0H0Z" transform="translate(93.927 175.618)" fill="#577dc9"/>
  <path id="Fill_19" data-name="Fill 19" d="M0,2.68H2.681V0H0Z" transform="translate(104.649 175.618)" fill="#577dc9"/>
  <path id="Fill_21" data-name="Fill 21" d="M0,2.68H2.681V0H0Z" transform="translate(88.565 175.618)" fill="#577dc9"/>
  <path id="Fill_23" data-name="Fill 23" d="M0,2.681H2.681V0H0Z" transform="translate(91.246 178.298)" fill="#577dc9"/>
  <path id="Fill_25" data-name="Fill 25" d="M0,2.681H2.681V0H0Z" transform="translate(99.288 178.298)" fill="#577dc9"/>
  <path id="Fill_27" data-name="Fill 27" d="M0,2.681H2.681V0H0Z" transform="translate(85.885 178.298)" fill="#577dc9"/>
  <path id="Fill_29" data-name="Fill 29" d="M2.681,2.681V0H0V5.362H5.362V2.681Z" transform="translate(93.926 167.575)" fill="#577dc9"/>
  <path id="Fill_31" data-name="Fill 31" d="M0,2.681H2.681V0H0Z" transform="translate(107.33 172.937)" fill="#577dc9"/>
  <path id="Fill_33" data-name="Fill 33" d="M2.681,0H0V2.681H5.362V0Z" transform="translate(99.288 172.937)" fill="#577dc9"/>
  <path id="Fill_35" data-name="Fill 35" d="M8.042,21.447H5.361V18.766H2.681V16.085h2.68V13.4h5.36V8.042H5.361V13.4H0V0H32.167V13.4h-5.36v2.681H24.125v2.681h-2.68V16.085H16.084V13.4H13.4v2.681H8.042v5.361ZM18.764,5.361V8.042h5.361V5.361Z" transform="translate(80.524 148.81)" fill="#577dc9"/>
  <path id="Fill_37" data-name="Fill 37" d="M.82,49.127C-5.514,13.583,26.945,0,26.945,0c-4.526,5.749-4.069,20.772-2.228,27.853,1.716,6.6,5.324,13.848,14.618,16.708s24.649-3.2,33.884-8.646S91.3,24.021,101.541,20.863a48.228,48.228,0,0,1,17.9-1.99c8.156.633,15.939,2.78,20.465,9.594,3.125,4.707,4.466,15.5,3.227,21.009,0,0-10.391,52.989-71.165,52.989C10.98,102.466.82,49.127.82,49.127" transform="translate(24.984 277.25)" fill="#ef5b34"/>
  <path id="Stroke_39" data-name="Stroke 39" d="M4.925,2.463A2.462,2.462,0,1,1,2.462,0,2.463,2.463,0,0,1,4.925,2.463Z" transform="translate(104.03 189.347)" fill="none" stroke="#577dc9" stroke-miterlimit="10" stroke-width="1"/>
  <path id="Stroke_41" data-name="Stroke 41" d="M6.566,3.283A3.283,3.283,0,1,1,3.283,0,3.283,3.283,0,0,1,6.566,3.283Z" transform="translate(76.776 122.859)" fill="none" stroke="#132663" stroke-miterlimit="10" stroke-width="1.697"/>
  <path id="Stroke_43" data-name="Stroke 43" d="M6.567,3.283A3.284,3.284,0,1,1,3.284,0,3.283,3.283,0,0,1,6.567,3.283Z" transform="translate(163.299 93.459)" fill="none" stroke="#132663" stroke-miterlimit="10" stroke-width="1.697"/>
  <path id="Stroke_45" data-name="Stroke 45" d="M6.566,3.283A3.283,3.283,0,1,1,3.283,0,3.283,3.283,0,0,1,6.566,3.283Z" transform="translate(79.635 213.687)" fill="none" stroke="#577dc9" stroke-miterlimit="10" stroke-width="1"/>
  <path id="Stroke_47" data-name="Stroke 47" d="M4.926,2.462A2.463,2.463,0,1,1,2.463,0,2.463,2.463,0,0,1,4.926,2.462Z" transform="translate(56.509 252.869)" fill="none" stroke="#ef5b34" stroke-miterlimit="10" stroke-width="1"/>
  <path id="Stroke_49" data-name="Stroke 49" d="M4.926,2.463A2.463,2.463,0,1,1,2.463,0,2.462,2.462,0,0,1,4.926,2.463Z" transform="translate(103.32 254.529)" fill="none" stroke="#ef5b34" stroke-miterlimit="10" stroke-width="1"/>
  <path id="Stroke_51" data-name="Stroke 51" d="M0,2.578A2.577,2.577,0,1,0,2.577,0,2.577,2.577,0,0,0,0,2.578Z" transform="translate(126.767 318.23)" fill="none" stroke="#fff" stroke-miterlimit="10" stroke-width="1"/>
  <path id="Stroke_53" data-name="Stroke 53" d="M4.926,2.462A2.463,2.463,0,1,1,2.463,0,2.463,2.463,0,0,1,4.926,2.462Z" transform="translate(121.372 275.255)" fill="none" stroke="#ef5b34" stroke-miterlimit="10" stroke-width="1"/>
  <path id="Stroke_55" data-name="Stroke 55" d="M0,2.578A2.577,2.577,0,1,0,2.577,0,2.577,2.577,0,0,0,0,2.578Z" transform="translate(81.704 336.227)" fill="none" stroke="#fff" stroke-miterlimit="10" stroke-width="1"/>
  <path id="Stroke_57" data-name="Stroke 57" d="M0,2.578A2.577,2.577,0,1,0,2.577,0,2.577,2.577,0,0,0,0,2.578Z" transform="translate(85.163 360.061)" fill="none" stroke="#fff" stroke-miterlimit="10" stroke-width="1"/>
  <path id="Stroke_59" data-name="Stroke 59" d="M0,2.578A2.577,2.577,0,1,0,2.577,0,2.577,2.577,0,0,0,0,2.578Z" transform="translate(137.73 330.786)" fill="none" stroke="#fff" stroke-miterlimit="10" stroke-width="1"/>
  <path id="Stroke_61" data-name="Stroke 61" d="M0,2.578A2.577,2.577,0,1,0,2.577,0,2.577,2.577,0,0,0,0,2.578Z" transform="translate(149.949 312.692)" fill="none" stroke="#fff" stroke-miterlimit="10" stroke-width="1"/>
  <path id="Stroke_63" data-name="Stroke 63" d="M0,2.578A2.577,2.577,0,1,0,2.577,0,2.577,2.577,0,0,0,0,2.578Z" transform="translate(47.893 337.602)" fill="none" stroke="#fff" stroke-miterlimit="10" stroke-width="1"/>
  <path id="Stroke_65" data-name="Stroke 65" d="M6.566,3.283A3.283,3.283,0,1,1,3.283,0,3.283,3.283,0,0,1,6.566,3.283Z" transform="translate(123.835 236.769)" fill="none" stroke="#ffa573" stroke-miterlimit="10" stroke-width="1"/>
  <path id="Stroke_67" data-name="Stroke 67" d="M0,.421H5.472" transform="translate(81.142 189.614)" fill="none" stroke="#274693" stroke-miterlimit="10" stroke-width="1"/>
  <path id="Stroke_69" data-name="Stroke 69" d="M.421,0V5.473" transform="translate(83.458 187.298)" fill="none" stroke="#274693" stroke-miterlimit="10" stroke-width="1"/>
  <path id="Stroke_71" data-name="Stroke 71" d="M0,.421H5.473" transform="translate(145.306 287.601)" fill="none" stroke="#ffa573" stroke-miterlimit="10" stroke-width="1"/>
  <path id="Stroke_73" data-name="Stroke 73" d="M.421,0V5.473" transform="translate(147.622 285.286)" fill="none" stroke="#ffa573" stroke-miterlimit="10" stroke-width="1"/>
  <path id="Stroke_75" data-name="Stroke 75" d="M0,.421H5.473" transform="translate(86.235 236.348)" fill="none" stroke="#ffa573" stroke-miterlimit="10" stroke-width="1"/>
  <path id="Stroke_77" data-name="Stroke 77" d="M.421,0V5.473" transform="translate(88.551 234.033)" fill="none" stroke="#ffa573" stroke-miterlimit="10" stroke-width="1"/>
  <path id="Stroke_79" data-name="Stroke 79" d="M0,.421H5.472" transform="translate(98.477 287.601)" fill="none" stroke="#ffa573" stroke-miterlimit="10" stroke-width="1"/>
  <path id="Stroke_81" data-name="Stroke 81" d="M.421,0V5.473" transform="translate(100.792 285.286)" fill="none" stroke="#ffa573" stroke-miterlimit="10" stroke-width="1"/>
  <path id="Stroke_83" data-name="Stroke 83" d="M0,.421H5.473" transform="translate(110.83 207.33)" fill="none" stroke="#274693" stroke-miterlimit="10" stroke-width="1"/>
  <path id="Stroke_85" data-name="Stroke 85" d="M.421,0V5.473" transform="translate(113.145 205.015)" fill="none" stroke="#274693" stroke-miterlimit="10" stroke-width="1"/>
  <path id="Stroke_87" data-name="Stroke 87" d="M0,.421H7.3" transform="translate(42.787 96.321)" fill="none" stroke="#274693" stroke-miterlimit="10" stroke-width="1.697"/>
  <path id="Stroke_89" data-name="Stroke 89" d="M.421,0V7.3" transform="translate(46.014 93.094)" fill="none" stroke="#274693" stroke-miterlimit="10" stroke-width="1.697"/>
  <path id="Stroke_91" data-name="Stroke 91" d="M0,.421H7.3" transform="translate(161.687 32.834)" fill="none" stroke="#274693" stroke-miterlimit="10" stroke-width="1.697"/>
  <path id="Stroke_93" data-name="Stroke 93" d="M.421,0V7.3" transform="translate(164.914 29.606)" fill="none" stroke="#274693" stroke-miterlimit="10" stroke-width="1.697"/>
  <path id="Stroke_95" data-name="Stroke 95" d="M0,.421H7.3" transform="translate(138.868 111.29)" fill="none" stroke="#274693" stroke-miterlimit="10" stroke-width="1.697"/>
  <path id="Stroke_97" data-name="Stroke 97" d="M.421,0V7.3" transform="translate(142.096 108.063)" fill="none" stroke="#274693" stroke-miterlimit="10" stroke-width="1.697"/>
  <path id="Stroke_99" data-name="Stroke 99" d="M0,.421H7.3" transform="translate(17.027 59.029)" fill="none" stroke="#274693" stroke-miterlimit="10" stroke-width="1.697"/>
  <path id="Stroke_101" data-name="Stroke 101" d="M.421,0V7.3" transform="translate(20.254 55.801)" fill="none" stroke="#274693" stroke-miterlimit="10" stroke-width="1.697"/>
  <path id="Clip_104-2" data-name="Clip 104" d="M0,389.192H266.983V0H0Z" fill="none"/>
  <g id="Group_239-2" data-name="Group 239" clip-path="url(#clip-path)">
    <path id="Fill_103" data-name="Fill 103" d="M0,2.681H2.681V0H0Z" transform="translate(108.294 141.869)" fill="#274693"/>
    <path id="Fill_105" data-name="Fill 105" d="M0,2.011H2.011V0H0Z" transform="translate(89.396 195.553)" fill="#274693"/>
    <path id="Fill_106" data-name="Fill 106" d="M0,2.681H2.681V0H0Z" transform="translate(132.241 126.142)" fill="#577dc9"/>
    <path id="Fill_107" data-name="Fill 107" d="M0,2.011H2.011V0H0Z" transform="translate(101.548 219.717)" fill="#577dc9"/>
    <path id="Fill_108" data-name="Fill 108" d="M0,2.681H2.681V0H0Z" transform="translate(69.693 106.722)" fill="#577dc9"/>
    <path id="Fill_109" data-name="Fill 109" d="M0,2.681H2.681V0H0Z" transform="translate(85.819 48.742)" fill="#577dc9"/>
    <path id="Fill_110" data-name="Fill 110" d="M0,2.681H2.681V0H0Z" transform="translate(112.958 90.413)" fill="#577dc9"/>
    <path id="Fill_111" data-name="Fill 111" d="M0,2.681H2.681V0H0Z" transform="translate(62.545 139.01)" fill="#577dc9"/>
    <path id="Fill_112" data-name="Fill 112" d="M0,2.681H2.681V0H0Z" transform="translate(154.757 75.578)" fill="#577dc9"/>
    <path id="Fill_113" data-name="Fill 113" d="M0,2.011H2.011V0H0Z" transform="translate(67.348 231.382)" fill="#577dc9"/>
    <path id="Fill_114" data-name="Fill 114" d="M0,2.011H2.011V0H0Z" transform="translate(115.982 226.448)" fill="#ffa573"/>
    <path id="Fill_115" data-name="Fill 115" d="M0,2.011H2.011V0H0Z" transform="translate(73.615 265.268)" fill="#ffa573"/>
    <path id="Fill_116" data-name="Fill 116" d="M0,2.011H2.011V0H0Z" transform="translate(61.541 311.481)" fill="#ffa573"/>
    <path id="Fill_117" data-name="Fill 117" d="M0,2.1H2.1V0H0Z" transform="translate(66.918 355.542)" fill="#fff"/>
    <path id="Fill_118" data-name="Fill 118" d="M0,2.1H2.1V0H0Z" transform="translate(102.414 354.49)" fill="#fff"/>
    <path id="Fill_119" data-name="Fill 119" d="M0,2.1H2.1V0H0Z" transform="translate(126.767 343.668)" fill="#fff"/>
    <path id="Fill_120" data-name="Fill 120" d="M0,2.1H2.1V0H0Z" transform="translate(139.254 348.017)" fill="#fff"/>
    <path id="Fill_121" data-name="Fill 121" d="M0,2.1H2.1V0H0Z" transform="translate(157.036 339.44)" fill="#fff"/>
    <path id="Fill_122" data-name="Fill 122" d="M0,2.1H2.1V0H0Z" transform="translate(102.414 370.761)" fill="#fff"/>
    <path id="Fill_123" data-name="Fill 123" d="M0,2.1H2.1V0H0Z" transform="translate(132.887 360.311)" fill="#fff"/>
    <path id="Fill_124" data-name="Fill 124" d="M0,2.1H2.1V0H0Z" transform="translate(128.292 303.173)" fill="#fff"/>
    <path id="Fill_125" data-name="Fill 125" d="M0,2.1H2.1V0H0Z" transform="translate(45.035 313.166)" fill="#fff"/>
    <path id="Fill_126" data-name="Fill 126" d="M0,2.1H2.1V0H0Z" transform="translate(47.013 352.96)" fill="#fff"/>
    <path id="Fill_127" data-name="Fill 127" d="M0,2.1H2.1V0H0Z" transform="translate(36.263 329.734)" fill="#fff"/>
    <path id="Fill_128" data-name="Fill 128" d="M0,2.1H2.1V0H0Z" transform="translate(99.258 323.384)" fill="#fff"/>
    <path id="Fill_129" data-name="Fill 129" d="M0,2.011H2.011V0H0Z" transform="translate(66.007 246.906)" fill="#ef5b34"/>
    <path id="Fill_130" data-name="Fill 130" d="M0,2.011H2.011V0H0Z" transform="translate(117.322 252.702)" fill="#ef5b34"/>
    <path id="Fill_131" data-name="Fill 131" d="M0,2.011H2.011V0H0Z" transform="translate(64.221 290.665)" fill="#ef5b34"/>
    <path id="Fill_132" data-name="Fill 132" d="M0,2.011H2.011V0H0Z" transform="translate(109.445 298.046)" fill="#ef5b34"/>
    <path id="Fill_133" data-name="Fill 133" d="M0,2.011H2.011V0H0Z" transform="translate(36.309 273.428)" fill="#ef5b34"/>
    <path id="Fill_134" data-name="Fill 134" d="M0,2.011H2.011V0H0Z" transform="translate(81.824 227.044)" fill="#ef5b34"/>
    <path id="Fill_135" data-name="Fill 135" d="M0,2.011H2.011V0H0Z" transform="translate(138.609 263.928)" fill="#ffa573"/>
    <path id="Fill_136" data-name="Fill 136" d="M10.363,27.733H10.35c-.539-.121-1.067-.256-1.625-.4l-.53-.135.376-1.526,0-.008,0-.011c.2-.8.391-1.587.589-2.4l-.447-.121c-.44-.12-.856-.233-1.279-.32H7.426c-.088,0-.269.177-.3.3-.269,1.007-.552,2.088-.8,3.172-.059.265-.143.363-.31.363a.866.866,0,0,1-.242-.045c-.429-.13-.864-.233-1.324-.342-.194-.046-.392-.093-.594-.143l.54-2.2L4.4,23.9l.439-1.788-3.351-.851L0,20.878l.571-1.325.6-1.384.52.128.024.006,1,.244a2.016,2.016,0,0,0,.475.066c.484,0,.768-.273.921-.886.772-3.08,1.592-6.369,2.579-10.349A1.226,1.226,0,0,0,5.817,5.8c-.238-.085-.488-.15-.729-.213L4.87,5.526c-.233-.063-.47-.122-.72-.185l-.269-.068.256-1.022.007-.027.368-1.468,1.259.315c.984.247,1.913.481,2.865.7.149.035.266.069.36.1a1.091,1.091,0,0,0,.258.058c.127,0,.152-.1.236-.448.018-.074.039-.159.064-.255.184-.713.358-1.416.543-2.161Q10.228.54,10.363,0L10.8.107c.605.147,1.176.286,1.75.45.059.016.107.274.076.406-.188.8-.39,1.609-.586,2.391q-.1.415-.207.829c-.011.045-.017.09-.026.153-.005.036-.011.078-.019.128l.7.169.012,0,1.236.3.426-1.7L14.7,1.083l2.363.582-.013.055c-.21.86-.41,1.68-.61,2.5-.024.1-.046.2-.068.3a4.736,4.736,0,0,1-.189.7.443.443,0,0,0-.028.346c.05.109.173.172.343.232a9.437,9.437,0,0,1,3.049,1.674,3.878,3.878,0,0,1,1.309,4.045,3.77,3.77,0,0,1-2.8,3.119.236.236,0,0,0-.077.047c-.021.016-.046.035-.079.057l.245.15c.159.1.308.187.452.286a3.87,3.87,0,0,1,1.708,4.45,9.386,9.386,0,0,1-.962,2.348,4.2,4.2,0,0,1-3.665,2.084c-.206.007-.424.011-.649.011-.719,0-1.43-.036-2.183-.074-.429-.022-.871-.044-1.316-.059-.154.609-.328,1.3-.507,2.006l-.127.5c-.026.1-.05.2-.075.308-.061.257-.125.522-.206.777A.376.376,0,0,1,10.363,27.733Zm-1.047-13.2-.922,3.707-.406,1.636a17.913,17.913,0,0,0,4.563.8c.163,0,.327,0,.485-.013a2.674,2.674,0,0,0,1.931-.837,2.359,2.359,0,0,0,.527-1.787,2.424,2.424,0,0,0-1.362-1.89A13.411,13.411,0,0,0,9.872,14.66l-.411-.1-.015,0-.13-.03ZM11.129,7.26l-.475,1.9-.022.089-.23.923,0,.008-.486,1.948.229.059.2.051a12.678,12.678,0,0,0,3.177.546,6.029,6.029,0,0,0,.728-.044,2.149,2.149,0,0,0,1.933-1.558,2,2,0,0,0-.8-2.335,7.654,7.654,0,0,0-1.78-.915,16.56,16.56,0,0,0-1.663-.473l-.027-.007C11.67,7.4,11.4,7.332,11.129,7.26Z" transform="translate(42.786 34.877)" fill="#fff"/>
    <path id="Fill_137" data-name="Fill 137" d="M0,10.8,6.846,0V14.911Z" transform="translate(88.331 20.626)" fill="#fff"/>
    <path id="Fill_138" data-name="Fill 138" d="M0,0,6.846,9.724V3.8Z" transform="translate(88.331 33.255)" fill="#fff"/>
    <path id="Fill_139" data-name="Fill 139" d="M6.846,10.8,0,0V14.911Z" transform="translate(96.546 20.626)" fill="#fff"/>
    <path id="Fill_140" data-name="Fill 140" d="M6.846,0,0,9.724V3.8Z" transform="translate(96.546 33.255)" fill="#fff"/>
    <path id="Fill_141" data-name="Fill 141" d="M3.543,0c1,1.732,1.885,3.413,2.929,4.987A2.763,2.763,0,0,1,6.72,7.723c-.656,1.84-1.2,3.72-1.807,5.639-.818,0-1.638.013-2.458-.014a.519.519,0,0,1-.362-.3Q1.041,9.784.028,6.512a.639.639,0,0,1,.03-.457C1.189,4.072,2.333,2.1,3.543,0" transform="translate(106.209 112.805)" fill="#fff"/>
    <path id="Fill_142" data-name="Fill 142" d="M3.55,10.85C2.48,8.994,1.5,7.254.477,5.544A3.154,3.154,0,0,1,0,3.739C.04,2.546.013,1.349.013.155.074.1.134.051.2,0A1.9,1.9,0,0,0,.354.377c1.4,2.011,2.824,4.011,4.21,6.034a1.1,1.1,0,0,1,.12.823C4.352,8.4,3.964,9.55,3.55,10.85" transform="translate(110.186 107.008)" fill="#fff"/>
    <path id="Fill_143" data-name="Fill 143" d="M4.74,0c0,1.557,0,3.053-.006,4.547a.771.771,0,0,1-.128.342q-1.592,2.753-3.191,5.5a3.409,3.409,0,0,1-.22.286C.784,9.382.387,8.15.014,6.913a.586.586,0,0,1,.093-.441Q2.31,3.3,4.537.142C4.567.1,4.626.078,4.74,0" transform="translate(104.561 107.084)" fill="#fff"/>
    <path id="Fill_144" data-name="Fill 144" d="M0,6.425C.67,4.3,1.322,2.234,2.027,0c1.279,2.209,2.479,4.28,3.72,6.425Z" transform="translate(111.976 119.755)" fill="#fff"/>
    <path id="Fill_145" data-name="Fill 145" d="M0,6.385,3.684,0,5.708,6.385Z" transform="translate(101.821 119.786)" fill="#fff"/>
    <path id="Fill_146" data-name="Fill 146" d="M0,4.086C.435,2.7.813,1.47,1.216.248A.48.48,0,0,1,1.579.006C3.217-.01,4.856,0,6.538.133L0,4.086" transform="translate(110.45 127.075)" fill="#fff"/>
    <path id="Fill_147" data-name="Fill 147" d="M6.56,4.088,0,.106A2.3,2.3,0,0,1,.394.015C1.857.008,3.32.016,4.784,0c.33,0,.526.071.63.425.343,1.161.72,2.312,1.146,3.663" transform="translate(102.502 127.07)" fill="#fff"/>
    <path id="Fill_148" data-name="Fill 148" d="M1.131,0Q2.137,4.43,3.142,8.855l-.09.047c-.183-.3-.371-.6-.547-.9C1.752,6.7,1.017,5.4.246,4.109A1.345,1.345,0,0,1,.095,2.843C.435,1.909.705.949,1.006,0l.125,0" transform="translate(114.382 115.398)" fill="#fff"/>
    <path id="Fill_149" data-name="Fill 149" d="M0,8.584Q.974,4.3,1.946.013L2.078,0c.344,1.083.693,2.165,1.023,3.253a.594.594,0,0,1-.089.4Q1.589,6.146.149,8.625L0,8.584" transform="translate(102.054 115.466)" fill="#fff"/>
    <path id="Fill_150" data-name="Fill 150" d="M2.358,0c-.379,1.326-.745,2.6-1.109,3.881l-.13.013C.753,2.617.385,1.339,0,0Z" transform="translate(108.578 127.11)" fill="#fff"/>
    <path id="Fill_151" data-name="Fill 151" d="M3.245,1.622A1.623,1.623,0,1,1,1.622,0,1.622,1.622,0,0,1,3.245,1.622" transform="translate(131.25 75.168)" fill="#fff"/>
    <path id="Fill_152" data-name="Fill 152" d="M1.908.954A.954.954,0,1,1,.954,0a.954.954,0,0,1,.953.954" transform="translate(133.996 72.209)" fill="#fff"/>
    <path id="Fill_153" data-name="Fill 153" d="M1.908.954A.954.954,0,1,1,.954,0a.954.954,0,0,1,.953.954" transform="translate(133.996 86.548)" fill="#fff"/>
    <path id="Fill_154" data-name="Fill 154" d="M1.426,1.783a.954.954,0,1,1,.357-1.3.953.953,0,0,1-.357,1.3" transform="translate(140.226 75.83)" fill="#fff"/>
    <path id="Fill_155" data-name="Fill 155" d="M1.426,1.783a.954.954,0,1,1,.357-1.3.953.953,0,0,1-.357,1.3" transform="translate(127.766 82.925)" fill="#fff"/>
    <path id="Fill_156" data-name="Fill 156" d="M.482,1.783A.954.954,0,1,0,.125.482a.953.953,0,0,0,.357,1.3" transform="translate(127.767 75.83)" fill="#fff"/>
    <path id="Fill_157" data-name="Fill 157" d="M.482,1.783A.954.954,0,1,0,.125.482a.954.954,0,0,0,.357,1.3" transform="translate(129.343 71.391)" fill="#fff"/>
    <path id="Fill_158" data-name="Fill 158" d="M.482,1.783A.954.954,0,1,0,.125.482a.954.954,0,0,0,.357,1.3" transform="translate(138.661 71.391)" fill="#fff"/>
    <path id="Fill_159" data-name="Fill 159" d="M.482,1.783A.954.954,0,1,0,.125.482a.954.954,0,0,0,.357,1.3" transform="translate(129.343 87.501)" fill="#fff"/>
    <path id="Fill_160" data-name="Fill 160" d="M.482,1.783A.954.954,0,1,0,.125.482a.954.954,0,0,0,.357,1.3" transform="translate(138.661 87.501)" fill="#fff"/>
    <path id="Fill_161" data-name="Fill 161" d="M.482,1.783A.954.954,0,1,0,.125.482a.953.953,0,0,0,.357,1.3" transform="translate(140.226 82.925)" fill="#fff"/>
    <path id="Fill_162" data-name="Fill 162" d="M.953,1.908A.954.954,0,1,1,1.908.954a.954.954,0,0,1-.954.954" transform="translate(143.369 79.377)" fill="#fff"/>
    <path id="Fill_163" data-name="Fill 163" d="M.953,1.908A.954.954,0,1,1,1.907.954a.954.954,0,0,1-.953.954" transform="translate(124.623 79.377)" fill="#fff"/>
    <path id="Fill_164" data-name="Fill 164" d="M.477.954A.477.477,0,1,1,.953.477.477.477,0,0,1,.477.954" transform="translate(121.729 79.855)" fill="#fff"/>
    <path id="Fill_165" data-name="Fill 165" d="M.477.954A.477.477,0,1,1,.953.477.477.477,0,0,1,.477.954" transform="translate(147.16 79.855)" fill="#fff"/>
    <path id="Fill_166" data-name="Fill 166" d="M0,.477A.477.477,0,1,1,.477.954.477.477,0,0,1,0,.477" transform="translate(134.445 68.191)" fill="#fff"/>
    <path id="Fill_167" data-name="Fill 167" d="M0,.477A.477.477,0,1,1,.477.954.477.477,0,0,1,0,.477" transform="translate(134.445 91.519)" fill="#fff"/>
    <path id="Fill_168" data-name="Fill 168" d="M.065.717A.477.477,0,1,1,.717.889.478.478,0,0,1,.065.717" transform="translate(128.092 68.826)" fill="#fff"/>
    <path id="Fill_169" data-name="Fill 169" d="M.065.717A.477.477,0,1,1,.717.889.477.477,0,0,1,.065.717" transform="translate(140.798 90.741)" fill="#fff"/>
    <path id="Fill_170" data-name="Fill 170" d="M.889.717A.477.477,0,1,0,.237.889.477.477,0,0,0,.889.717" transform="translate(140.798 68.826)" fill="#fff"/>
    <path id="Fill_171" data-name="Fill 171" d="M.889.717A.477.477,0,1,0,.237.889.477.477,0,0,0,.889.717" transform="translate(128.091 90.741)" fill="#fff"/>
    <path id="Fill_172" data-name="Fill 172" d="M.24.891A.477.477,0,1,1,.89.714.477.477,0,0,1,.24.891" transform="translate(124.322 74.062)" fill="#fff"/>
    <path id="Fill_173" data-name="Fill 173" d="M.24.891A.477.477,0,1,1,.89.714.477.477,0,0,1,.24.891" transform="translate(144.568 85.648)" fill="#fff"/>
    <path id="Fill_174" data-name="Fill 174" d="M.24.063A.477.477,0,1,0,.89.24.477.477,0,0,0,.24.063" transform="translate(124.322 85.648)" fill="#fff"/>
    <path id="Fill_175" data-name="Fill 175" d="M.24.063A.477.477,0,1,0,.89.24.477.477,0,0,0,.24.063" transform="translate(144.568 74.062)" fill="#fff"/>
    <path id="Fill_176" data-name="Fill 176" d="M3.244,1.622A1.622,1.622,0,1,1,1.622,0,1.622,1.622,0,0,1,3.244,1.622" transform="translate(129.145 78.764)" fill="#fff"/>
    <path id="Fill_177" data-name="Fill 177" d="M3.245,1.622A1.623,1.623,0,1,1,1.622,0,1.622,1.622,0,0,1,3.245,1.622" transform="translate(135.416 75.168)" fill="#fff"/>
    <path id="Fill_178" data-name="Fill 178" d="M3.245,1.622A1.623,1.623,0,1,1,1.622,0,1.623,1.623,0,0,1,3.245,1.622" transform="translate(137.52 78.764)" fill="#fff"/>
    <path id="Fill_179" data-name="Fill 179" d="M3.245,1.622A1.623,1.623,0,1,1,1.622,0,1.622,1.622,0,0,1,3.245,1.622" transform="translate(131.25 82.36)" fill="#fff"/>
    <path id="Fill_180" data-name="Fill 180" d="M3.245,1.622A1.623,1.623,0,1,1,1.622,0,1.622,1.622,0,0,1,3.245,1.622" transform="translate(135.416 82.36)" fill="#fff"/>
    <path id="Fill_181" data-name="Fill 181" d="M16.331,24.8v0c-.059-.172-1.448-4.212-2.631-4.879a1.611,1.611,0,0,1-1.244.8,1.559,1.559,0,0,1-.947-.373s0,0-.005.011a14.126,14.126,0,0,1-1.458,2.118c-.817.972-2.077,2.13-3.436,2.13a2.549,2.549,0,0,1-1.388-.426,2.507,2.507,0,0,1-1.169-1.727C3.635,20.1,6.041,16.9,6.065,16.864a1.435,1.435,0,0,1-.809-.91A1.749,1.749,0,0,1,5.533,14.7a5.76,5.76,0,0,0-2.922-.478c-1.339,0-2.6.133-2.611.134A9.567,9.567,0,0,1,4.312,10.5,8.415,8.415,0,0,1,7.6,9.788c.264,0,.419.017.42.017s.006-.014.018-.037c.468-.933,2.081-4.119,3.176-5.957a8.219,8.219,0,0,1,3.992-2.679A15.912,15.912,0,0,1,20.459,0c.076,0,.152,0,.224,0C21.908,2.438,22.639,8.09,21.2,10.2c-1.377,2.012-4.074,5.38-4.1,5.413a7.752,7.752,0,0,1,.854,2.716A9.394,9.394,0,0,1,16.333,24.8ZM15.619,5.549a2.377,2.377,0,1,0,1.279.375A2.368,2.368,0,0,0,15.619,5.549Z" transform="translate(61.38 74.201)" fill="#fff"/>
    <path id="Fill_182" data-name="Fill 182" d="M0,13.159V0L6.865,3.243V16.719Z" transform="translate(125.755 40.374)" fill="#fff"/>
    <path id="Fill_183" data-name="Fill 183" d="M0,3.56,9.915,0l6.674,3.178L6.737,6.865Z" transform="translate(126.328 34.877)" fill="#fff"/>
    <path id="Fill_184" data-name="Fill 184" d="M0,2.861,7.119,0V13.667L0,10.806Z" transform="translate(136.116 39.739)" fill="#fff"/>
    <path id="Stroke_185" data-name="Stroke 185" d="M0,8.155l5.14-2.8L2.759,0" transform="translate(24.347 247.406)" fill="none" stroke="#fff" stroke-miterlimit="10" stroke-width="1"/>
    <path id="Stroke_186" data-name="Stroke 186" d="M1.64.227Q.811.4,0,.615" transform="translate(38.428 125.503)" fill="none" stroke="#fff" stroke-miterlimit="10" stroke-width="1"/>
    <path id="Stroke_187" data-name="Stroke 187" d="M34.821,0C9.773,9.3-.251,46.439,12.6,65.625c13.907,20.761,28.766,23.782,33.93,8.519,6.886-20.351-22.576-28.736-39.649-2.717-14.5,22.093-4.426,42.5,14.753,51.46" transform="translate(0.421 127.127)" fill="none" stroke="#fff" stroke-miterlimit="10" stroke-width="1" stroke-dasharray="3.965 3.965"/>
    <path id="Stroke_188" data-name="Stroke 188" d="M0,.105Q.772.434,1.562.737" transform="translate(23.574 250.585)" fill="none" stroke="#fff" stroke-miterlimit="10" stroke-width="1"/>
    <path id="Stroke_189" data-name="Stroke 189" d="M0,0,3.954,23.424" transform="translate(46.088 314.217)" fill="none" stroke="#fff" stroke-miterlimit="10" stroke-width="1"/>
    <path id="Stroke_190" data-name="Stroke 190" d="M0,1.376,28.657,0" transform="translate(53.047 338.804)" fill="none" stroke="#fff" stroke-miterlimit="10" stroke-width="1"/>
    <path id="Stroke_191" data-name="Stroke 191" d="M0,1.241,15.624,15.9,30.2,0" transform="translate(52.345 340.698)" fill="none" stroke="#fff" stroke-miterlimit="10" stroke-width="1"/>
    <path id="Stroke_192" data-name="Stroke 192" d="M0,15.965,14.118,3.31,40.6,0" transform="translate(86.192 321.126)" fill="none" stroke="#fff" stroke-miterlimit="10" stroke-width="1"/>
    <path id="Stroke_193" data-name="Stroke 193" d="M41.6,4.229,17.252,15.05,0,0" transform="translate(86.214 340.492)" fill="none" stroke="#fff" stroke-miterlimit="10" stroke-width="1"/>
    <path id="Stroke_194" data-name="Stroke 194" d="M0,37.144l13.382-6.039L10.226,0,47.71,8.366" transform="translate(90.085 324.436)" fill="none" stroke="#fff" stroke-miterlimit="10" stroke-width="1"/>
    <path id="Stroke_195" data-name="Stroke 195" d="M0,0,11.062,7.9" transform="translate(37.315 330.786)" fill="none" stroke="#fff" stroke-miterlimit="10" stroke-width="1"/>
    <path id="Stroke_196" data-name="Stroke 196" d="M0,11.369,1.977,0" transform="translate(48.065 342.643)" fill="none" stroke="#fff" stroke-miterlimit="10" stroke-width="1"/>
    <path id="Stroke_197" data-name="Stroke 197" d="M0,16.27V0L30.473,5.821" transform="translate(103.466 355.542)" fill="none" stroke="#fff" stroke-miterlimit="10" stroke-width="1"/>
    <path id="Stroke_198" data-name="Stroke 198" d="M.421,0V14" transform="translate(128.923 304.225)" fill="none" stroke="#fff" stroke-miterlimit="10" stroke-width="1"/>
    <path id="Stroke_199" data-name="Stroke 199" d="M0,4.342,18.176,0" transform="translate(131.849 315.867)" fill="none" stroke="#fff" stroke-miterlimit="10" stroke-width="1"/>
    <path id="Stroke_200" data-name="Stroke 200" d="M.421,0V13.129" transform="translate(139.886 335.94)" fill="none" stroke="#fff" stroke-miterlimit="10" stroke-width="0.666"/>
    <path id="Stroke_201" data-name="Stroke 201" d="M0,0,15.39,6.17" transform="translate(142.698 334.322)" fill="none" stroke="#fff" stroke-miterlimit="10" stroke-width="1"/>
    <path id="Stroke_202" data-name="Stroke 202" d="M.421,0V162.794" transform="translate(158.305 225.977)" fill="none" stroke="#274693" stroke-miterlimit="10" stroke-width="1"/>
    <path id="Stroke_203" data-name="Stroke 203" d="M.421,0V162.794" transform="translate(182.055 225.977)" fill="none" stroke="#274693" stroke-miterlimit="10" stroke-width="1"/>
    <path id="Stroke_204" data-name="Stroke 204" d="M0,.421H23.75" transform="translate(158.726 237.538)" fill="none" stroke="#274693" stroke-miterlimit="10" stroke-width="1"/>
    <path id="Stroke_205" data-name="Stroke 205" d="M0,.421H23.75" transform="translate(158.726 255.167)" fill="none" stroke="#274693" stroke-miterlimit="10" stroke-width="1"/>
    <path id="Stroke_206" data-name="Stroke 206" d="M0,.421H23.75" transform="translate(158.726 272.796)" fill="none" stroke="#274693" stroke-miterlimit="10" stroke-width="1"/>
    <path id="Stroke_207" data-name="Stroke 207" d="M0,.421H23.75" transform="translate(158.726 290.426)" fill="none" stroke="#274693" stroke-miterlimit="10" stroke-width="1"/>
    <path id="Stroke_208" data-name="Stroke 208" d="M0,.421H23.75" transform="translate(158.726 308.055)" fill="none" stroke="#274693" stroke-miterlimit="10" stroke-width="1"/>
    <path id="Stroke_209" data-name="Stroke 209" d="M0,.421H23.75" transform="translate(158.726 325.684)" fill="none" stroke="#274693" stroke-miterlimit="10" stroke-width="1"/>
    <path id="Stroke_210" data-name="Stroke 210" d="M0,.421H23.75" transform="translate(158.726 343.313)" fill="none" stroke="#274693" stroke-miterlimit="10" stroke-width="1"/>
    <path id="Stroke_211" data-name="Stroke 211" d="M0,.421H23.75" transform="translate(158.726 360.942)" fill="none" stroke="#274693" stroke-miterlimit="10" stroke-width="1"/>
    <path id="Stroke_212" data-name="Stroke 212" d="M0,.421H23.75" transform="translate(158.726 378.571)" fill="none" stroke="#274693" stroke-miterlimit="10" stroke-width="1"/>
    <path id="Fill_213" data-name="Fill 213" d="M.131,0C-.515,5.972,1.422,29.541,1.745,33.737s4.2,28.324,4.2,28.324H11.43S10.139,40.679,9.655,35.028,12.721,3.713,12.721,3.713Z" transform="translate(165.998 257.126)" fill="#274693"/>
    <path id="Fill_214" data-name="Fill 214" d="M26.917,5.81S20.193,7.577,16.4,6.931A29.42,29.42,0,0,1,6.613,2.806S.125,4.754,0,1.7C-.04.723,6.847-.636,7.815.333s6.2,1.918,9.522,2.134a18.667,18.667,0,0,0,6.186-.529Z" transform="translate(135.177 239.855)" fill="#ffd6c2"/>
    <path id="Fill_215" data-name="Fill 215" d="M20.5,25.586l3.859-11.1.983,7.384,5.165-4.843S29.826,6.222,27.243,4.447A29.57,29.57,0,0,0,22.15,1.662s-2.619,3.907-4.556,3.1-.242-4.2-.242-4.2-4.57-1.776-8.475.968A22.513,22.513,0,0,1,0,5.246s1.453,4.843,3.874,5.166L8.717,8.8,7.91,21.873Z" transform="translate(158.219 235.253)" fill="#ffa573"/>
    <path id="Fill_216" data-name="Fill 216" d="M11.43,0l.807,6.215H0S.131,4.6,2.552,4.036,6.829,2.906,6.91,2.422A23.9,23.9,0,0,0,6.91,0Z" transform="translate(165.998 319.187)" fill="#274693"/>
    <path id="Fill_217" data-name="Fill 217" d="M3.353,10.962l.182-.912A3.1,3.1,0,0,1,.516,9.508c-1.18-1.2-.195-5.775,1.511-8.421s9.14-.219,8.261,4.68A4.424,4.424,0,0,1,8.419,8.876l-.269,3.182S7.038,15.807,4.1,15.279s-.746-4.318-.746-4.318" transform="translate(172.218 224.856)" fill="#ffd6c2"/>
    <path id="Fill_218" data-name="Fill 218" d="M0,2.478C.017.1,2.925-.227,5.1.113,6.791.376,6.84,1.831,7.758,2.195s5.039,2.82,1.971,8.586c0,0-.5-2.138-2.227-1.216,0,0,1.343-3.368-.426-3.111S-.034,7.481,0,2.478" transform="translate(172.499 220.856)" fill="#577dc9"/>
    <path id="Fill_219" data-name="Fill 219" d="M14.29,0s.557,6.78.036,9.04S5.753,19.532,5.269,20.662s.894,4.7-1.5,4.843A24.013,24.013,0,0,1,.1,25.5a6.635,6.635,0,0,1,2.246-6.277C5.429,16.789,10.323,7.2,10.323,7.2l-.286-3.213Z" transform="translate(174.436 252.283)" fill="#ffd6c2"/>
    <path id="Fill_220" data-name="Fill 220" d="M16.179,0S.75,18.114.035,22.164s9.7,22.753,9.7,22.753h2.41s.974,2.634-.953,2.991S7.3,47.78,6.523,50.64H17.842L7.3,23.841l9.253-8.823Z" transform="translate(149.949 257.126)" fill="#274693"/>
    <path id="Fill_221" data-name="Fill 221" d="M25.838,9.687c.33,8.01,2.127,20.772,5.044,23.925,3.461,3.738,4.173,8.133,4.476,14.783s.926,13.433.926,13.433-3.973,3.451-6.766,3.451c-4.458,0-5.866-.215-4.317-1.764s5.4-2.737,5.4-2.737-3.18-22.224-6.453-25.55S18.326,22.836,17.634,18.3s-3.4,11.535-3.094,14.86S16.963,45.909,16,51.26c-.4,2.23-1.019,6.575-1.3,8.746L13.483,63.63S.674,65.569.069,63.755,2.9,61.514,6.835,60.607s2.617-21.351,1.105-27.4S4,12.089,9.336,3.2c5.977-9.961,16.5,6.483,16.5,6.483" transform="translate(189.318 323.492)" fill="#274693"/>
    <path id="Fill_222" data-name="Fill 222" d="M.954,0C-.136,2.086-.327,7.008.563,9.206c2.886,7.13,9.909,6.858,12.34,7.419a5.385,5.385,0,0,1,2.24.98c1.412,1.158,1.392,18.3,2.046,21.62.151.761,4.8-1.11,7.067-1.25a45.753,45.753,0,0,0,5.038-.59,3.142,3.142,0,0,0,1.7-.672,3.165,3.165,0,0,0,.736-1.68,57.781,57.781,0,0,0,1.22-14.6A3.229,3.229,0,0,1,35.835,22a8.3,8.3,0,0,1,.925,2.628c.037.4.758.286,1.161.34a9.023,9.023,0,0,0,3.185-.14c.657-.148,1.631-2.276,1.492-2.9-.908-4.114-4.526-9.652-9.511-11.7a17.667,17.667,0,0,0-7.329-1.031l-11.6.369c-1.27.04-9.569.228-9.375-6.166A12.41,12.41,0,0,1,5.143.9" transform="translate(180.193 290.048)" fill="#577dc9"/>
    <path id="Fill_223" data-name="Fill 223" d="M4.189,3.86c.164-.7.367-1.381.567-2.065.21-.718.507-1.286-.293-1.63a2.577,2.577,0,0,0-2.051.11A5.007,5.007,0,0,0,.467,2.159q-.253.392-.467.8" transform="translate(181.147 287.087)" fill="#ffd6c2"/>
    <path id="Fill_224" data-name="Fill 224" d="M0,19.306H28.956V0H0Z" transform="translate(199.638 313.873)" fill="#ef5b34"/>
    <path id="Fill_225" data-name="Fill 225" d="M9.364,1.459C10.406,9.971,7.233,17.112,2.87,19.888c0,0-4.189-1.3-2.445-3.967,2.44-3.738,4.079-7.355,3.1-11.76-1.638-7.372,5.839-2.7,5.839-2.7" transform="translate(213.427 310.515)" fill="#577dc9"/>
    <path id="Fill_226" data-name="Fill 226" d="M4.638,3.706C2.608,5.647.132,5.457.005,4.187S2.039,0,2.039,0Z" transform="translate(211.659 326.697)" fill="#ffd6c2"/>
    <path id="Fill_227" data-name="Fill 227" d="M0,2.474C.024,1.485.152-.229,2.754.025s7.68.8,7.68,4.684-2.412,6.677-4.126,7.121a8.819,8.819,0,0,0-2.735,1.185Z" transform="translate(204.722 286.238)" fill="#274693"/>
    <path id="Fill_228" data-name="Fill 228" d="M2.042,2.03A21.672,21.672,0,0,0,.63,4.649,5.4,5.4,0,0,0,.007,7.19,4.4,4.4,0,0,0,1.292,9.8a6.28,6.28,0,0,1,.786.908,4,4,0,0,1,.455,2.108,18.714,18.714,0,0,1-.279,3.416l2.769-2.78a7,7,0,0,0,1.459-1.839,6.362,6.362,0,0,0,.478-1.883s3.535-6,2.619-8.348C9.276.6,5.426.049,4.44,0S2.492,1.318,2.042,2.03" transform="translate(201.672 287.995)" fill="#ffd6c2"/>
    <path id="Fill_229" data-name="Fill 229" d="M.6,1.071C-.934,4.922.778,7.918,2.276,9.844s0,2.568,0,2.568H8.482L7.626,9.844,6.556,0Z" transform="translate(246.802 288.69)" fill="#ffd6c2"/>
    <path id="Fill_230" data-name="Fill 230" d="M6.646.765C10.5.551,13.281,3.333,12.638,7.828s-1.07,7.062-4.066,7.062S3.864,13.606,3.65,10.824c0,0,2.14-2.152,0-3S-1.7,2.453,1.083.753A5.615,5.615,0,0,1,6.646.765" transform="translate(245.855 283.645)" fill="#ef5b34"/>
    <path id="Fill_231" data-name="Fill 231" d="M12.174,0h1.284V1.427s5.707.142,6.705,2.14,2.568,12.7,2.71,18.121-1,10.986-1.854,12.269H18.308l.428-2.711s-16.446.955-17.262,0c-.458-.536.428-12.128,0-16.408S-1.238,3.852.9,3.139,6.182,1.712,6.182,1.712L5.968,0Z" transform="translate(243.111 301.103)" fill="#ffa573"/>
    <path id="Fill_232" data-name="Fill 232" d="M2.711,0s.3,5.715-1.777,5.711L0,0Z" transform="translate(261.418 335.06)" fill="#ffd6c2"/>
    <path id="Fill_233" data-name="Fill 233" d="M.313,56.358h9.7s-.429-2.425,0-2.854,2.036,0,2.036,0,.83-18.976-.889-25.4c0-.713,0-15.694,2.067-15.694s4.061,12.555,4.2,14.838S23.425,49.794,23,51.079s-1.428-.143-1.713,1.141,2.569,4,3,4.138a32,32,0,0,0,3.709,0A71.571,71.571,0,0,0,27,45.087c-1.011-5.708-2.58-13.983-2.722-19.119S22.855,0,22.855,0,6.809.954,5.593,0c-.885.779-.429,25.888-.286,28.211s.713,24.581.713,24.581A22.075,22.075,0,0,0,.884,54.218a1.366,1.366,0,0,0-.571,2.14" transform="translate(238.992 332.35)" fill="#577dc9"/>
    <path id="Fill_234" data-name="Fill 234" d="M14.756,0s-2.229,0-2.408,9.16C12.151,19.237,0,25.682,0,25.682l.918,3.384A22.358,22.358,0,0,0,15.223,19.3C20.635,10.845,14.756,0,14.756,0" transform="translate(229.411 304.191)" fill="#ffa573"/>
    <path id="Fill_235" data-name="Fill 235" d="M4.542,0A26.705,26.705,0,0,0,.733,1.791c-1.6.978-.814,3.922,4.727,1.593Z" transform="translate(224.87 329.873)" fill="#ffd6c2"/>
    <path id="Fill_236" data-name="Fill 236" d="M8.9,4.451A4.45,4.45,0,1,1,4.45,0,4.45,4.45,0,0,1,8.9,4.451" transform="translate(172.392 51.8)" fill="#ffa573"/>
    <path id="Fill_237" data-name="Fill 237" d="M4.686,2.343A2.343,2.343,0,1,1,2.342,0,2.343,2.343,0,0,1,4.686,2.343" transform="translate(66.679)" fill="#ffa573"/>
    <path id="Fill_238" data-name="Fill 238" d="M4.686,2.343A2.343,2.343,0,1,1,2.342,0,2.343,2.343,0,0,1,4.686,2.343" transform="translate(14.685 85.157)" fill="#ffa573"/>
  </g>
</svg>
